<?xml version="1.0" encoding="utf-8"?>
<!-- Generator: Adobe Illustrator 25.3.0, SVG Export Plug-In . SVG Version: 6.00 Build 0)  -->
<svg version="1.1" id="Layer_1" xmlns="http://www.w3.org/2000/svg" xmlns:xlink="http://www.w3.org/1999/xlink" x="0px" y="0px"
	 viewBox="0 0 558.3086 121.4004" enable-background="new 0 0 558.3086 121.4004" xml:space="preserve">
<g>
	<g>
		<path fill="#F398C0" d="M15.0537,97.9697c-4.938,0-8.6611-0.8096-11.1689-2.4277C1.375,93.9219,0.0796,91.251,0,87.5293
			c0-0.8076,0.4438-1.2139,1.3354-1.2139c0.728,0,1.8398,0.1826,3.3384,0.5469c1.4966,0.3643,4.3496,0.5459,8.5586,0.5459
			c7.1211,0,13.6768-0.7471,19.667-2.2461c5.9883-1.4961,11.1875-3.5205,15.6001-6.0703c4.4102-2.5488,7.8301-5.4209,10.2583-8.6191
			c2.4277-3.1963,3.6416-6.5342,3.6416-10.0156c0-3.1562-0.9521-5.6846-2.8525-7.5869c-1.9028-1.9014-4.4121-3.3584-7.5269-4.3706
			c-3.1167-1.0112-6.5161-1.6787-10.1978-2.0034c-3.6836-0.3223-7.3047-0.4854-10.8652-0.4854c-1.5386,0-3.0767,0.021-4.6133,0.0605
			c-1.5386,0.042-2.9951,0.061-4.3706,0.061c-1.7808,6.1509-3.5205,12.5044-5.2202,19.0601
			c-1.6992,6.5557-3.4805,12.9893-5.3413,19.3018c-2.4282,0-4.5337-0.6465-6.313-1.9424c-1.7812-1.293-2.6709-2.8711-2.6709-4.7344
			c0-0.7285,0.1406-1.6787,0.4248-2.8525c0.2827-1.1729,0.708-2.5684,1.2749-4.1885c0.4858-1.5361,1.3145-4.0859,2.4888-7.6484
			c1.1724-3.5605,2.5684-7.7695,4.1885-12.625c1.6177-4.8564,3.418-9.9741,5.4023-15.3574
			c1.9819-5.3813,4.0459-10.6626,6.1914-15.8428c2.1431-5.1787,4.2676-9.8335,6.3735-13.9609
			c-3.2383,0.728-5.9092,1.5781-8.0127,2.5493c-2.1055,0.9712-3.7632,1.8208-4.9775,2.5493
			c-1.2139,0.7285-2.145,1.0928-2.792,1.0928c-0.4858,0-1.1133-0.2827-1.8818-0.8501c-0.77-0.5649-1.4565-1.2139-2.0635-1.9424
			C8.437,8.0122,8.1338,7.3657,8.1338,6.7983c4.3701-1.7793,8.9019-3.3574,13.5967-4.7344C26.4233,0.6885,32.0894,0,38.7266,0
			c2.9136,0,6.1099,0.2236,9.5908,0.6675c3.4785,0.4458,6.7983,1.3354,9.9546,2.6709s5.7666,3.3198,7.8306,5.9487
			c2.0635,2.6309,3.0957,6.1309,3.0957,10.501c0,3.481-0.7495,6.4951-2.2461,9.0444c-1.4985,2.5493-3.5015,4.7349-6.0093,6.5557
			c-2.5098,1.8208-5.2622,3.3193-8.2554,4.4917c-2.9951,1.1743-5.9487,2.1245-8.8623,2.853
			c5.0176,0.6489,9.2056,1.6807,12.5649,3.0957c3.3574,1.417,6.0283,3.0557,8.0127,4.9165c1.9819,1.8633,3.3989,3.7842,4.249,5.7666
			c0.8496,1.9844,1.2744,3.9062,1.2744,5.7666c0,4.7764-1.2554,9.0654-3.7632,12.8682c-2.5098,3.8057-5.8081,7.123-9.894,9.9551
			c-4.0879,2.832-8.5796,5.1992-13.4756,7.1016c-4.8979,1.9014-9.7729,3.3389-14.6289,4.3105
			C23.3086,97.4844,18.9385,97.9697,15.0537,97.9697z M23.1875,41.519c4.5312-0.1616,8.9834-0.687,13.354-1.5781
			c4.3701-0.8896,8.3159-2.2046,11.8364-3.9458c3.5205-1.7393,6.3315-4.0063,8.4375-6.7983
			c2.1035-2.792,3.1562-6.252,3.1562-10.3799c0-3.8848-1.0527-6.8779-3.1562-8.9834c-2.106-2.1035-4.8564-3.5605-8.2554-4.3706
			C45.1606,4.6548,41.5186,4.249,37.6338,4.249c-0.0815,0-0.1631,0-0.2427,0c-0.0815,0-0.1631,0-0.2427,0
			c-2.7524,5.4233-5.2622,11.311-7.5269,17.6636C27.355,28.2671,25.2095,34.8022,23.1875,41.519z"/>
		<path fill="#F398C0" d="M88.0146,92.75c-5.1807,0-9.166-1.3965-11.958-4.1885s-4.1885-6.292-4.1885-10.501
			c0-3.5605,0.9106-7.3447,2.7314-11.3516c1.8213-4.0059,4.2681-7.7695,7.3447-11.29c3.0752-3.5205,6.4741-6.373,10.1978-8.5586
			c3.7217-2.1851,7.4453-3.2778,11.1689-3.2778c2.1035,0,4.1069,0.5464,6.0093,1.6392c1.9009,1.0923,2.853,3.2588,2.853,6.4951
			c0,3.0762-0.8916,5.9482-2.6709,8.6191c-1.7812,2.6709-4.1694,5.0586-7.1626,7.1631c-2.9951,2.1055-6.2939,3.8232-9.894,5.1592
			c-3.6025,1.335-7.2236,2.2061-10.8652,2.6104c-0.0815,0.3242-0.1426,0.667-0.1821,1.0312c-0.042,0.3643-0.061,0.9521-0.061,1.7607
			c0,0.4062,0.061,1.1133,0.1821,2.124c0.1216,1.0137,0.4648,2.085,1.0322,3.2178c0.5649,1.1338,1.4966,2.1055,2.792,2.9131
			c1.2935,0.8105,3.0747,1.2139,5.3418,1.2139c3.3989,0,6.8174-0.9502,10.2583-2.8525c3.439-1.9004,6.6768-4.4316,9.7119-7.5879
			s5.5635-6.6768,7.5874-10.5615l2.4282,1.9424c-2.1855,4.8564-4.9985,9.1055-8.4375,12.7471
			c-3.4409,3.6416-7.2441,6.4736-11.4116,8.498C96.6528,91.7373,92.3848,92.75,88.0146,92.75z M82.9155,70.7764
			c2.104-0.2432,4.4502-0.9717,7.0415-2.1855c2.5894-1.2139,5.0781-2.75,7.4658-4.6133c2.3867-1.8604,4.3496-3.9033,5.8882-6.1299
			c1.5366-2.2256,2.3066-4.4717,2.3066-6.7383c0-0.8896-0.1631-1.4961-0.4858-1.8208c-0.3242-0.3228-0.8496-0.4858-1.5781-0.4858
			c-1.8628,0-3.8052,0.668-5.8271,2.0029c-2.0239,1.3359-4.0063,3.0771-5.9487,5.2207c-1.9424,2.1455-3.6836,4.5127-5.2202,7.1016
			C85.0195,65.7197,83.8052,68.2686,82.9155,70.7764z"/>
		<path fill="#F398C0" d="M122.1265,93.1143c-2.6709,0-4.998-0.8916-6.9805-2.6709c-1.9824-1.7812-2.9741-4.4502-2.9741-8.0127
			c0-2.832,0.6484-5.9072,1.9424-9.2266c1.2935-3.3174,3.0747-6.5947,5.3413-9.833c2.2651-3.2363,4.856-6.1709,7.77-8.8018
			c2.9136-2.6289,6.0278-4.7529,9.3477-6.3735c3.3174-1.6182,6.6353-2.4277,9.9546-2.4277c3.479,0,6.4346,0.8916,8.8623,2.6704
			c2.4282,1.7812,3.6421,4.1279,3.6421,7.041c0,2.1855-0.77,3.7637-2.3066,4.7354c-1.5381,0.9707-3.3594,1.2559-5.4629,0.8496
			c0.1611-0.7285,0.3032-1.457,0.4248-2.1855s0.1821-1.4961,0.1821-2.3066c0-1.6182-0.3242-3.0742-0.9712-4.3701
			c-0.6489-1.2939-2.0239-1.9424-4.1274-1.9424c-2.2671,0-4.5737,0.7705-6.9199,2.3066c-2.3486,1.5381-4.5942,3.541-6.7378,6.0088
			c-2.1455,2.4697-4.0669,5.1807-5.7666,8.1338c-1.6997,2.9561-3.0352,5.8486-4.0063,8.6807
			c-0.9712,2.834-1.4565,5.3828-1.4565,7.6484c0,2.5908,0.9292,3.8848,2.792,3.8848c1.8608,0,3.9248-0.9111,6.1914-2.7314
			c2.2651-1.8213,4.5527-4.1074,6.8594-6.8594c2.3066-2.751,4.5107-5.5635,6.6162-8.4375c2.1035-2.8721,3.9248-5.3203,5.4629-7.3447
			c0.2432-0.4043,0.5654-0.6064,0.9712-0.6064c0.3228,0.0811,0.9507,0.2637,1.8818,0.5459c0.9297,0.2842,1.8003,0.709,2.6104,1.2744
			c0.8076,0.5674,1.2139,1.2959,1.2139,2.1855c0,0.8096-0.3452,1.8418-1.0322,3.0957c-0.6885,1.2559-1.4985,2.6309-2.4277,4.1279
			c-0.9316,1.498-1.7412,2.9951-2.4282,4.4912c-0.6885,1.499-1.0317,2.9346-1.0317,4.3096c0,1.0527,0.2827,2.0449,0.8496,2.9746
			c0.5654,0.9316,1.4971,1.3965,2.7925,1.3965c1.9424,0,4.6738-1.4365,8.1943-4.3096c3.5205-2.8721,7.1021-7.749,10.7441-14.6289
			l2.3066,2.3066c-1.9424,4.3701-4.27,8.2363-6.9805,11.5938c-2.7129,3.3594-5.5654,5.9902-8.5591,7.8906
			c-2.9951,1.9004-6.0298,2.8525-9.105,2.8525c-3.3193,0-5.7871-1.0527-7.4053-3.1562c-1.6201-2.1035-2.5098-4.3701-2.6709-6.7979
			c0-0.1611,0-0.2832,0-0.3643c0-0.0801,0-0.1611,0-0.2432c-3.2378,3.8848-6.2124,6.96-8.9229,9.2266
			C128.0942,91.9795,125.2012,93.1143,122.1265,93.1143z"/>
		<path fill="#F398C0" d="M178.4546,91.0498c-2.7524,0-4.9985-1.2744-6.7378-3.8232c-1.7412-2.5498-2.6104-5.4824-2.6104-8.8018
			c0-2.2646,0.3643-4.9355,1.0928-8.0127c0.7285-3.0752,1.6787-6.0703,2.853-8.9834c1.1724-2.9141,2.3862-5.3418,3.6421-7.2842
			c1.2534-1.9424,2.4067-2.9141,3.46-2.9141c0.5649,0,1.4355,0.3037,2.6099,0.9111c1.1724,0.6064,2.2041,1.3564,3.0957,2.2461
			c-0.8916,1.2949-1.9634,3.2773-3.2173,5.9482c-1.2554,2.6709-2.3672,5.5449-3.3384,8.6191
			c-0.9712,3.0771-1.4565,5.8691-1.4565,8.377c0,0.3242,0.0605,1.0928,0.1821,2.3066c0.1211,1.2139,0.4248,2.3486,0.9102,3.3994
			c0.4858,1.0527,1.3354,1.5781,2.5493,1.5781c1.3755,0,2.853-0.748,4.4312-2.2461c1.5781-1.4971,3.1963-3.4395,4.856-5.8271
			c1.6582-2.3867,3.2778-4.957,4.8564-7.709c1.5781-2.751,2.9932-5.4209,4.249-8.0127c1.2534-2.5889,2.2856-4.7744,3.0957-6.5557
			c0.728,0.082,1.6787,0.2852,2.8525,0.6074c1.1724,0.3242,2.2041,0.749,3.0957,1.2744c0.8896,0.5273,1.3354,1.2744,1.3354,2.2461
			c0,0.2432-0.3848,1.2344-1.1533,2.9746c-0.77,1.7412-1.6597,3.8242-2.6709,6.252c-1.0127,2.4277-1.9023,4.917-2.6704,7.4658
			c-0.7705,2.5498-1.1533,4.7959-1.1533,6.7383c0,1.1338,0.2217,2.124,0.6675,2.9736c0.4438,0.8496,1.3145,1.2754,2.6104,1.2754
			c1.6992,0,3.7217-0.7686,6.0698-2.3066c2.3462-1.5371,4.7744-3.7637,7.2842-6.6777c2.5073-2.9131,4.7344-6.3926,6.6768-10.4404
			l1.8213,1.457c-1.7812,4.3701-4.0879,8.2969-6.9199,11.7764c-2.834,3.4805-5.8691,6.2119-9.105,8.1943
			c-3.2383,1.9824-6.3945,2.9736-9.4692,2.9736c-2.3486,0-4.1089-0.5459-5.2812-1.6387c-1.1738-1.0928-1.9629-2.5078-2.3672-4.249
			c-0.4058-1.7393-0.6484-3.5-0.7285-5.2803c0-0.4043,0-0.8291,0-1.2754c0-0.4434,0-0.8291,0-1.1533
			c-1.377,2.1855-2.8735,4.3096-4.4917,6.374c-1.6196,2.0635-3.3384,3.7822-5.1592,5.1592
			C182.3999,90.3613,180.4766,91.0498,178.4546,91.0498z"/>
		<path fill="#F398C0" d="M233.812,92.9922c-3.5625,0-6.4341-1.0527-8.6191-3.1562c-2.1855-2.1055-3.2778-5.2998-3.2778-9.5908
			c0-3.3174,0.6274-7.4443,1.8813-12.3828c1.2539-4.9355,2.853-10.0342,4.7954-15.2959c-0.5669-0.1611-1.2349-0.3037-2.0029-0.4248
			c-0.77-0.1221-1.5176-0.3438-2.2461-0.668v-3.7632c1.2939,0.1631,2.3672,0.2842,3.2173,0.3643
			c0.8496,0.0815,1.7183,0.1631,2.6099,0.2427c1.6997-4.2891,3.5396-8.4375,5.5239-12.4434
			c1.9819-4.0063,3.9644-7.5879,5.9487-10.7441c1.9819-3.1562,3.8638-5.645,5.645-7.4663c1.7793-1.8208,3.3574-2.7314,4.7344-2.7314
			c0.8081,0,1.5781,0.3037,2.3066,0.9106s1.0928,1.4775,1.0928,2.6099c0,1.6201-0.8311,3.9268-2.4888,6.9199
			c-1.6597,2.9951-3.7026,6.4951-6.1309,10.5015c-2.4277,4.0059-4.7764,8.2759-7.041,12.8076c0.647,0,1.2935,0,1.9424,0
			c0.647,0,1.2539,0,1.8208,0c3.5605,0,6.7778-0.061,9.6514-0.1821c2.8721-0.1216,5.8066-0.3433,8.8018-0.668v4.0063
			c-4.4521,0.4062-8.54,0.7285-12.2617,0.9717c-3.7236,0.2422-7.2837,0.4053-10.6831,0.4854c-0.2427,0-0.4854,0-0.7285,0
			c-0.2427,0-0.4854,0-0.728,0c-1.6997,3.9658-3.1772,8.0332-4.4312,12.2002c-1.2559,4.1699-1.8818,8.2363-1.8818,12.2012
			c0,3.3193,0.5254,5.666,1.5781,7.041c1.0508,1.377,2.7109,2.0635,4.9775,2.0635c4.0459,0,8.1943-1.8398,12.4434-5.5234
			c4.249-3.6816,7.9517-8.6797,11.1084-14.9932l1.6992,1.2148c-2.1055,4.7754-4.7153,9.1045-7.8301,12.9893
			c-3.1167,3.8848-6.4951,6.9385-10.1367,9.166C241.4604,91.8789,237.6968,92.9922,233.812,92.9922z"/>
		<path fill="#F398C0" d="M263.5547,121.4004c-2.0239,0-3.9058-0.6279-5.645-1.8818c-1.7393-1.2559-2.6104-3.2588-2.6104-6.0098
			c0-2.5908,0.7705-4.916,2.3066-6.9805c1.5366-2.0635,3.521-3.9658,5.9487-5.7051c2.4282-1.7412,5.0381-3.3203,7.8306-4.7354
			c2.792-1.417,5.4819-2.7314,8.0728-3.9453c0.8896-2.3477,1.8818-5.3203,2.9746-8.9229c1.0923-3.6006,2.043-6.9385,2.853-10.0156
			c-2.5098,3.4814-5.1807,6.5557-8.0127,9.2266c-2.834,2.6709-5.9902,4.0059-9.4692,4.0059c-1.4565,0-2.9951-0.3027-4.6133-0.9102
			c-1.6196-0.6064-2.9741-1.6582-4.0669-3.1562c-1.0923-1.4971-1.6387-3.5-1.6387-6.0098c0-2.1035,0.3828-4.6523,1.1533-7.6475
			c0.7681-2.9932,1.7393-5.9277,2.9136-8.8018c1.1724-2.8721,2.4072-5.2598,3.7026-7.1631
			c1.2935-1.9004,2.4277-2.8525,3.3994-2.8525c0.4854,0,1.1929,0.1826,2.124,0.5459c0.9297,0.3643,1.8403,0.8506,2.7319,1.457
			c0.8896,0.6074,1.4565,1.2744,1.6992,2.0029c-0.728,0.9717-1.5381,2.3672-2.4277,4.1885
			c-0.8916,1.8213-1.7412,3.8447-2.5493,6.0703c-0.8101,2.2266-1.478,4.3916-2.0034,6.4951
			c-0.5273,2.1055-0.7891,3.9258-0.7891,5.4629c0,1.2139,0.2427,2.2666,0.7285,3.1562c0.4858,0.8916,1.415,1.335,2.792,1.335
			c1.7793,0,3.6216-0.7275,5.5239-2.1846c1.9009-1.457,3.7632-3.3174,5.5845-5.585c1.8208-2.2646,3.46-4.5713,4.9165-6.9199
			c0.1616-0.5645,0.3228-1.4561,0.4858-2.6699c0.1611-1.2148,0.4438-2.4688,0.8496-3.7637c0.4043-1.375,1.1118-2.6289,2.1245-3.7637
			c1.0112-1.1328,2.4473-1.6992,4.3096-1.6992c0.647,0,1.2539,0.041,1.8213,0.1211c0.5654,0.082,1.2539,0.2031,2.064,0.3643
			c0,1.2139-0.4253,3.5811-1.2749,7.1016s-1.9634,7.5879-3.3384,12.2012c-1.3774,4.6133-2.9136,9.2266-4.6133,13.8398
			c3.3989-1.376,6.9385-3.6611,10.6226-6.8594c3.6816-3.1963,6.6562-7.749,8.9229-13.6572l2.064,1.6992
			c-1.2144,4.0479-3.0562,7.5684-5.5239,10.5615c-2.4697,2.9951-5.2412,5.5449-8.3159,7.6484
			c-3.0767,2.1035-6.1914,3.8428-9.3477,5.2207c-2.1855,5.2598-4.5527,10.1152-7.1021,14.5674
			c-2.5493,4.4502-5.2412,7.9922-8.0732,10.623C269.8257,120.084,266.791,121.4004,263.5547,121.4004z M262.3408,116.9082
			c1.5366,0,3.6816-1.6201,6.4341-4.8555c2.7505-3.2383,5.543-8.0947,8.3765-14.5684c-2.5908,1.2939-5.2012,2.8115-7.8301,4.5527
			c-2.6309,1.7393-4.8369,3.5811-6.6162,5.5234c-1.7812,1.9424-2.6709,3.9248-2.6709,5.9482c0,0.8086,0.1821,1.5791,0.5464,2.3066
			C260.9448,116.5439,261.5308,116.9082,262.3408,116.9082z"/>
		<path fill="#F398C0" d="M366.1367,97.9697c-4.6943,0-9.166-0.8096-13.415-2.4277c-4.249-1.6201-7.708-4.0879-10.3789-7.4053
			s-4.0068-7.4453-4.0068-12.3828c0-4.3701,0.9717-7.7891,2.9141-10.2588c1.9424-2.4678,4.3701-4.1875,7.2842-5.1592
			c2.9131-0.9717,5.7451-1.457,8.498-1.457c-2.5918,2.7529-4.5527,5.585-5.8887,8.498c-1.335,2.9141-2.0029,5.7061-2.0029,8.377
			c0,2.752,0.708,5.3223,2.125,7.709c1.415,2.3877,3.5391,4.3281,6.373,5.8271c2.832,1.4961,6.3525,2.2461,10.5615,2.2461
			c3.6426,0,7.1816-0.6074,10.623-1.8213c3.4395-1.2139,6.2715-3.0352,8.498-5.4629c2.2246-2.4277,3.3389-5.4629,3.3389-9.1055
			c0-3.3174-0.9531-6.1699-2.8535-8.5586c-1.9023-2.3857-4.3516-4.5312-7.3447-6.4336c-2.9951-1.9014-6.1514-3.7217-9.4688-5.4639
			c-3.3203-1.7393-6.4766-3.6211-9.4697-5.6445c-2.9951-2.0225-5.4434-4.3706-7.3447-7.0415
			c-1.9023-2.6709-2.8525-5.8672-2.8525-9.5903c0-3.3179,0.8291-6.8594,2.4883-10.6226c1.6582-3.7637,4.0254-7.3032,7.1025-10.6226
			c3.0742-3.3179,6.7979-6.0093,11.1689-8.0732C376.4561,1.0317,381.3115,0,386.6533,0c5.585,0,9.5088,1.1743,11.7764,3.5205
			c2.2646,2.3486,3.3984,5.4233,3.3984,9.2266c0,2.9951-0.5273,6.1914-1.5781,9.5908c-1.0527,3.3989-2.3271,6.6367-3.8242,9.7119
			c-1.498,3.0767-2.9336,5.7056-4.3096,7.8911c-1.7812-0.4043-3.1162-1.1118-4.0059-2.1245
			c-0.8916-1.0112-1.3359-2.3677-1.3359-4.0669c0-1.6997,0.3438-3.6006,1.0322-5.7061c0.6865-2.1035,1.4971-4.2891,2.4277-6.5557
			c0.9297-2.2646,1.7402-4.4707,2.4287-6.6162c0.6865-2.1436,1.0312-4.0254,1.0312-5.645c0-1.457-0.4248-2.5894-1.2744-3.3994
			c-0.8496-0.8081-2.5703-1.2139-5.1592-1.2139c-3.8848,0-7.4473,0.8496-10.6836,2.5493c-3.2383,1.6997-6.0508,3.8452-8.4375,6.4341
			c-2.3877,2.5913-4.2295,5.3228-5.5234,8.1948c-1.2959,2.8735-1.9424,5.4839-1.9424,7.8301c0,2.9136,0.9297,5.4023,2.792,7.4663
			c1.8613,2.0635,4.2686,3.9453,7.2236,5.645c2.9531,1.6997,6.0703,3.3994,9.3477,5.0986c3.2783,1.6997,6.3926,3.6021,9.3477,5.7056
			c2.9541,2.1055,5.3604,4.6133,7.2236,7.5273c1.8604,2.9131,2.792,6.4756,2.792,10.6836c0,4.209-0.9521,7.9326-2.8525,11.168
			c-1.9023,3.2383-4.4727,5.9678-7.709,8.1953c-3.2383,2.2246-6.8193,3.9238-10.7441,5.0986
			C374.168,97.3818,370.1826,97.9697,366.1367,97.9697z"/>
		<path fill="#F398C0" d="M412.2666,92.0215c-1.7803,0-3.0557-1.377-3.8232-4.1279c-0.7705-2.75-1.1533-5.9482-1.1533-9.5908
			c0-3.7217,0.626-8.2129,1.8809-13.4746c1.2539-5.2607,2.9541-10.8047,5.0996-16.6323c2.1436-5.8271,4.5312-11.5327,7.1621-17.1172
			c2.6289-5.5845,5.3418-10.6626,8.1338-15.2358c2.792-4.5713,5.4629-8.2344,8.0127-10.9868
			c2.5488-2.7505,4.7949-4.1274,6.7373-4.1274c1.7002,0,2.9932,0.9312,3.8848,2.792c0.8896,1.8628,1.3359,3.8052,1.3359,5.8271
			c0,2.1855-0.5068,4.877-1.5176,8.0732c-1.0127,3.1982-2.4092,6.6162-4.1885,10.2583c-1.7812,3.6421-3.8662,7.2231-6.252,10.7441
			c-2.3887,3.5205-4.9775,6.7378-7.7695,9.6514s-5.6875,5.2622-8.6807,7.0415c-1.0527,2.752-1.8818,5.3223-2.4883,7.708
			c-0.6074,2.3887-1.0322,4.6348-1.2744,6.7383c-0.2432,2.1055-0.3643,4.1689-0.3643,6.1914c0,0.4062,0.0186,0.8311,0.0605,1.2744
			c0.04,0.4463,0.0605,0.8711,0.0605,1.2744c0.3223-0.4854,0.8496-1.7393,1.5781-3.7627c0.7285-2.0225,1.7188-4.3896,2.9746-7.1025
			c1.2539-2.71,2.8105-5.3809,4.6738-8.0117c1.8604-2.6299,4.0459-4.8145,6.5557-6.5557c2.5078-1.7393,5.3809-2.6104,8.6191-2.6104
			c2.751,0,4.8955,0.6279,6.4346,1.8818c1.5361,1.2559,2.6289,2.792,3.2773,4.6133c0.6475,1.8203,0.9717,3.6631,0.9717,5.5234
			c0,2.5908-0.4248,5.0195-1.2754,7.2842c-0.8496,2.2666-1.6992,4.3916-2.5488,6.373c-0.8496,1.9844-1.2744,3.8662-1.2744,5.6455
			c0,1.457,0.3223,2.4697,0.9707,3.0352c0.6465,0.5674,1.415,0.8496,2.3066,0.8496c1.7793,0,3.8643-0.8896,6.252-2.6709
			c2.3867-1.7793,4.7744-4.1465,7.1631-7.1016c2.3857-2.9541,4.4307-6.2109,6.1309-9.7734l1.9424,2.0645
			c-1.8633,4.0479-4.0488,7.7695-6.5557,11.1689c-2.5098,3.3984-5.2627,6.1113-8.2559,8.1338
			c-2.9951,2.0215-6.2324,3.0352-9.7119,3.0352c-3.0762,0-5.4229-0.8105-7.041-2.4287c-1.6201-1.6182-2.4277-3.6416-2.4277-6.0693
			c0-1.7002,0.3027-3.582,0.9102-5.6455s1.1934-4.1465,1.7607-6.252c0.5645-2.1035,0.8496-4.0068,0.8496-5.7061
			c0-1.9424-0.4248-3.2773-1.2754-4.0059c-0.8496-0.7285-1.8809-1.0928-3.0957-1.0928c-2.0234,0-3.8447,0.7891-5.4629,2.3672
			c-1.6191,1.5781-3.0762,3.623-4.3701,6.1309c-1.2959,2.5098-2.5098,5.1592-3.6416,7.9512
			c-1.1348,2.793-2.2676,5.4443-3.3994,7.9521c-1.1348,2.5098-2.3271,4.5527-3.5811,6.1309
			C415.3213,91.2324,413.8848,92.0215,412.2666,92.0215z M423.6787,47.3462c2.1035-1.8608,4.1279-4.0859,6.0703-6.6772
			c1.9424-2.5889,3.7422-5.2808,5.4023-8.0728c1.6572-2.7925,3.1143-5.5029,4.3701-8.1343
			c1.2539-2.6289,2.2461-4.9961,2.9746-7.1016c0.7275-2.1035,1.1318-3.7217,1.2139-4.856c0-0.0801,0-0.1406,0-0.1821
			c0-0.04,0-0.1006,0-0.1821c-0.4863,0-1.5176,0.9922-3.0957,2.9741c-1.5781,1.9844-3.3994,4.6548-5.4629,8.0127
			c-2.0645,3.3594-4.1279,7.1436-6.1914,11.3506C426.8955,38.687,425.1357,42.9756,423.6787,47.3462z"/>
		<path fill="#F398C0" d="M474.665,91.293c-3.6426,0-6.1309-1.1953-7.4668-3.5811c-1.335-2.3867-2.0029-4.9971-2.0029-7.8301
			c0-2.5898,0.4062-5.2393,1.2139-7.9521c0.8086-2.7109,1.9219-5.2393,3.3389-7.5879c1.415-2.3457,2.9932-4.2275,4.7344-5.6445
			c1.7393-1.415,3.5-2.125,5.2812-2.125c0.5654,0,1.2324,0.1025,2.0029,0.3037c0.7686,0.2031,1.3145,0.5068,1.6387,0.9102
			c-0.9707,1.2148-1.9629,2.7129-2.9736,4.4922c-1.0137,1.7812-1.9424,3.6631-2.793,5.6455
			c-0.8496,1.9834-1.5176,3.9873-2.0029,6.0088c-0.4854,2.0244-0.7285,3.8848-0.7285,5.585c0,1.6191,0.3037,2.9551,0.9111,4.0059
			c0.6064,1.0527,1.6787,1.5781,3.2168,1.5781c1.5361,0,3.3779-0.8691,5.5234-2.6104c2.1436-1.7393,4.1885-3.7422,6.1309-6.0088
			c-2.5908-2.3467-4.4521-4.917-5.584-7.709c-1.1348-2.792-1.7002-6.1709-1.7002-10.1367c0-1.7002,0.4248-3.6426,1.2754-5.8271
			c0.8496-2.1855,2.2246-4.0864,4.127-5.7061c1.9014-1.6182,4.4717-2.4282,7.709-2.4282c3.4795,0,5.9277,0.9712,7.3447,2.9136
			c1.415,1.9424,2.125,4.249,2.125,6.9199c0,2.9951-0.7891,6.3545-2.3672,10.0762c-1.5781,3.7236-3.46,7.2441-5.6455,10.5615
			c0.9707,0.4863,2.1035,0.7285,3.3994,0.7285c1.2139,0,2.6709-0.2822,4.3701-0.8496c1.6992-0.5654,3.3574-1.5176,4.9775-2.8525
			c1.6182-1.3359,2.9131-3.1357,3.8848-5.4023l2.1855,1.5781c-1.7812,4.127-4.1484,7.1436-7.1025,9.0439
			c-2.9551,1.9023-5.8477,2.8525-8.6797,2.8525c-1.0527,0-2.1055-0.0996-3.1562-0.3027c-1.0527-0.2012-2.0244-0.4648-2.9141-0.7891
			c-2.752,3.2373-5.9082,6.0693-9.4688,8.498C481.9072,90.0791,478.3066,91.293,474.665,91.293z M493.8457,72.5977
			c1.9424-2.832,3.6006-5.8672,4.9775-9.1055c1.375-3.2363,2.0645-6.2314,2.0645-8.9834c0-1.8613-0.2852-3.2168-0.8506-4.0674
			c-0.5664-0.8496-1.417-1.2744-2.5488-1.2744c-1.5391,0-3.1172,1.0928-4.7354,3.2783c-1.6191,2.1846-2.4277,4.9375-2.4277,8.2549
			c0,1.6992,0.3037,3.7637,0.9111,6.1914C491.8428,69.3193,492.7119,71.2217,493.8457,72.5977z"/>
		<path fill="#F398C0" d="M505.0137,121.4004c-0.6465,0-1.335-0.1826-2.0635-0.5469c-0.7285-0.3633-1.3545-0.7891-1.8818-1.2744
			c-0.5254-0.4854-0.8291-0.8916-0.9102-1.2139c2.0234-5.9092,3.7441-11.0283,5.1592-15.3574
			c1.417-4.3301,2.6104-8.418,3.5811-12.2607c0.9717-3.8438,1.8428-7.8496,2.6104-12.0186
			c0.7686-4.168,1.5371-8.9424,2.3066-14.3252c0.7686-5.3818,1.6387-11.877,2.6104-19.4854
			c0.1611-0.9712,0.3643-1.6787,0.6064-2.1245c0.2432-0.4438,1.0117-0.6675,2.3066-0.6675c2.5078,0,4.3291,0.6675,5.4639,2.0029
			c1.1318,1.3354,1.6992,2.813,1.6992,4.4312c0,0.8101-0.1426,2.2271-0.4248,4.2495c-0.2842,2.0234-0.71,4.4121-1.2744,7.1621
			c1.5361-2.3467,3.2959-4.5713,5.2803-6.6768c1.9824-2.1035,4.1885-3.8242,6.6162-5.1597
			c2.4287-1.3354,5.0576-2.0029,7.8916-2.0029c3.9639,0,7.2422,1.335,9.833,4.0063c2.5898,2.6709,3.8848,6.1914,3.8848,10.5615
			c0,3.1562-0.709,6.4951-2.124,10.0156c-1.417,3.5205-3.4199,6.8398-6.0098,9.9551c-2.5908,3.1162-5.7061,5.666-9.3477,7.6475
			c-3.6416,1.9824-7.6484,2.9746-12.0186,2.9746c-2.5908,0-4.6553-0.3242-6.1914-0.9707c-1.5381-0.6494-2.3066-1.3779-2.3066-2.1855
			c0-0.5674,0.3037-0.9102,0.9102-1.0322c0.6074-0.1211,1.2754-0.1816,2.0039-0.1816c3.8027-0.0801,7.2627-0.8896,10.3789-2.4287
			c3.1152-1.5361,5.8066-3.5391,8.0732-6.0088c2.2646-2.4678,4.0068-5.1182,5.2207-7.9521c1.2139-2.832,1.8203-5.624,1.8203-8.376
			c0-2.4287-0.5459-4.5322-1.6387-6.3135c-1.0928-1.7793-2.8125-2.6709-5.1592-2.6709c-2.0244,0-4.0674,0.6494-6.1309,1.9434
			c-2.0635,1.2949-3.9873,2.9336-5.7666,4.916c-1.7812,1.9844-3.3594,4.0479-4.7344,6.1914
			c-1.377,2.1455-2.4277,4.0273-3.1562,5.6455c-1.5391,5.3418-2.9346,10.6641-4.1885,15.9639
			c-1.2559,5.2998-2.4492,10.2168-3.5811,14.75c-1.1348,4.5322-2.2881,8.377-3.46,11.5332
			c-1.1729,3.1562-2.4473,5.2998-3.8242,6.4346C506.4307,121.1162,505.7422,121.4004,505.0137,121.4004z"/>
	</g>
</g>
</svg>
