<?xml version="1.0" encoding="utf-8"?>
<!-- Generator: Adobe Illustrator 25.3.0, SVG Export Plug-In . SVG Version: 6.00 Build 0)  -->
<svg version="1.1" id="Layer_1" xmlns="http://www.w3.org/2000/svg" xmlns:xlink="http://www.w3.org/1999/xlink" x="0px" y="0px"
	 viewBox="0 0 273.1758 60" enable-background="new 0 0 273.1758 60" xml:space="preserve">
<g>
	<g>
		<path fill="#F499C1" d="M7.1401,48.4204c-2.3608,0-4.1401-0.3901-5.3403-1.1704C0.6001,46.4702,0,45.1802,0,43.3804
			c0-0.3198,0.1592-0.48,0.48-0.48c0.3599,0,0.8999,0.1001,1.6201,0.2998C2.8198,43.3999,4.2197,43.5,6.2998,43.5
			c3.48,0,6.6997-0.3794,9.6602-1.1396c2.9595-0.7598,5.52-1.79,7.6802-3.0903c2.1597-1.2993,3.8398-2.7598,5.04-4.3799
			c1.1997-1.6201,1.7998-3.2896,1.7998-5.0098c0-1.5996-0.4707-2.8804-1.4102-3.8403c-0.9399-0.96-2.1704-1.6895-3.6899-2.1899
			c-1.5205-0.4995-3.1797-0.8398-4.98-1.02c-1.7998-0.1797-3.5801-0.27-5.3398-0.27c-0.7603,0-1.5205,0.0103-2.2803,0.0303
			c-0.7603,0.0205-1.48,0.0298-2.1597,0.0298c-0.9209,3.1201-1.8003,6.3105-2.6401,9.5703
			c-0.8398,3.2603-1.7202,6.4302-2.6401,9.5098c-1.1606,0-2.1401-0.2998-2.9399-0.8999c-0.8008-0.6001-1.1997-1.3398-1.1997-2.2202
			c0-0.3994,0.0796-0.8999,0.2397-1.5c0.1592-0.6001,0.3599-1.2598,0.6001-1.98c0.2397-0.7593,0.6494-2.04,1.23-3.8398
			c0.5791-1.8003,1.2798-3.9199,2.1001-6.3599c0.8193-2.4395,1.7295-5.0103,2.73-7.71c0.999-2.7002,2.04-5.3403,3.1196-7.9204
			c1.0801-2.5796,2.1396-4.8896,3.1802-6.9297c-1.6406,0.3203-2.9907,0.73-4.0498,1.23c-1.0605,0.5005-1.9004,0.9404-2.52,1.3198
			C7.2095,5.271,6.7397,5.46,6.4199,5.46c-0.2007,0-0.48-0.1289-0.8398-0.3896c-0.3604-0.2598-0.6807-0.5493-0.96-0.8701
			C4.3398,3.8804,4.2002,3.6001,4.2002,3.3604C6.3198,2.481,8.5098,1.7007,10.77,1.02C13.0293,0.3403,15.7798,0,19.02,0
			c1.3994,0,2.9399,0.1108,4.6201,0.3301c1.6797,0.2202,3.2793,0.6602,4.7998,1.3203c1.5195,0.6597,2.7695,1.6299,3.75,2.9097
			c0.9795,1.2808,1.4702,3,1.4702,5.1602c0,1.7998-0.3901,3.3506-1.1704,4.6499c-0.7798,1.3003-1.8101,2.3999-3.0898,3.3003
			c-1.2808,0.8999-2.6802,1.6299-4.1997,2.1899c-1.521,0.5605-3.021,1-4.5,1.3198c2.6396,0.2402,4.8193,0.7104,6.5396,1.4102
			c1.7197,0.7002,3.0601,1.5103,4.02,2.4297c0.96,0.9209,1.6396,1.8809,2.04,2.8804c0.3994,1,0.6001,1.98,0.6001,2.9399
			c0,2.3203-0.6206,4.4204-1.8599,6.2998c-1.2402,1.8809-2.8604,3.5205-4.8599,4.9199c-2.001,1.3999-4.1909,2.5698-6.5703,3.5103
			c-2.3804,0.9395-4.75,1.6499-7.1099,2.1299C11.1392,48.1802,9.0195,48.4204,7.1401,48.4204z M11.1001,20.6401
			c2.2397-0.0796,4.4399-0.3301,6.6001-0.75c2.1597-0.4199,4.1191-1.0698,5.8799-1.9497c1.7598-0.8794,3.1694-2.0298,4.23-3.4502
			c1.0591-1.4194,1.5898-3.1699,1.5898-5.25c0-1.9995-0.5098-3.5298-1.5298-4.5898c-1.02-1.0596-2.3403-1.8003-3.96-2.2202
			c-1.6201-0.4199-3.3506-0.6299-5.1904-0.6299c-0.1196,0-0.2202,0-0.2998,0c-0.0806,0-0.1802,0.0205-0.2998,0.0601
			c-1.3604,2.7207-2.6104,5.6802-3.75,8.8799C13.23,13.9409,12.1396,17.2407,11.1001,20.6401z"/>
		<path fill="#F499C1" d="M42.8989,45.8403c-2.52,0-4.4399-0.6807-5.7598-2.04s-1.98-3.0601-1.98-5.1001
			c0-1.7998,0.4502-3.6899,1.3501-5.6699s2.1094-3.8398,3.6299-5.5801c1.5195-1.7402,3.1895-3.1592,5.0098-4.2598
			c1.8198-1.1001,3.6304-1.6504,5.4302-1.6504c0.9995,0,1.9502,0.2607,2.8501,0.7803c0.8999,0.52,1.3501,1.5601,1.3501,3.1201
			c0,1.5205-0.4502,2.9502-1.3501,4.2896c-0.8999,1.3408-2.0806,2.5308-3.54,3.5703c-1.4604,1.0405-3.0806,1.8901-4.8599,2.5498
			c-1.7803,0.6602-3.5503,1.0708-5.3101,1.23c-0.0405,0.2402-0.0806,0.48-0.1201,0.7202c-0.0405,0.2397-0.0601,0.5605-0.0601,0.96
			c0,0.3208,0.0498,0.75,0.1499,1.29c0.0996,0.54,0.3003,1.0801,0.6001,1.6201c0.3003,0.5396,0.7695,0.9897,1.4102,1.3496
			c0.6392,0.3604,1.4795,0.54,2.52,0.54c1.6797,0,3.3691-0.48,5.0698-1.4399c1.6997-0.96,3.2896-2.2295,4.77-3.8101
			c1.4795-1.5796,2.7197-3.3301,3.7202-5.25l1.02,0.8403c-1.0801,2.3999-2.46,4.4902-4.1401,6.27
			c-1.6802,1.7803-3.5308,3.1694-5.5498,4.1699C47.0889,45.3394,45.019,45.8403,42.8989,45.8403z M40.2593,35.2202
			c1.0396-0.1997,2.2197-0.6094,3.54-1.23c1.3198-0.6196,2.5796-1.3999,3.7798-2.3398c1.2002-0.9395,2.1899-1.9697,2.9702-3.0903
			c0.7798-1.1191,1.1699-2.2593,1.1699-3.4199c0-0.4395-0.0806-0.7593-0.2402-0.96c-0.1602-0.1997-0.4404-0.2998-0.8398-0.2998
			c-0.96,0-1.9502,0.3506-2.9702,1.0498c-1.02,0.7002-2.02,1.6001-3,2.7002c-0.9805,1.1006-1.8506,2.3203-2.6099,3.6597
			C41.2988,32.6309,40.6987,33.9404,40.2593,35.2202z"/>
		<path fill="#F499C1" d="M59.5791,46.02c-1.2808,0-2.3906-0.4302-3.3301-1.29c-0.9395-0.8604-1.4102-2.1494-1.4102-3.8696
			c0-1.4399,0.3208-2.9795,0.96-4.6201c0.6396-1.6396,1.52-3.2598,2.6401-4.8599c1.1191-1.5996,2.3999-3.0601,3.8398-4.3804
			c1.4399-1.3198,2.9702-2.3794,4.5903-3.1797c1.6196-0.7998,3.2295-1.2002,4.8296-1.2002c1.6802,0,3.0903,0.4302,4.23,1.29
			c1.1401,0.8608,1.7104,1.9902,1.7104,3.3901c0,1.0801-0.3403,1.8403-1.02,2.2798c-0.6807,0.4409-1.521,0.5806-2.52,0.4199
			c0.0796-0.3193,0.1499-0.6689,0.21-1.0498c0.0601-0.3799,0.0898-0.75,0.0898-1.1099c0-0.8403-0.1802-1.5796-0.54-2.2202
			c-0.3599-0.6392-1.0601-0.96-2.1001-0.96c-1.1201,0-2.2603,0.3809-3.4199,1.1401c-1.1606,0.7603-2.2798,1.7607-3.3599,3
			c-1.0801,1.2402-2.04,2.6006-2.8799,4.0801c-0.8403,1.48-1.5,2.9399-1.98,4.3799s-0.7202,2.7207-0.7202,3.8398
			c0,1.3604,0.4995,2.04,1.5,2.04c0.9199,0,1.9292-0.4395,3.0298-1.3198c1.1001-0.8794,2.2202-2,3.3604-3.3604
			c1.1396-1.3594,2.229-2.7495,3.27-4.1699c1.0396-1.4194,1.9395-2.6699,2.6997-3.75c0.1597-0.1997,0.3003-0.2998,0.4199-0.2998
			c0.1997,0.04,0.5195,0.1304,0.9604,0.27c0.4395,0.1406,0.8398,0.3301,1.1997,0.5698c0.3599,0.2402,0.54,0.5605,0.54,0.96
			c0,0.4004-0.1802,0.9106-0.54,1.5303c-0.3599,0.6206-0.7603,1.3105-1.1997,2.0698c-0.4409,0.7603-0.8403,1.5205-1.2002,2.2803
			c-0.3599,0.7603-0.54,1.5-0.54,2.2197c0,0.5205,0.1499,1.0303,0.4502,1.5303c0.2998,0.5005,0.7891,0.75,1.4697,0.75
			c0.9995,0,2.3701-0.7295,4.1099-2.1904c1.7402-1.4595,3.5103-3.8491,5.3101-7.1699l0.96,0.96
			c-0.9204,2.1602-2.0503,4.0605-3.3896,5.7002c-1.3408,1.6406-2.751,2.9307-4.23,3.8701C76.0986,44.5298,74.6182,45,73.1392,45
			c-1.6006,0-2.7808-0.4902-3.54-1.4697c-0.7607-0.98-1.1807-2.0493-1.2603-3.21c0-0.1201,0.0093-0.2495,0.0303-0.3901
			c0.0195-0.1396,0.0298-0.27,0.0298-0.3901c-1.6406,2.04-3.1406,3.6304-4.5,4.77C62.5386,45.4502,61.0986,46.02,59.5791,46.02z"/>
		<path fill="#F499C1" d="M87.4185,45c-1.3604,0-2.4702-0.6206-3.3301-1.8599c-0.8608-1.2393-1.29-2.6792-1.29-4.3198
			c0-1.1196,0.1895-2.4395,0.5698-3.96c0.3799-1.52,0.8496-3.0098,1.4102-4.4702c0.5596-1.4595,1.1494-2.6699,1.77-3.6299
			c0.6196-0.96,1.1699-1.4399,1.6499-1.4399c0.2793,0,0.6899,0.1406,1.23,0.4199c0.54,0.2803,1.0098,0.6206,1.4102,1.02
			c-0.4404,0.6401-0.9702,1.6406-1.5898,3c-0.6206,1.3604-1.1699,2.8105-1.6499,4.3501c-0.4805,1.54-0.7202,2.9502-0.7202,4.23
			c0,0.2007,0.0298,0.6104,0.0898,1.23c0.0601,0.6206,0.2197,1.1904,0.48,1.71c0.2598,0.52,0.71,0.7798,1.3501,0.7798
			c0.6797,0,1.4194-0.3691,2.2202-1.1099c0.7993-0.7397,1.6094-1.71,2.4297-2.9102c0.8193-1.1997,1.6099-2.499,2.3701-3.8999
			c0.7593-1.3994,1.46-2.7393,2.1001-4.02c0.6392-1.2798,1.1597-2.3594,1.5601-3.2397c0.3193,0.04,0.75,0.1304,1.29,0.27
			c0.54,0.1406,1.02,0.3296,1.4399,0.5698c0.4199,0.2397,0.6299,0.5801,0.6299,1.02c0,0.1201-0.1904,0.6206-0.5698,1.5
			c-0.3809,0.8804-0.8306,1.9404-1.3501,3.1802c-0.5205,1.2402-0.9702,2.5-1.3501,3.7798
			c-0.3804,1.2808-0.5698,2.3999-0.5698,3.3599c0,0.6001,0.1196,1.1206,0.3599,1.5601c0.2402,0.4409,0.6992,0.6602,1.3799,0.6602
			c0.8403,0,1.8496-0.3799,3.0303-1.1401c1.1792-0.7593,2.3896-1.8691,3.6299-3.3301c1.2393-1.4595,2.3398-3.1895,3.2998-5.1899
			l0.8403,0.6602c-0.8804,2.1602-2.0103,4.0903-3.3901,5.79c-1.3799,1.7007-2.8604,3.0298-4.4399,3.9897
			C102.1279,44.52,100.5977,45,99.1182,45c-1.1201,0-1.98-0.25-2.5796-0.75c-0.6001-0.5005-1.0107-1.1494-1.23-1.9497
			c-0.2207-0.7998-0.3301-1.6201-0.3301-2.46c0-0.2793,0.0093-0.5796,0.0298-0.8999c0.02-0.3198,0.0498-0.6201,0.0903-0.9004
			c-0.6807,1.1606-1.4307,2.271-2.25,3.3301c-0.8203,1.0605-1.6802,1.9297-2.5801,2.6099C89.3682,44.6597,88.418,45,87.4185,45z"/>
		<path fill="#F499C1" d="M114.5977,45.96c-1.7603,0-3.1499-0.5098-4.1699-1.5298s-1.5298-2.5698-1.5298-4.6499
			c0-1.6802,0.3203-3.7593,0.96-6.2402c0.6392-2.4795,1.4399-5.04,2.3999-7.6797c-0.3208-0.0801-0.6704-0.1504-1.0498-0.21
			c-0.3809-0.0601-0.7305-0.1699-1.0503-0.3301v-1.6201c0.5195,0.0806,0.9902,0.1406,1.4102,0.1802
			c0.4199,0.04,0.8701,0.0806,1.3501,0.1196c0.8398-2.1196,1.749-4.1792,2.73-6.1797c0.9795-2,1.9497-3.7803,2.9097-5.3403
			c0.96-1.5596,1.8799-2.7993,2.7603-3.7197c0.8794-0.9199,1.6396-1.3799,2.2798-1.3799c0.3994,0,0.7598,0.1406,1.0801,0.4199
			c0.3198,0.2803,0.48,0.6807,0.48,1.1997c0,0.7607-0.4106,1.8901-1.23,3.3901c-0.8203,1.5-1.8403,3.2607-3.0601,5.2803
			c-1.2207,2.02-2.3906,4.1904-3.5098,6.5098c0.3198,0,0.6494,0,0.9897,0c0.3394,0,0.6694,0,0.9902,0
			c1.5991,0,3.1201-0.0298,4.5601-0.0898s2.8994-0.1699,4.3799-0.3301v1.6802c-2.2002,0.2397-4.2104,0.4199-6.0298,0.5396
			c-1.8208,0.1201-3.5103,0.1802-5.0703,0.1802c-0.1201,0-0.25,0-0.3901,0c-0.1406,0-0.27,0-0.3896,0
			c-0.8804,2.04-1.6304,4.1201-2.25,6.2402c-0.6206,2.1206-0.9302,4.1802-0.9302,6.1797c0,1.6802,0.2598,2.8706,0.7803,3.5703
			c0.519,0.7002,1.3594,1.0498,2.5195,1.0498c2,0,4.04-0.9199,6.1201-2.7598c2.0796-1.8398,3.8794-4.3203,5.3999-7.4404
			l0.8403,0.6001c-1.0005,2.3203-2.2603,4.4204-3.7803,6.3003c-1.5205,1.8804-3.1704,3.3599-4.9497,4.4399
			C118.3677,45.4204,116.5176,45.96,114.5977,45.96z"/>
		<path fill="#F499C1" d="M129.2368,60c-1,0-1.9102-0.2998-2.73-0.8999c-0.8193-0.6001-1.23-1.5205-1.23-2.7598
			c0-1.2808,0.3604-2.4302,1.0801-3.4502c0.7202-1.02,1.6597-1.9497,2.8203-2.79c1.1597-0.8398,2.4297-1.6201,3.8096-2.3398
			c1.3804-0.7202,2.75-1.4204,4.1104-2.1001c0.48-1.2402,0.999-2.7598,1.5601-4.5601c0.5596-1.7998,1.0591-3.5791,1.5-5.3398
			c-1.2407,1.8403-2.5708,3.4497-3.9902,4.8301c-1.4204,1.3799-2.9907,2.0698-4.71,2.0698c-0.7202,0-1.4702-0.1499-2.25-0.4502
			c-0.7798-0.2998-1.4307-0.8193-1.9502-1.5596c-0.52-0.7397-0.7798-1.71-0.7798-2.9102c0-1.0801,0.1895-2.3599,0.5698-3.8398
			c0.3799-1.4795,0.8599-2.9194,1.4399-4.3203c0.5796-1.3994,1.1797-2.5693,1.8003-3.5098
			c0.6196-0.9395,1.1699-1.4102,1.6499-1.4102c0.1997,0,0.5195,0.0806,0.96,0.2402c0.4399,0.1602,0.8701,0.3804,1.29,0.6597
			c0.4199,0.2803,0.6694,0.5806,0.75,0.8999c-0.3599,0.4805-0.7603,1.1807-1.2002,2.1001
			c-0.4404,0.9209-0.8604,1.9409-1.2598,3.0601c-0.4004,1.1206-0.7305,2.2202-0.9902,3.3003
			c-0.2603,1.0796-0.3896,2.0005-0.3896,2.7598c0,0.6401,0.1294,1.1802,0.3896,1.6201c0.2598,0.4404,0.75,0.6597,1.4702,0.6597
			c0.8398,0,1.7295-0.3599,2.6699-1.0796c0.9395-0.7202,1.8696-1.6504,2.79-2.79c0.9199-1.1401,1.7402-2.3101,2.46-3.5103
			c0.1201-0.3599,0.2192-0.8101,0.3003-1.3501c0.0796-0.5396,0.1997-1.1099,0.3599-1.71c0.1592-0.6392,0.4893-1.269,0.9897-1.8896
			c0.5-0.6196,1.2095-0.9302,2.1304-0.9302c0.2793,0,0.5493,0.0205,0.8101,0.0601c0.2593,0.04,0.5698,0.1001,0.9297,0.1802
			c0,0.5996-0.21,1.7695-0.6299,3.5098s-0.9702,3.7603-1.6499,6.0601c-0.6807,2.3008-1.4609,4.6104-2.3403,6.9302
			c1.7598-0.6797,3.54-1.8301,5.3403-3.4502c1.7998-1.6201,3.2598-3.8496,4.3799-6.6899l0.96,0.7197
			c-0.6001,2.001-1.5103,3.7305-2.73,5.1899c-1.2207,1.4609-2.5903,2.7002-4.1099,3.7202c-1.521,1.02-3.0405,1.8696-4.5601,2.5498
			c-1.0801,2.6001-2.2407,5.0103-3.48,7.23c-1.2402,2.2202-2.5503,3.9902-3.9302,5.3101C132.2671,59.3403,130.7969,60,129.2368,60z
			 M128.7568,57.9004c0.7202,0,1.77-0.8008,3.1504-2.4004c1.3799-1.6001,2.79-4.1201,4.23-7.5596
			c-1.4009,0.7197-2.7603,1.5093-4.0801,2.3696c-1.3203,0.8599-2.4209,1.77-3.3003,2.73c-0.8799,0.96-1.3198,2-1.3198,3.1201
			c0,0.3599,0.0996,0.7397,0.2998,1.1401C127.9365,57.6997,128.2769,57.9004,128.7568,57.9004z"/>
		<path fill="#F499C1" d="M179.2158,48.4204c-2.2793,0-4.4395-0.4004-6.4795-1.2002c-2.04-0.8008-3.6899-2.0103-4.9497-3.6299
			c-1.2603-1.6201-1.8901-3.6499-1.8901-6.0903c0-2.1196,0.4497-3.7798,1.3501-4.98c0.8999-1.1997,2.0293-2.04,3.3896-2.52
			c1.3594-0.48,2.6797-0.7197,3.96-0.7197c-1.2402,1.2808-2.1699,2.6401-2.7896,4.0801c-0.6206,1.4399-0.9302,2.8198-0.9302,4.1396
			c0,1.4009,0.3394,2.7104,1.02,3.9302c0.6797,1.2207,1.7192,2.2095,3.1201,2.9702c1.4004,0.7593,3.1387,1.1396,5.2207,1.1396
			c1.7988,0,3.5488-0.3101,5.25-0.9297c1.6992-0.6206,3.0977-1.5498,4.1992-2.79c1.0996-1.2393,1.6504-2.7798,1.6504-4.6201
			c0-1.6802-0.4609-3.1201-1.3809-4.3198c-0.9199-1.2002-2.0996-2.27-3.5391-3.21c-1.4414-0.9395-2.9707-1.8394-4.5898-2.7002
			c-1.6211-0.8599-3.1504-1.7896-4.5898-2.79c-1.4414-0.9995-2.6211-2.1499-3.541-3.4502c-0.9204-1.2993-1.3799-2.8696-1.3799-4.71
			c0-1.6396,0.4097-3.3896,1.23-5.25c0.8193-1.8599,1.98-3.6094,3.48-5.25c1.5-1.6396,3.3203-2.9697,5.4609-3.9897
			C184.626,0.5103,187.0166,0,189.6572,0c2.5996,0,4.4297,0.5806,5.4883,1.7402c1.0605,1.1606,1.5918,2.6401,1.5918,4.4399
			c0,1.4805-0.252,3.0601-0.75,4.7402c-0.502,1.6797-1.1211,3.27-1.8613,4.77s-1.4492,2.7896-2.1289,3.8696
			c-0.8398-0.1997-1.4512-0.54-1.8301-1.02c-0.3809-0.48-0.5703-1.0996-0.5703-1.8599c0-0.8398,0.1699-1.7896,0.5098-2.8501
			c0.3398-1.0591,0.7402-2.1597,1.1992-3.2998c0.4609-1.1401,0.8711-2.2397,1.2305-3.3003c0.3594-1.0591,0.541-2.0098,0.541-2.8496
			c0-0.7598-0.2207-1.3501-0.6602-1.77c-0.4414-0.4199-1.3203-0.6304-2.6406-0.6304c-1.8809,0-3.6211,0.4307-5.2207,1.29
			c-1.5996,0.8608-2.9902,1.9502-4.1699,3.27c-1.1797,1.3203-2.0996,2.7002-2.7598,4.1401s-0.9902,2.7603-0.9902,3.96
			c0,1.4399,0.4512,2.6802,1.3516,3.7202c0.8984,1.0405,2.0586,1.98,3.4785,2.8198s2.9297,1.6904,4.5312,2.5498
			c1.5996,0.8608,3.1094,1.8105,4.5293,2.8501c1.4199,1.0405,2.5801,2.2705,3.4805,3.6899c0.9004,1.4204,1.3496,3.1709,1.3496,5.25
			c0,2.0806-0.4609,3.9209-1.3809,5.52c-0.9199,1.6006-2.1699,2.9399-3.75,4.02s-3.3301,1.9097-5.25,2.4902
			C183.0557,48.1294,181.1357,48.4204,179.2158,48.4204z"/>
		<path fill="#F499C1" d="M201.9561,45.48c-0.8398,0-1.46-0.6699-1.8594-2.0098c-0.4004-1.3398-0.6006-2.8696-0.6006-4.5898
			c0-1.8799,0.3203-4.1196,0.96-6.7202c0.6396-2.5996,1.4795-5.3491,2.5205-8.25c1.0391-2.8994,2.209-5.7393,3.5098-8.52
			c1.2998-2.7798,2.6396-5.2998,4.0195-7.5601c1.3809-2.2593,2.6904-4.0693,3.9307-5.4297c1.2393-1.3594,2.3193-2.04,3.2402-2.04
			c0.7988,0,1.3994,0.4497,1.7998,1.3496c0.3994,0.9004,0.5996,1.8105,0.5996,2.7305c0,1.1201-0.25,2.4702-0.75,4.0498
			c-0.501,1.5806-1.1904,3.27-2.0703,5.0698c-0.8799,1.8003-1.9102,3.5806-3.0898,5.3403
			c-1.1797,1.7603-2.4502,3.3599-3.8096,4.7998c-1.3604,1.4399-2.7812,2.6006-4.2598,3.48
			c-0.4805,1.2808-0.8809,2.5498-1.2002,3.8101c-0.3213,1.2598-0.5508,2.4702-0.6904,3.6299c-0.1406,1.1606-0.21,2.2603-0.21,3.3003
			c0,0.2803,0.0098,0.5503,0.0303,0.8096c0.0195,0.2607,0.0498,0.4907,0.0898,0.6904c0.2793-0.7202,0.6494-1.6699,1.1104-2.8501
			c0.459-1.1797,1.0195-2.4302,1.6797-3.75c0.6602-1.3203,1.4404-2.5801,2.3398-3.7803c0.9004-1.1997,1.9297-2.1694,3.0898-2.9097
			c1.1602-0.7397,2.4395-1.1104,3.8408-1.1104c1.2793,0,2.2891,0.291,3.0293,0.8701c0.7402,0.5806,1.2598,1.3105,1.5605,2.1899
			c0.2998,0.8804,0.4492,1.7803,0.4492,2.7002c0,1.2402-0.21,2.4297-0.6299,3.5698s-0.8398,2.2202-1.2598,3.2402
			s-0.6299,1.9902-0.6299,2.9097c0,0.7202,0.1592,1.2407,0.4805,1.5601c0.3193,0.3208,0.7197,0.48,1.1992,0.48
			c0.8799,0,1.9102-0.4395,3.0898-1.3198c1.1797-0.8794,2.3408-2.0493,3.4805-3.5103c1.1396-1.4595,2.1299-3.0693,2.9697-4.8296
			l0.9004,0.8999c-0.8809,2.0005-1.9404,3.8203-3.1797,5.46c-1.2412,1.6406-2.5908,2.9502-4.0508,3.9302
			c-1.46,0.9795-3.0098,1.4697-4.6494,1.4697c-1.4805,0-2.6006-0.3901-3.3604-1.1699s-1.1396-1.7495-1.1396-2.9102
			c0-0.8398,0.1494-1.77,0.4502-2.79c0.2998-1.02,0.5889-2.0596,0.8691-3.1196c0.2803-1.0596,0.4209-2.0298,0.4209-2.9102
			c0-0.96-0.2109-1.6396-0.6309-2.04c-0.4199-0.3994-0.9297-0.6001-1.5293-0.6001c-1.001,0-1.9004,0.4004-2.7002,1.2002
			c-0.8008,0.8003-1.5303,1.8203-2.1904,3.0601c-0.6602,1.2402-1.2695,2.5498-1.8301,3.9297
			c-0.5605,1.3804-1.1094,2.7002-1.6494,3.96c-0.54,1.2603-1.1104,2.2803-1.71,3.0601
			C203.3359,45.0903,202.6768,45.48,201.9561,45.48z M207.2363,23.8203c1.04-0.9199,2.0596-2.0298,3.0596-3.3301
			c1-1.2993,1.9297-2.6699,2.79-4.1099s1.6104-2.8398,2.25-4.2002c0.6396-1.3594,1.1494-2.5801,1.5303-3.6602
			c0.3799-1.0796,0.5898-1.9199,0.6299-2.52c0-0.0796-0.0098-0.1396-0.0303-0.1797c-0.0205-0.0396-0.0498-0.0601-0.0898-0.0601
			c-0.2393,0-0.7598,0.5098-1.5596,1.5298c-0.8008,1.02-1.7305,2.3906-2.79,4.1104c-1.0605,1.7202-2.1104,3.6597-3.1504,5.8198
			S207.9561,21.5806,207.2363,23.8203z"/>
		<path fill="#F499C1" d="M232.4951,45.1201c-1.7598,0-2.9795-0.5698-3.6592-1.71s-1.0205-2.4302-1.0205-3.8701
			c0-1.2793,0.2012-2.5801,0.6006-3.8999s0.9385-2.5591,1.6191-3.7197c0.6797-1.1597,1.4404-2.1001,2.2803-2.8203
			c0.8398-0.7197,1.7002-1.0801,2.5801-1.0801c0.2402,0,0.5293,0.0508,0.8701,0.1504c0.3389,0.1001,0.5898,0.2305,0.75,0.3896
			c-0.4404,0.48-0.9102,1.1606-1.4102,2.04c-0.501,0.8804-0.96,1.8301-1.3799,2.8501s-0.7607,2.04-1.0195,3.0601
			c-0.2607,1.02-0.3906,1.9497-0.3906,2.79c0,0.9204,0.1592,1.6406,0.4805,2.1597c0.3193,0.5205,0.8398,0.7803,1.5596,0.7803
			c0.7998,0,1.749-0.4292,2.8506-1.29c1.0996-0.8599,2.1494-1.9097,3.1494-3.1499c-1.2402-1.0801-2.1504-2.3296-2.7295-3.75
			c-0.5811-1.4194-0.8701-3.0303-0.8701-4.8301c0-0.9995,0.2188-2.0596,0.6602-3.1802c0.4395-1.1191,1.1191-2.0596,2.04-2.8198
			c0.9189-0.7593,2.1191-1.1401,3.5996-1.1401c1.6797,0,2.8496,0.4707,3.5098,1.4102c0.6602,0.9404,0.9902,2.0698,0.9902,3.3901
			c0,1.48-0.3896,3.1499-1.1699,5.0098s-1.71,3.6299-2.79,5.3101c0.5596,0.3208,1.1797,0.48,1.8604,0.48
			c0.5996,0,1.3193-0.1396,2.1592-0.4199c0.8408-0.2793,1.6504-0.75,2.4307-1.4102c0.7793-0.6597,1.4102-1.5298,1.8896-2.6099
			l0.96,0.7197c-0.8398,1.9604-1.9902,3.3901-3.4502,4.29c-1.46,0.9004-2.8701,1.3501-4.2295,1.3501
			c-0.5205,0-1.041-0.0498-1.5605-0.1499c-0.5195-0.0996-1-0.2495-1.4395-0.4502c-1.3604,1.6802-2.8906,3.1201-4.5898,4.3203
			C235.9248,44.52,234.2148,45.1201,232.4951,45.1201z M241.7354,36c1-1.3994,1.8301-2.9097,2.4902-4.5298
			s0.9902-3.1099,0.9902-4.4702c0-0.999-0.1504-1.7295-0.4502-2.1899c-0.2998-0.4595-0.7109-0.6899-1.2305-0.6899
			c-0.7998,0-1.5996,0.5503-2.3994,1.6499c-0.8008,1.1006-1.2002,2.4902-1.2002,4.1704c0,0.96,0.1504,2.0303,0.4502,3.21
			C240.6855,34.3306,241.1357,35.2803,241.7354,36z"/>
		<path fill="#F499C1" d="M247.1953,60c-0.3193,0-0.6494-0.1196-0.9893-0.3599c-0.3398-0.2397-0.6299-0.5005-0.8701-0.7798
			c-0.2402-0.2803-0.3604-0.48-0.3604-0.6001c0.8398-2.6006,1.5811-4.8706,2.2197-6.8101c0.6406-1.9404,1.2109-3.8101,1.7109-5.6099
			c0.5-1.8003,0.9697-3.75,1.4092-5.8501c0.4404-2.1001,0.8799-4.5796,1.3203-7.4399c0.4395-2.8594,0.9004-6.3496,1.3799-10.4702
			c0.0801-0.4395,0.1797-0.7593,0.2998-0.96c0.1201-0.1997,0.4805-0.2998,1.0801-0.2998c1.1602,0,2,0.3203,2.5205,0.96
			c0.5195,0.6401,0.7793,1.3403,0.7793,2.1001c0,0.4404-0.0898,1.23-0.2695,2.3696c-0.1797,1.1401-0.4307,2.5107-0.75,4.1104
			c0.7197-1.2397,1.5801-2.4302,2.5801-3.5703c0.999-1.1396,2.1191-2.0894,3.3604-2.8496c1.2393-0.7598,2.5791-1.1401,4.0195-1.1401
			c1.9199,0,3.4893,0.6504,4.71,1.9497c1.2197,1.3003,1.8301,3.0107,1.8301,5.1304c0,1.5601-0.3506,3.21-1.0498,4.9497
			c-0.7002,1.7402-1.6807,3.3809-2.9404,4.9199c-1.2598,1.5405-2.7803,2.8003-4.5596,3.7803
			C262.8457,44.5098,260.8955,45,258.7754,45c-1.1992,0-2.1592-0.1499-2.8799-0.4497c-0.7197-0.3003-1.0801-0.6104-1.0801-0.9302
			c0-0.2397,0.1504-0.3901,0.4502-0.4497c0.2998-0.0601,0.6299-0.0903,0.9902-0.0903c1.7998,0,3.4502-0.3896,4.9502-1.1699
			c1.5-0.7798,2.8193-1.7896,3.96-3.0298c1.1396-1.2397,2.0195-2.5801,2.6396-4.02s0.9297-2.8804,0.9297-4.3203
			c0-1.1997-0.2695-2.25-0.8096-3.1499s-1.3906-1.3501-2.5498-1.3501c-1.041,0-2.0703,0.3301-3.0898,0.9902
			c-1.0205,0.6602-1.9707,1.4805-2.8506,2.46c-0.8799,0.9805-1.6602,2.0098-2.3398,3.0898c-0.6807,1.0801-1.2002,2.04-1.5596,2.8799
			c-0.7607,2.7603-1.4707,5.4707-2.1299,8.1304c-0.6602,2.6597-1.2812,5.1196-1.8604,7.3799
			c-0.5801,2.2593-1.1602,4.1494-1.7402,5.6699c-0.5791,1.5195-1.1494,2.52-1.71,3C247.8164,59.8804,247.5166,60,247.1953,60z"/>
	</g>
</g>
</svg>
