<?xml version="1.0" encoding="utf-8"?>
<!-- Generator: Adobe Illustrator 25.3.0, SVG Export Plug-In . SVG Version: 6.00 Build 0)  -->
<svg version="1.1" id="Layer_1" xmlns="http://www.w3.org/2000/svg" xmlns:xlink="http://www.w3.org/1999/xlink" x="0px" y="0px"
	 viewBox="0 0 566.9291 124.5196" enable-background="new 0 0 566.9291 124.5196" xml:space="preserve">
<g>
	<g>
		<path fill="#F499C1" d="M14.818,100.4882c-4.8994,0-8.5921-0.8096-11.0829-2.429C1.2454,96.4409,0,93.7637,0,90.0285
			c0-0.6637,0.3304-0.9962,0.9962-0.9962c0.7469,0,1.8676,0.2077,3.3622,0.6222c1.4936,0.4144,4.3989,0.6222,8.7157,0.6222
			c7.2221,0,13.9041-0.7874,20.0481-2.365c6.1419-1.5768,11.4558-3.7148,15.9389-6.4134c4.4821-2.6965,7.9688-5.7275,10.4596-9.0897
			c2.4898-3.3622,3.7352-6.827,3.7352-10.397c0-3.3197-0.9769-5.9778-2.9266-7.9699c-1.9506-1.9923-4.5043-3.5063-7.6577-4.5448
			c-3.1555-1.0366-6.5989-1.7429-10.3351-2.1168c-3.7352-0.3729-7.4299-0.5603-11.0818-0.5603
			c-1.5779,0-3.1555,0.0214-4.7324,0.0629c-1.5779,0.0425-3.0715,0.0618-4.4821,0.0618
			c-1.9112,6.4752-3.7362,13.0963-5.4791,19.8615c-1.7429,6.7662-3.57,13.3448-5.4791,19.7359
			c-2.4086,0-4.4414-0.6222-6.1013-1.8676C3.3189,83.429,2.491,81.8939,2.491,80.0667c0-0.8289,0.1652-1.8676,0.4975-3.113
			c0.3304-1.2454,0.7469-2.6145,1.2454-4.1091c0.4975-1.5758,1.3477-4.2337,2.5527-7.9688
			c1.2018-3.7362,2.656-8.1351,4.3584-13.1989c1.7003-5.0628,3.5893-10.398,5.6656-16.0008
			c2.0732-5.6038,4.2337-11.0829,6.4742-16.4374c2.2416-5.3535,4.4404-10.1475,6.6-14.3814
			C26.4799,5.522,23.678,6.3723,21.4801,7.41c-2.2009,1.0387-3.944,1.9516-5.2298,2.739c-1.2882,0.7901-2.2631,1.1823-2.9268,1.1823
			c-0.4165,0-0.9962-0.2675-1.7429-0.8085c-0.7479-0.5392-1.4127-1.14-1.9923-1.8057C9.0065,8.0531,8.7168,7.4714,8.7168,6.9739
			c4.3989-1.825,8.9438-3.4444,13.6345-4.8571C27.0401,0.7062,32.7482,0,39.4727,0c2.9042,0,6.1013,0.2299,9.5882,0.6851
			c3.4859,0.457,6.8056,1.3701,9.9612,2.7401c3.1535,1.3691,5.7476,3.3826,7.7825,6.0386c2.0328,2.6581,3.0511,6.226,3.0511,10.7091
			c0,3.7352-0.8096,6.9536-2.429,9.6501c-1.6183,2.6985-3.7565,4.9806-6.4123,6.8492c-2.6581,1.8676-5.5623,3.3826-8.7158,4.5448
			c-3.1566,1.1632-6.2696,2.0753-9.339,2.739c5.478,0.4985,10.0016,1.4743,13.5718,2.9266
			c3.5689,1.4531,6.3507,3.1344,8.3428,5.0424c1.9923,1.9112,3.4027,3.9035,4.2337,5.9778
			c0.8289,2.0753,1.2454,4.1091,1.2454,6.1013c0,4.8154-1.288,9.1738-3.8599,13.0741c-2.5738,3.9035-5.9363,7.3062-10.0859,10.2104
			c-4.1527,2.9053-8.6975,5.3332-13.6355,7.285c-4.9401,1.9498-9.8578,3.4241-14.7554,4.4202
			C23.1175,99.9897,18.7184,100.4882,14.818,100.4882z M23.0363,42.835c4.6481-0.1652,9.2142-0.6851,13.6974-1.5565
			c4.4821-0.8714,8.5485-2.2202,12.2027-4.0463c3.6522-1.825,6.5775-4.2125,8.7786-7.1603
			c2.198-2.9457,3.2994-6.5786,3.2994-10.8955c0-4.1496-1.058-7.3255-3.1748-9.5253c-2.1168-2.199-4.8569-3.7362-8.2183-4.6076
			C46.259,4.172,42.6677,3.7362,38.8495,3.7362c-0.2482,0-0.457,0-0.6222,0c-0.1673,0-0.374,0.0425-0.6222,0.1247
			c-2.8233,5.6463-5.4174,11.7883-7.7825,18.4287C27.4566,28.9319,25.1936,35.7801,23.0363,42.835z"/>
		<path fill="#F499C1" d="M89.0292,95.1336c-5.2298,0-9.2142-1.4127-11.9535-4.2337c-2.7392-2.821-4.1091-6.3507-4.1091-10.5844
			c0-3.7352,0.9343-7.6577,2.8019-11.7669s4.3777-7.9688,7.5332-11.5805c3.1535-3.6115,6.6192-6.5564,10.397-8.8405
			c3.7767-2.2831,7.5343-3.4251,11.2694-3.4251c2.0743,0,4.0473,0.541,5.9149,1.6194c1.8676,1.0792,2.8019,3.2377,2.8019,6.4752
			c0,3.1555-0.9343,6.1226-2.8019,8.9023c-1.8676,2.7826-4.3179,5.2522-7.3467,7.4095c-3.0308,2.1594-6.3933,3.9226-10.0859,5.2917
			c-3.6947,1.3701-7.368,2.2223-11.0202,2.5527c-0.0841,0.4985-0.1673,0.9962-0.2492,1.4947
			c-0.0841,0.4975-0.1247,1.1632-0.1247,1.9923c0,0.6658,0.1033,1.5565,0.3111,2.6772c0.2067,1.1207,0.6232,2.2416,1.2454,3.3622
			c0.6232,1.1198,1.597,2.0539,2.9266,2.8009c1.3265,0.7479,3.0704,1.1207,5.2298,1.1207c3.4859,0,6.992-0.9962,10.5215-2.9883
			c3.5274-1.9923,6.827-4.6269,9.8993-7.9072c3.0704-3.2782,5.6443-6.911,7.7206-10.8955l2.1168,1.7439
			c-2.2416,4.9806-5.1053,9.3186-8.5921,13.0123c-3.487,3.6947-7.3276,6.5775-11.5176,8.6539
			C97.7249,94.0941,93.4291,95.1336,89.0292,95.1336z M83.5512,73.0934c2.1575-0.4144,4.6066-1.2647,7.3467-2.5527
			c2.739-1.2859,5.3535-2.9053,7.8443-4.8559c2.4908-1.9498,4.5448-4.0878,6.1641-6.4134c1.6183-2.3225,2.4279-4.6888,2.4279-7.0974
			c0-0.9121-0.1673-1.5758-0.4985-1.9923c-0.3325-0.4144-0.914-0.6222-1.7429-0.6222c-1.9923,0-4.0473,0.7276-6.1641,2.1787
			c-2.1168,1.4531-4.1922,3.3207-6.226,5.6038c-2.0349,2.2841-3.8406,4.8154-5.4164,7.5951
			C85.7085,67.7198,84.4631,70.4374,83.5512,73.0934z"/>
		<path fill="#F499C1" d="M123.6461,95.5065c-2.6581,0-4.9613-0.8928-6.911-2.6772c-1.9498-1.7856-2.9266-4.4607-2.9266-8.0307
			c0-2.9883,0.6658-6.1834,1.9923-9.5882c1.3274-3.4027,3.1545-6.7652,5.4791-10.0859c2.3225-3.3197,4.9806-6.3507,7.9688-9.0908
			c2.9883-2.739,6.1641-4.938,9.5264-6.5989c3.3612-1.6598,6.7023-2.4908,10.023-2.4908c3.487,0,6.4134,0.8928,8.7786,2.6772
			c2.3661,1.7864,3.5497,4.1303,3.5497,7.0356c0,2.2416-0.7062,3.8192-2.1168,4.7313c-1.4127,0.915-3.1566,1.2049-5.2298,0.8714
			c0.1652-0.6627,0.3111-1.3882,0.4358-2.1787c0.1247-0.7884,0.1864-1.5565,0.1864-2.3034c0-1.7439-0.374-3.2782-1.1207-4.6076
			c-0.7469-1.3265-2.2001-1.9923-4.3584-1.9923c-2.3246,0-4.6909,0.7905-7.0974,2.3661c-2.4086,1.5779-4.7313,3.654-6.9729,6.226
			c-2.2416,2.5738-4.2337,5.3971-5.9767,8.4675c-1.7439,3.0715-3.113,6.1012-4.1091,9.0897
			c-0.9962,2.9885-1.4947,5.6463-1.4947,7.9688c0,2.8233,1.0366,4.2337,3.113,4.2337c1.9091,0,4.0037-0.9121,6.2878-2.739
			c2.2831-1.825,4.6077-4.1507,6.9739-6.9739c2.3651-2.8212,4.6259-5.7061,6.7863-8.6539c2.1575-2.9457,4.0251-5.5409,5.6028-7.7825
			c0.3314-0.4144,0.6232-0.6222,0.8714-0.6222c0.4144,0.083,1.0781,0.2706,1.9931,0.5603c0.9121,0.2918,1.7429,0.6851,2.4898,1.1825
			c0.7469,0.4985,1.1207,1.1632,1.1207,1.9923c0,0.831-0.374,1.8898-1.1207,3.1759c-0.7469,1.288-1.5779,2.7197-2.4898,4.2955
			c-0.915,1.5779-1.7439,3.1555-2.4908,4.7324c-0.7469,1.5779-1.1207,3.113-1.1207,4.6066c0,1.0802,0.3111,2.1382,0.9343,3.1759
			c0.6222,1.0387,1.6376,1.5565,3.0501,1.5565c2.0743,0,4.9187-1.514,8.5294-4.5458c3.6115-3.0289,7.285-7.9881,11.0202-14.8799
			l1.9923,1.9923c-1.9101,4.4831-4.255,8.4269-7.0345,11.8298c-2.7826,3.4048-5.7092,6.0822-8.7786,8.0317
			c-3.0725,1.95-6.1449,2.9258-9.2143,2.9258c-3.3218,0-5.7711-1.0173-7.3467-3.0501c-1.5787-2.0338-2.4503-4.253-2.6155-6.6618
			c0-0.2492,0.0193-0.5178,0.0629-0.8096c0.0405-0.2897,0.0618-0.5603,0.0618-0.8096c-3.4048,4.2337-6.5178,7.5343-9.339,9.8993
			C129.788,94.324,126.7996,95.5065,123.6461,95.5065z"/>
		<path fill="#F499C1" d="M181.422,93.3897c-2.8233,0-5.1265-1.288-6.9111-3.8599c-1.7864-2.572-2.6772-5.5602-2.6772-8.965
			c0-2.3235,0.3933-5.0628,1.1825-8.2183c0.7884-3.1545,1.7632-6.2463,2.9266-9.2771c1.1613-3.0289,2.3854-5.5409,3.6733-7.5332
			c1.2859-1.9923,2.4279-2.9883,3.4241-2.9883c0.5796,0,1.4318,0.2918,2.5527,0.8714c1.1207,0.5817,2.0957,1.2879,2.9266,2.1168
			c-0.914,1.3284-2.0135,3.4048-3.2993,6.226c-1.2879,2.8233-2.4279,5.8327-3.4241,9.0279
			c-0.9972,3.196-1.4947,6.1226-1.4947,8.7786c0,0.4165,0.0619,1.2668,0.1864,2.5527c0.1247,1.2879,0.4559,2.4705,0.9962,3.5488
			c0.5392,1.0792,1.4735,1.6183,2.8019,1.6183c1.4106,0,2.9457-0.766,4.6077-2.3034c1.6588-1.5351,3.34-3.5488,5.0424-6.0396
			c1.7003-2.4898,3.3411-5.1862,4.9187-8.0936c1.5758-2.9042,3.03-5.6849,4.3584-8.3428c1.3265-2.656,2.4068-4.8965,3.2377-6.7234
			c0.6627,0.083,1.5565,0.2706,2.6772,0.5603c1.1207,0.2918,2.1168,0.684,2.9883,1.1825c0.8714,0.4975,1.3073,1.2039,1.3073,2.1168
			c0,0.2492-0.3951,1.2879-1.1825,3.113c-0.7905,1.8271-1.7238,4.027-2.8019,6.6c-1.0802,2.5738-2.0135,5.1883-2.8019,7.8443
			c-0.7895,2.6581-1.1825,4.9806-1.1825,6.9729c0,1.2454,0.2482,2.3256,0.7469,3.2377c0.4985,0.915,1.4511,1.3701,2.8637,1.3701
			c1.7439,0,3.8385-0.7884,6.2888-2.3661c2.4472-1.5758,4.9592-3.879,7.5332-6.911c2.572-3.0289,4.8558-6.6193,6.8481-10.7707
			l1.7439,1.3701c-1.8271,4.4831-4.172,8.4887-7.0356,12.0161c-2.8637,3.5295-5.9363,6.2878-9.2142,8.2799
			c-3.2809,1.9919-6.4565,2.9881-9.527,2.9881c-2.3246,0-4.1092-0.5188-5.3535-1.5565c-1.2454-1.0387-2.0975-2.3854-2.5527-4.0463
			c-0.458-1.6599-0.6851-3.3622-0.6851-5.1053c0-0.5796,0.0193-1.2029,0.0618-1.8676c0.0415-0.6637,0.1033-1.2869,0.1874-1.8686
			c-1.4127,2.4086-2.9692,4.7131-4.6695,6.911c-1.7024,2.2009-3.487,4.0048-5.3546,5.4164
			C185.4682,92.6835,183.4963,93.3897,181.422,93.3897z"/>
		<path fill="#F499C1" d="M237.8277,95.382c-3.6532,0-6.5371-1.058-8.6539-3.1748s-3.1748-5.3332-3.1748-9.6501
			c0-3.487,0.6647-7.8018,1.9923-12.9505c1.3266-5.1458,2.9883-10.4596,4.9806-15.9379c-0.6658-0.1662-1.3913-0.3121-2.1787-0.4358
			c-0.7905-0.1247-1.516-0.3526-2.1797-0.6851v-3.3622c1.0781,0.1673,2.055,0.2918,2.9266,0.374
			c0.8714,0.083,1.8057,0.1673,2.8019,0.2482c1.7429-4.3989,3.6297-8.6732,5.6656-12.8249
			c2.0328-4.1507,4.0463-7.8454,6.0386-11.0829c1.9923-3.2367,3.9014-5.8095,5.7285-7.7196
			c1.825-1.9091,3.4027-2.8637,4.7313-2.8637c0.8289,0,1.5768,0.2918,2.2416,0.8714c0.6637,0.5817,0.9962,1.4127,0.9962,2.4898
			c0,1.5787-0.8521,3.9226-2.5527,7.0356c-1.7024,3.113-3.8192,6.767-6.3507,10.9583c-2.5334,4.1922-4.9613,8.6964-7.284,13.51
			c0.6637,0,1.3477,0,2.054,0c0.7044,0,1.3892,0,2.055,0c3.3187,0,6.4752-0.0618,9.4637-0.1864
			c2.9885-0.1245,6.0172-0.3526,9.0897-0.6851v3.487c-4.5661,0.4975-8.7379,0.8714-12.5138,1.1199
			c-3.7788,0.2492-7.285,0.374-10.5225,0.374c-0.2493,0-0.5188,0-0.8096,0c-0.2918,0-0.5603,0-0.8085,0
			c-1.8271,4.2337-3.3836,8.5506-4.6695,12.9505c-1.2879,4.4009-1.9305,8.6753-1.9305,12.8249c0,3.487,0.5392,5.9574,1.6194,7.4095
			c1.0771,1.4531,2.8212,2.1787,5.2288,2.1787c4.1507,0,8.3843-1.9091,12.7012-5.7275c4.3158-3.8182,8.051-8.966,11.2066-15.4413
			l1.7439,1.2454c-2.0764,4.8154-4.6909,9.1738-7.8454,13.0752c-3.1555,3.9025-6.5796,6.9729-10.2722,9.2142
			C245.6517,94.2622,241.8121,95.382,237.8277,95.382z"/>
		<path fill="#F499C1" d="M268.2086,124.5196c-2.0753,0-3.9643-0.6222-5.6656-1.8676c-1.7003-1.2454-2.5526-3.1555-2.5526-5.7275
			c0-2.6581,0.7479-5.0435,2.2415-7.1603c1.4947-2.1168,3.4444-4.0463,5.8531-5.7902c2.4067-1.7429,5.0424-3.3622,7.9062-4.8559
			c2.8648-1.4947,5.7072-2.9478,8.5304-4.3584c0.9962-2.5738,2.0732-5.7275,3.2377-9.4637c1.1613-3.7352,2.198-7.4278,3.113-11.0818
			c-2.5749,3.8192-5.3352,7.1592-8.281,10.024c-2.9478,2.8637-6.2067,4.2955-9.7748,4.2955c-1.4946,0-3.0511-0.3111-4.6695-0.9343
			c-1.6183-0.6222-2.9692-1.7003-4.0473-3.2367c-1.0792-1.5351-1.6183-3.5488-1.6183-6.0396c0-2.2416,0.3932-4.8976,1.1825-7.9688
			c0.7884-3.0704,1.7846-6.0587,2.9883-8.966c1.2029-2.9042,2.4483-5.3321,3.7362-7.284c1.2859-1.9498,2.4279-2.9266,3.4241-2.9266
			c0.4145,0,1.0781,0.1673,1.9923,0.4985c0.9129,0.3325,1.8057,0.7895,2.6772,1.3691c0.8714,0.5817,1.3892,1.2049,1.5565,1.8676
			c-0.7469,0.9972-1.5779,2.4503-2.4908,4.3584c-0.914,1.9112-1.7856,4.028-2.6145,6.3507c-0.831,2.3256-1.516,4.6076-2.055,6.8492
			c-0.5402,2.2405-0.8086,4.1517-0.8086,5.7275c0,1.3284,0.2685,2.4493,0.8086,3.3622c0.5392,0.914,1.5565,1.3691,3.0511,1.3691
			c1.7429,0,3.5893-0.7469,5.5409-2.2405c1.9498-1.4946,3.88-3.4251,5.7901-5.7902c1.9091-2.3661,3.6115-4.7942,5.1053-7.285
			c0.2493-0.7469,0.4549-1.6812,0.6232-2.8019c0.1652-1.1198,0.4145-2.3034,0.7469-3.5488c0.3304-1.3265,1.0155-2.6336,2.054-3.9215
			c1.0377-1.2859,2.5101-1.9305,4.4213-1.9305c0.5797,0,1.14,0.0425,1.6812,0.1247c0.5381,0.083,1.1825,0.2077,1.9294,0.374
			c0,1.2444-0.4359,3.6723-1.3073,7.284c-0.8714,3.6117-2.0135,7.8039-3.4241,12.5767c-1.4127,4.7749-3.0319,9.5681-4.8569,14.3824
			c3.6522-1.4106,7.3466-3.7981,11.0829-7.1603c3.7352-3.3622,6.7651-7.9892,9.0897-13.8837l1.9923,1.4936
			c-1.2454,4.1527-3.1344,7.742-5.6656,10.7707c-2.5334,3.0318-5.3757,5.6038-8.5294,7.7206c-3.1566,2.1168-6.31,3.88-9.4637,5.2917
			c-2.2415,5.3961-4.6502,10.398-7.2221,15.0046c-2.5739,4.6076-5.2927,8.281-8.1565,11.0202
			C274.4975,123.1505,271.4464,124.5196,268.2086,124.5196z M267.2125,120.1623c1.4947,0,3.6733-1.6619,6.5381-4.9816
			c2.8637-3.3207,5.7901-8.5506,8.7786-15.6886c-2.9073,1.4936-5.7285,3.1323-8.4675,4.9177
			c-2.7401,1.7846-5.0242,3.6733-6.8492,5.6656c-1.8261,1.9923-2.739,4.1507-2.739,6.4752c0,0.7469,0.2067,1.5351,0.6222,2.3661
			C265.5101,119.7457,266.2165,120.1623,267.2125,120.1623z"/>
		<path fill="#F499C1" d="M371.9314,100.4882c-4.7303,0-9.2134-0.831-13.4471-2.4908c-4.2337-1.6619-7.6577-4.172-10.2723-7.5332
			c-2.6155-3.3622-3.9226-7.5747-3.9226-12.6394c0-4.3989,0.9333-7.8443,2.8019-10.3351c1.8676-2.4898,4.2115-4.2337,7.0345-5.2298
			c2.8212-0.9962,5.5612-1.4936,8.2183-1.4936c-2.5738,2.6581-4.5033,5.4791-5.7893,8.4675c-1.288,2.9883-1.9305,5.852-1.9305,8.591
			c0,2.9073,0.7043,5.625,2.1168,8.1564c1.4106,2.5333,3.5679,4.5854,6.4753,6.1641c2.9063,1.5758,6.5138,2.365,10.8347,2.365
			c3.7331,0,7.3649-0.6436,10.8955-1.9294c3.5264-1.2879,6.4287-3.2163,8.7147-5.7902c2.282-2.572,3.4251-5.769,3.4251-9.5882
			c0-3.487-0.9565-6.4752-2.8658-8.965c-1.9091-2.4908-4.3574-4.711-7.3448-6.6618c-2.9914-1.9498-6.1652-3.8174-9.5253-5.6038
			c-3.3643-1.7846-6.5381-3.714-9.5253-5.7902c-2.9914-2.0743-5.4396-4.4617-7.3487-7.1603
			c-1.9101-2.6965-2.8637-5.9554-2.8637-9.7748c0-3.4027,0.8503-7.0345,2.5526-10.8955c1.7003-3.8599,4.1091-7.4907,7.2221-10.8955
			c3.113-3.4027,6.8907-6.1631,11.3332-8.2799C383.1593,1.059,388.1206,0,393.6007,0c5.395,0,9.1931,1.2049,11.39,3.6115
			c2.2009,2.4086,3.3035,5.4791,3.3035,9.2142c0,3.0725-0.523,6.3507-1.5565,9.8375c-1.0418,3.4859-2.3266,6.7863-3.8628,9.8993
			s-3.0076,5.7893-4.4182,8.0307c-1.7429-0.4144-3.0117-1.1207-3.798-2.1168c-0.7905-0.9962-1.1836-2.282-1.1836-3.8599
			c0-1.7429,0.3526-3.714,1.058-5.9149c0.7052-2.198,1.5362-4.4821,2.4887-6.8482c0.9565-2.3661,1.8078-4.6481,2.5537-6.8492
			c0.7459-2.198,1.1227-4.171,1.1227-5.9139c0-1.5768-0.458-2.8019-1.3701-3.6733c-0.9161-0.8714-2.7401-1.3083-5.4801-1.3083
			c-3.9035,0-7.515,0.8938-10.8347,2.6772c-3.3197,1.7864-6.2057,4.0473-8.6539,6.7863c-2.4483,2.7401-4.3574,5.6038-5.7275,8.5921
			c-1.3701,2.9883-2.055,5.7285-2.055,8.2183c0,2.9883,0.9364,5.5623,2.805,7.7206c1.8645,2.1594,4.2722,4.1091,7.219,5.852
			s6.0801,3.5081,9.4037,5.2917c3.3197,1.7864,6.453,3.7574,9.3998,5.9149c2.9468,2.1594,5.3546,4.712,7.2232,7.6577
			c1.8687,2.9478,2.8008,6.5807,2.8008,10.8955c0,4.3179-0.9565,8.1371-2.8658,11.4558c-1.9091,3.3218-4.5033,6.1012-7.7825,8.3428
			c-3.2792,2.2416-6.911,3.9632-10.8955,5.168C379.9004,99.8842,375.9158,100.4882,371.9314,100.4882z"/>
		<path fill="#F499C1" d="M419.1249,94.3859c-1.7429,0-3.03-1.3903-3.8589-4.171c-0.831-2.7805-1.2465-5.9554-1.2465-9.5253
			c0-3.9014,0.6647-8.5495,1.9923-13.9466c1.3274-5.395,3.0705-11.1011,5.2308-17.1214c2.1565-6.0172,4.5844-11.9109,7.284-17.6818
			c2.6975-5.769,5.4781-10.9988,8.3418-15.6897c2.8658-4.6888,5.5835-8.4451,8.1575-11.2684
			c2.572-2.8212,4.8133-4.2337,6.7245-4.2337c1.6577,0,2.9042,0.9333,3.7352,2.8009c0.8289,1.8686,1.2444,3.7574,1.2444,5.6667
			c0,2.3246-0.5188,5.1265-1.5565,8.4047c-1.0398,3.2803-2.4705,6.7863-4.2965,10.5215c-1.8261,3.7362-3.9643,7.4309-6.4124,11.0829
			c-2.4483,3.6532-5.085,6.9729-7.9062,9.9612c-2.8233,2.9883-5.7719,5.3971-8.8405,7.2221
			c-0.9972,2.6581-1.8282,5.2917-2.4908,7.9072c-0.6668,2.6145-1.1431,5.1265-1.4328,7.5332
			c-0.2918,2.4086-0.4358,4.6909-0.4358,6.8492c0,0.5817,0.0203,1.1421,0.0629,1.6802c0.0405,0.541,0.1034,1.0184,0.1864,1.4328
			c0.5796-1.4947,1.3477-3.4656,2.3044-5.9149c0.9526-2.4483,2.1158-5.0435,3.4859-7.7825
			c1.3701-2.7401,2.9893-5.3545,4.8558-7.8454c1.8687-2.4898,4.0048-4.5022,6.4124-6.0386
			c2.4078-1.5351,5.0627-2.3044,7.9709-2.3044c2.655,0,4.7506,0.6039,6.2868,1.8057c1.5362,1.2049,2.6145,2.7197,3.2386,4.5448
			c0.6222,1.8271,0.9323,3.6947,0.9323,5.6038c0,2.5738-0.4358,5.0424-1.3073,7.4085c-0.8714,2.3661-1.7429,4.6076-2.6145,6.7245
			c-0.8716,2.1168-1.3073,4.1303-1.3073,6.0386c0,1.4947,0.3304,2.5749,0.9972,3.2377c0.6627,0.6658,1.4936,0.9962,2.4887,0.9962
			c1.8261,0,3.9643-0.9121,6.4123-2.739c2.4483-1.825,4.8579-4.253,7.2232-7.285c2.3651-3.0289,4.4203-6.3698,6.1631-10.023
			l1.8686,1.8676c-1.8282,4.1517-4.0269,7.9284-6.5989,11.3313c-2.5759,3.4048-5.3768,6.1226-8.4067,8.1564
			c-3.03,2.0328-6.2463,3.0501-9.649,3.0501c-3.0725,0-5.3971-0.8096-6.9739-2.4279c-1.5768-1.6183-2.3651-3.6308-2.3651-6.0396
			c0-1.7429,0.3101-3.6733,0.9343-5.7902c0.6222-2.1168,1.2221-4.2743,1.8036-6.4742c0.5817-2.199,0.8735-4.2125,0.8735-6.0396
			c0-1.9923-0.4377-3.4027-1.3094-4.2337c-0.8714-0.8289-1.9294-1.2454-3.1738-1.2454c-2.0774,0-3.944,0.831-5.6038,2.4908
			c-1.6619,1.6609-3.1759,3.7777-4.5458,6.3507c-1.3701,2.5738-2.6346,5.2917-3.798,8.1554
			c-1.1632,2.8648-2.3024,5.6038-3.423,8.2183c-1.1207,2.6155-2.3044,4.7324-3.5488,6.3507
			C421.9885,93.5771,420.6206,94.3859,419.1249,94.3859z M430.0831,49.4349c2.1583-1.9091,4.2744-4.2125,6.3497-6.911
			c2.0753-2.6965,4.0048-5.5409,5.7902-8.5294s3.3421-5.8935,4.6695-8.7168c1.3274-2.8212,2.3854-5.3546,3.1759-7.5961
			c0.7884-2.2405,1.224-3.9844,1.3073-5.2298c0-0.1652-0.0203-0.2897-0.0629-0.3729c-0.0425-0.0822-0.1034-0.1247-0.1864-0.1247
			c-0.4966,0-1.5768,1.058-3.2367,3.1748c-1.6619,2.1168-3.5914,4.9613-5.7902,8.5304c-2.2009,3.57-4.3798,7.5951-6.5381,12.078
			S431.5769,44.7868,430.0831,49.4349z"/>
		<path fill="#F499C1" d="M482.5034,93.639c-3.6522,0-6.1834-1.1825-7.594-3.5488c-1.4106-2.3663-2.1179-5.0435-2.1179-8.0317
			c0-2.655,0.4176-5.3546,1.2465-8.0936c0.8289-2.739,1.9477-5.311,3.3601-7.7196c1.4106-2.4068,2.9893-4.3584,4.7324-5.853
			c1.7428-1.4936,3.5284-2.2416,5.3545-2.2416c0.4985,0,1.0984,0.1054,1.8058,0.3121c0.7033,0.2077,1.224,0.4784,1.5565,0.8086
			c-0.914,0.9962-1.889,2.4086-2.9266,4.2337c-1.0398,1.8271-1.9923,3.7981-2.8637,5.9149
			c-0.8714,2.1168-1.5787,4.2337-2.1158,6.3507c-0.541,2.1168-0.8106,4.0463-0.8106,5.7902c0,1.9101,0.3304,3.4048,0.9972,4.4821
			c0.6627,1.0802,1.7428,1.6194,3.2367,1.6194c1.6599,0,3.6297-0.8907,5.9159-2.6772c2.282-1.7846,4.4607-3.9632,6.536-6.5371
			c-2.5738-2.2416-4.4628-4.8347-5.6646-7.7825c-1.206-2.9457-1.8058-6.2889-1.8058-10.024c0-2.0743,0.4541-4.2743,1.3701-6.6
			c0.9121-2.3225,2.3225-4.2743,4.2336-5.852c1.907-1.5758,4.3978-2.3661,7.4703-2.3661c3.4859,0,5.9138,0.9769,7.284,2.9266
			c1.3701,1.9516,2.055,4.2955,2.055,7.0356c0,3.0715-0.8086,6.5371-2.4279,10.397c-1.6194,3.8599-3.5488,7.5332-5.7902,11.0202
			c1.1613,0.6658,2.4483,0.9962,3.8609,0.9962c1.2444,0,2.738-0.2897,4.481-0.8714c1.745-0.5796,3.4252-1.5565,5.0445-2.9266
			c1.6173-1.3691,2.9266-3.1748,3.9216-5.4164l1.9923,1.4936c-1.7429,4.0685-4.1303,7.0356-7.1603,8.9032
			c-3.03,1.8686-5.9564,2.8019-8.7776,2.8019c-1.0802,0-2.1604-0.1034-3.2386-0.3111c-1.0781-0.2067-2.0753-0.5178-2.9874-0.9343
			c-2.8233,3.487-5.9989,6.4752-9.5253,8.966C489.6211,92.3936,486.0723,93.639,482.5034,93.639z M501.68,74.7118
			c2.0753-2.9042,3.798-6.0386,5.168-9.4008c1.3699-3.3622,2.055-6.4541,2.055-9.2771c0-2.0733-0.3121-3.5893-0.9343-4.5448
			c-0.6222-0.9536-1.4754-1.4318-2.5537-1.4318c-1.6599,0-3.3197,1.1421-4.9795,3.4241c-1.6619,2.2841-2.4908,5.168-2.4908,8.6549
			c0,1.9923,0.3122,4.2135,0.9343,6.6618C499.5011,71.2472,500.4354,73.2182,501.68,74.7118z"/>
		<path fill="#F499C1" d="M513.011,124.5196c-0.6627,0-1.3477-0.2482-2.0531-0.7469c-0.7052-0.4975-1.3073-1.0387-1.8058-1.6183
			c-0.4985-0.5817-0.7479-0.9962-0.7479-1.2454c1.7428-5.3971,3.2813-10.1081,4.6066-14.1332
			c1.3294-4.027,2.513-7.9072,3.5507-11.6424c1.0377-3.7362,2.0125-7.7825,2.9246-12.1409
			c0.9139-4.3584,1.826-9.5042,2.7401-15.4402c0.9121-5.9342,1.8687-13.1775,2.8637-21.7291
			c0.1663-0.9121,0.373-1.5758,0.6222-1.9923c0.2493-0.4144,0.9972-0.6222,2.2416-0.6222c2.4078,0,4.1506,0.6647,5.2309,1.9923
			c1.0781,1.3284,1.6172,2.7816,1.6172,4.3584c0,0.914-0.1863,2.5527-0.5593,4.9177c-0.3729,2.3661-0.8939,5.2105-1.5565,8.5304
			c1.4936-2.5728,3.2792-5.0435,5.3546-7.4095c2.0732-2.365,4.3979-4.3362,6.974-5.9139c2.5719-1.5768,5.3525-2.3661,8.3417-2.3661
			c3.9844,0,7.2415,1.3498,9.7748,4.0463c2.5313,2.6986,3.7981,6.2482,3.7981,10.6473c0,3.2377-0.7276,6.6618-2.1787,10.2723
			c-1.4531,3.6115-3.488,7.0165-6.1023,10.2104c-2.6144,3.197-5.77,5.8115-9.4626,7.8454
			c-3.6947,2.0328-7.742,3.0501-12.1419,3.0501c-2.4887,0-4.4811-0.3111-5.9767-0.9333c-1.4936-0.6232-2.2416-1.2668-2.2416-1.9305
			c0-0.4975,0.3121-0.8096,0.9343-0.9333c0.6222-0.1247,1.3073-0.1874,2.055-0.1874c3.7352,0,7.1603-0.8085,10.2733-2.4279
			c3.113-1.6183,5.851-3.714,8.2183-6.2878c2.365-2.5728,4.1911-5.3546,5.478-8.3428c1.2869-2.9883,1.9294-5.9778,1.9294-8.966
			c0-2.4898-0.5593-4.6695-1.6802-6.5371c-1.1208-1.8676-2.8859-2.8019-5.2916-2.8019c-2.1604,0-4.2966,0.6851-6.4124,2.055
			c-2.1179,1.3701-4.0898,3.0725-5.9159,5.1053c-1.8261,2.0349-3.4454,4.171-4.8559,6.4123
			c-1.4127,2.2416-2.4908,4.2337-3.2366,5.9767c-1.5787,5.7285-3.0522,11.3535-4.4202,16.8732
			c-1.3702,5.5197-2.6589,10.6248-3.861,15.3157c-1.2039,4.6888-2.4078,8.6114-3.6115,11.7669
			c-1.2018,3.1535-2.3854,5.2298-3.5488,6.226C514.3,124.2714,513.6779,124.5196,513.011,124.5196z"/>
	</g>
</g>
</svg>
