<?xml version="1.0" encoding="utf-8"?>
<!-- Generator: Adobe Illustrator 25.3.0, SVG Export Plug-In . SVG Version: 6.00 Build 0)  -->
<svg version="1.1" id="Layer_1" xmlns="http://www.w3.org/2000/svg" xmlns:xlink="http://www.w3.org/1999/xlink" x="0px" y="0px"
	 viewBox="0 0 275.4173 106.6257" enable-background="new 0 0 275.4173 106.6257" xml:space="preserve">
<g>
	<g>
		<path fill="#F499C1" d="M7.1401,48.4204c-2.3608,0-4.1401-0.3901-5.3403-1.1704C0.6001,46.4702,0,45.1802,0,43.3804
			c0-0.3198,0.1592-0.48,0.48-0.48c0.3599,0,0.8999,0.1001,1.6201,0.2998C2.8198,43.3999,4.2197,43.5,6.2998,43.5
			c3.48,0,6.6997-0.3794,9.6602-1.1396c2.9595-0.7598,5.52-1.79,7.6802-3.0903c2.1597-1.2993,3.8398-2.7598,5.04-4.3799
			c1.1997-1.6201,1.7998-3.2896,1.7998-5.0098c0-1.5996-0.4707-2.8804-1.4102-3.8403c-0.9399-0.96-2.1704-1.6895-3.6899-2.1899
			c-1.5205-0.4995-3.1797-0.8398-4.98-1.02c-1.7998-0.1797-3.5801-0.27-5.3398-0.27c-0.7603,0-1.5205,0.0103-2.2803,0.0303
			c-0.7603,0.0205-1.48,0.0298-2.1597,0.0298c-0.9209,3.1201-1.8003,6.3105-2.6401,9.5703
			c-0.8398,3.2603-1.7202,6.4302-2.6401,9.5098c-1.1606,0-2.1401-0.2998-2.9399-0.8999c-0.8008-0.6001-1.1997-1.3398-1.1997-2.2202
			c0-0.3994,0.0796-0.8999,0.2397-1.5c0.1592-0.6001,0.3599-1.2598,0.6001-1.98c0.2397-0.7593,0.6494-2.04,1.23-3.8398
			c0.5791-1.8003,1.2798-3.9199,2.1001-6.3599c0.8193-2.4395,1.7295-5.0103,2.73-7.71c0.999-2.7002,2.04-5.3403,3.1196-7.9204
			c1.0801-2.5796,2.1396-4.8896,3.1802-6.9297c-1.6406,0.3203-2.9907,0.73-4.0498,1.23c-1.0605,0.5005-1.9004,0.9404-2.52,1.3198
			C7.2095,5.271,6.7397,5.46,6.4199,5.46c-0.2007,0-0.48-0.1289-0.8398-0.3896c-0.3604-0.2598-0.6807-0.5493-0.96-0.8701
			C4.3398,3.8804,4.2002,3.6001,4.2002,3.3604C6.3198,2.481,8.5098,1.7007,10.77,1.02C13.0293,0.3403,15.7798,0,19.02,0
			c1.3994,0,2.9399,0.1108,4.6201,0.3301c1.6797,0.2202,3.2793,0.6602,4.7998,1.3203c1.5195,0.6597,2.7695,1.6299,3.75,2.9097
			c0.9795,1.2808,1.4702,3,1.4702,5.1602c0,1.7998-0.3901,3.3506-1.1704,4.6499c-0.7798,1.3003-1.8101,2.3999-3.0898,3.3003
			c-1.2808,0.8999-2.6802,1.6299-4.1997,2.1899c-1.521,0.5605-3.021,1-4.5,1.3198c2.6396,0.2402,4.8193,0.7104,6.5396,1.4102
			c1.7197,0.7002,3.0601,1.5103,4.02,2.4297c0.96,0.9209,1.6396,1.8809,2.04,2.8804c0.3994,1,0.6001,1.98,0.6001,2.9399
			c0,2.3203-0.6206,4.4204-1.8599,6.2998c-1.2402,1.8809-2.8604,3.5205-4.8599,4.9199c-2.001,1.3999-4.1909,2.5698-6.5703,3.5103
			c-2.3804,0.9395-4.75,1.6499-7.1099,2.1299C11.1392,48.1802,9.0195,48.4204,7.1401,48.4204z M11.1001,20.6401
			c2.2397-0.0796,4.4399-0.3301,6.6001-0.75c2.1597-0.4199,4.1191-1.0698,5.8799-1.9497c1.7598-0.8794,3.1694-2.0298,4.23-3.4502
			c1.0591-1.4194,1.5898-3.1699,1.5898-5.25c0-1.9995-0.5098-3.5298-1.5298-4.5898c-1.02-1.0596-2.3403-1.8003-3.96-2.2202
			c-1.6201-0.4199-3.3506-0.6299-5.1904-0.6299c-0.1196,0-0.2202,0-0.2998,0c-0.0806,0-0.1802,0.0205-0.2998,0.0601
			c-1.3604,2.7207-2.6104,5.6802-3.75,8.8799C13.23,13.9409,12.1396,17.2407,11.1001,20.6401z"/>
		<path fill="#F499C1" d="M42.8989,45.8403c-2.52,0-4.4399-0.6807-5.7598-2.04s-1.98-3.0601-1.98-5.1001
			c0-1.7998,0.4502-3.6899,1.3501-5.6699s2.1094-3.8398,3.6299-5.5801c1.5195-1.7402,3.1895-3.1592,5.0098-4.2598
			c1.8198-1.1001,3.6304-1.6504,5.4302-1.6504c0.9995,0,1.9502,0.2607,2.8501,0.7803c0.8999,0.52,1.3501,1.5601,1.3501,3.1201
			c0,1.5205-0.4502,2.9502-1.3501,4.2896c-0.8999,1.3408-2.0806,2.5308-3.54,3.5703c-1.4604,1.0405-3.0806,1.8901-4.8599,2.5498
			c-1.7803,0.6602-3.5503,1.0708-5.3101,1.23c-0.0405,0.2402-0.0806,0.48-0.1201,0.7202c-0.0405,0.2397-0.0601,0.5605-0.0601,0.96
			c0,0.3208,0.0498,0.75,0.1499,1.29c0.0996,0.54,0.3003,1.0801,0.6001,1.6201c0.3003,0.5396,0.7695,0.9897,1.4102,1.3496
			c0.6392,0.3604,1.4795,0.54,2.52,0.54c1.6797,0,3.3691-0.48,5.0698-1.4399c1.6997-0.96,3.2896-2.2295,4.77-3.8101
			c1.4795-1.5796,2.7197-3.3301,3.7202-5.25l1.02,0.8403c-1.0801,2.3999-2.46,4.4902-4.1401,6.27
			c-1.6802,1.7803-3.5308,3.1694-5.5498,4.1699C47.0889,45.3394,45.019,45.8403,42.8989,45.8403z M40.2593,35.2202
			c1.0396-0.1997,2.2197-0.6094,3.54-1.23c1.3198-0.6196,2.5796-1.3999,3.7798-2.3398c1.2002-0.9395,2.1899-1.9697,2.9702-3.0903
			c0.7798-1.1191,1.1699-2.2593,1.1699-3.4199c0-0.4395-0.0806-0.7593-0.2402-0.96c-0.1602-0.1997-0.4404-0.2998-0.8398-0.2998
			c-0.96,0-1.9502,0.3506-2.9702,1.0498c-1.02,0.7002-2.02,1.6001-3,2.7002c-0.9805,1.1006-1.8506,2.3203-2.6099,3.6597
			C41.2988,32.6309,40.6987,33.9404,40.2593,35.2202z"/>
		<path fill="#F499C1" d="M59.5791,46.02c-1.2808,0-2.3906-0.4302-3.3301-1.29c-0.9395-0.8604-1.4102-2.1494-1.4102-3.8696
			c0-1.4399,0.3208-2.9795,0.96-4.6201c0.6396-1.6396,1.52-3.2598,2.6401-4.8599c1.1191-1.5996,2.3999-3.0601,3.8398-4.3804
			c1.4399-1.3198,2.9702-2.3794,4.5903-3.1797c1.6196-0.7998,3.2295-1.2002,4.8296-1.2002c1.6802,0,3.0903,0.4302,4.23,1.29
			c1.1401,0.8608,1.7104,1.9902,1.7104,3.3901c0,1.0801-0.3403,1.8403-1.02,2.2798c-0.6807,0.4409-1.521,0.5806-2.52,0.4199
			c0.0796-0.3193,0.1499-0.6689,0.21-1.0498c0.0601-0.3799,0.0898-0.75,0.0898-1.1099c0-0.8403-0.1802-1.5796-0.54-2.2202
			c-0.3599-0.6392-1.0601-0.96-2.1001-0.96c-1.1201,0-2.2603,0.3809-3.4199,1.1401c-1.1606,0.7603-2.2798,1.7607-3.3599,3
			c-1.0801,1.2402-2.04,2.6006-2.8799,4.0801c-0.8403,1.48-1.5,2.9399-1.98,4.3799s-0.7202,2.7207-0.7202,3.8398
			c0,1.3604,0.4995,2.04,1.5,2.04c0.9199,0,1.9292-0.4395,3.0298-1.3198c1.1001-0.8794,2.2202-2,3.3604-3.3604
			c1.1396-1.3594,2.229-2.7495,3.27-4.1699c1.0396-1.4194,1.9395-2.6699,2.6997-3.75c0.1597-0.1997,0.3003-0.2998,0.4199-0.2998
			c0.1997,0.04,0.5195,0.1304,0.9604,0.27c0.4395,0.1406,0.8398,0.3301,1.1997,0.5698c0.3599,0.2402,0.54,0.5605,0.54,0.96
			c0,0.4004-0.1802,0.9106-0.54,1.5303c-0.3599,0.6206-0.7603,1.3105-1.1997,2.0698c-0.4409,0.7603-0.8403,1.5205-1.2002,2.2803
			c-0.3599,0.7603-0.54,1.5-0.54,2.2197c0,0.5205,0.1499,1.0303,0.4502,1.5303c0.2998,0.5005,0.7891,0.75,1.4697,0.75
			c0.9995,0,2.3701-0.7295,4.1099-2.1904c1.7402-1.4595,3.5103-3.8491,5.3101-7.1699l0.96,0.96
			c-0.9204,2.1602-2.0503,4.0605-3.3896,5.7002c-1.3408,1.6406-2.751,2.9307-4.23,3.8701C76.0986,44.5298,74.6182,45,73.1392,45
			c-1.6006,0-2.7808-0.4902-3.54-1.4697c-0.7607-0.98-1.1807-2.0493-1.2603-3.21c0-0.1201,0.0093-0.2495,0.0303-0.3901
			c0.0195-0.1396,0.0298-0.27,0.0298-0.3901c-1.6406,2.04-3.1406,3.6304-4.5,4.77C62.5386,45.4502,61.0986,46.02,59.5791,46.02z"/>
		<path fill="#F499C1" d="M87.4185,45c-1.3604,0-2.4702-0.6206-3.3301-1.8599c-0.8608-1.2393-1.29-2.6792-1.29-4.3198
			c0-1.1196,0.1895-2.4395,0.5698-3.96c0.3799-1.52,0.8496-3.0098,1.4102-4.4702c0.5596-1.4595,1.1494-2.6699,1.77-3.6299
			c0.6196-0.96,1.1699-1.4399,1.6499-1.4399c0.2793,0,0.6899,0.1406,1.23,0.4199c0.54,0.2803,1.0098,0.6206,1.4102,1.02
			c-0.4404,0.6401-0.9702,1.6406-1.5898,3c-0.6206,1.3604-1.1699,2.8105-1.6499,4.3501c-0.4805,1.54-0.7202,2.9502-0.7202,4.23
			c0,0.2007,0.0298,0.6104,0.0898,1.23c0.0601,0.6206,0.2197,1.1904,0.48,1.71c0.2598,0.52,0.71,0.7798,1.3501,0.7798
			c0.6797,0,1.4194-0.3691,2.2202-1.1099c0.7993-0.7397,1.6094-1.71,2.4297-2.9102c0.8193-1.1997,1.6099-2.499,2.3701-3.8999
			c0.7593-1.3994,1.46-2.7393,2.1001-4.02c0.6392-1.2798,1.1597-2.3594,1.5601-3.2397c0.3193,0.04,0.75,0.1304,1.29,0.27
			c0.54,0.1406,1.02,0.3296,1.4399,0.5698c0.4199,0.2397,0.6299,0.5801,0.6299,1.02c0,0.1201-0.1904,0.6206-0.5698,1.5
			c-0.3809,0.8804-0.8306,1.9404-1.3501,3.1802c-0.5205,1.2402-0.9702,2.5-1.3501,3.7798
			c-0.3804,1.2808-0.5698,2.3999-0.5698,3.3599c0,0.6001,0.1196,1.1206,0.3599,1.5601c0.2402,0.4409,0.6992,0.6602,1.3799,0.6602
			c0.8403,0,1.8496-0.3799,3.0303-1.1401c1.1792-0.7593,2.3896-1.8691,3.6299-3.3301c1.2393-1.4595,2.3398-3.1895,3.2998-5.1899
			l0.8403,0.6602c-0.8804,2.1602-2.0103,4.0903-3.3901,5.79c-1.3799,1.7007-2.8604,3.0298-4.4399,3.9897
			C102.1279,44.52,100.5977,45,99.1182,45c-1.1201,0-1.98-0.25-2.5796-0.75c-0.6001-0.5005-1.0107-1.1494-1.23-1.9497
			c-0.2207-0.7998-0.3301-1.6201-0.3301-2.46c0-0.2793,0.0093-0.5796,0.0298-0.8999c0.02-0.3198,0.0498-0.6201,0.0903-0.9004
			c-0.6807,1.1606-1.4307,2.271-2.25,3.3301c-0.8203,1.0605-1.6802,1.9297-2.5801,2.6099C89.3682,44.6597,88.418,45,87.4185,45z"/>
		<path fill="#F499C1" d="M114.5977,45.96c-1.7603,0-3.1499-0.5098-4.1699-1.5298s-1.5298-2.5698-1.5298-4.6499
			c0-1.6802,0.3203-3.7593,0.96-6.2402c0.6392-2.4795,1.4399-5.04,2.3999-7.6797c-0.3208-0.0801-0.6704-0.1504-1.0498-0.21
			c-0.3809-0.0601-0.7305-0.1699-1.0503-0.3301v-1.6201c0.5195,0.0806,0.9902,0.1406,1.4102,0.1802
			c0.4199,0.04,0.8701,0.0806,1.3501,0.1196c0.8398-2.1196,1.749-4.1792,2.73-6.1797c0.9795-2,1.9497-3.7803,2.9097-5.3403
			c0.96-1.5596,1.8799-2.7993,2.7603-3.7197c0.8794-0.9199,1.6396-1.3799,2.2798-1.3799c0.3994,0,0.7598,0.1406,1.0801,0.4199
			c0.3198,0.2803,0.48,0.6807,0.48,1.1997c0,0.7607-0.4106,1.8901-1.23,3.3901c-0.8203,1.5-1.8403,3.2607-3.0601,5.2803
			c-1.2207,2.02-2.3906,4.1904-3.5098,6.5098c0.3198,0,0.6494,0,0.9897,0c0.3394,0,0.6694,0,0.9902,0
			c1.5991,0,3.1201-0.0298,4.5601-0.0898s2.8994-0.1699,4.3799-0.3301v1.6802c-2.2002,0.2397-4.2104,0.4199-6.0298,0.5396
			c-1.8208,0.1201-3.5103,0.1802-5.0703,0.1802c-0.1201,0-0.25,0-0.3901,0c-0.1406,0-0.27,0-0.3896,0
			c-0.8804,2.04-1.6304,4.1201-2.25,6.2402c-0.6206,2.1206-0.9302,4.1802-0.9302,6.1797c0,1.6802,0.2598,2.8706,0.7803,3.5703
			c0.519,0.7002,1.3594,1.0498,2.5195,1.0498c2,0,4.04-0.9199,6.1201-2.7598c2.0796-1.8398,3.8794-4.3203,5.3999-7.4404
			l0.8403,0.6001c-1.0005,2.3203-2.2603,4.4204-3.7803,6.3003c-1.5205,1.8804-3.1704,3.3599-4.9497,4.4399
			C118.3677,45.4204,116.5176,45.96,114.5977,45.96z"/>
		<path fill="#F499C1" d="M129.2368,60c-1,0-1.9102-0.2998-2.73-0.8999c-0.8193-0.6001-1.23-1.5205-1.23-2.7598
			c0-1.2808,0.3604-2.4302,1.0801-3.4502c0.7202-1.02,1.6597-1.9497,2.8203-2.79c1.1597-0.8398,2.4297-1.6201,3.8096-2.3398
			c1.3804-0.7202,2.75-1.4204,4.1104-2.1001c0.48-1.2402,0.999-2.7598,1.5601-4.5601c0.5596-1.7998,1.0591-3.5791,1.5-5.3398
			c-1.2407,1.8403-2.5708,3.4497-3.9902,4.8301c-1.4204,1.3799-2.9907,2.0698-4.71,2.0698c-0.7202,0-1.4702-0.1499-2.25-0.4502
			c-0.7798-0.2998-1.4307-0.8193-1.9502-1.5596c-0.52-0.7397-0.7798-1.71-0.7798-2.9102c0-1.0801,0.1895-2.3599,0.5698-3.8398
			c0.3799-1.4795,0.8599-2.9194,1.4399-4.3203c0.5796-1.3994,1.1797-2.5693,1.8003-3.5098
			c0.6196-0.9395,1.1699-1.4102,1.6499-1.4102c0.1997,0,0.5195,0.0806,0.96,0.2402c0.4399,0.1602,0.8701,0.3804,1.29,0.6597
			c0.4199,0.2803,0.6694,0.5806,0.75,0.8999c-0.3599,0.4805-0.7603,1.1807-1.2002,2.1001
			c-0.4404,0.9209-0.8604,1.9409-1.2598,3.0601c-0.4004,1.1206-0.7305,2.2202-0.9902,3.3003
			c-0.2603,1.0796-0.3896,2.0005-0.3896,2.7598c0,0.6401,0.1294,1.1802,0.3896,1.6201c0.2598,0.4404,0.75,0.6597,1.4702,0.6597
			c0.8398,0,1.7295-0.3599,2.6699-1.0796c0.9395-0.7202,1.8696-1.6504,2.79-2.79c0.9199-1.1401,1.7402-2.3101,2.46-3.5103
			c0.1201-0.3599,0.2192-0.8101,0.3003-1.3501c0.0796-0.5396,0.1997-1.1099,0.3599-1.71c0.1592-0.6392,0.4893-1.269,0.9897-1.8896
			c0.5-0.6196,1.2095-0.9302,2.1304-0.9302c0.2793,0,0.5493,0.0205,0.8101,0.0601c0.2593,0.04,0.5698,0.1001,0.9297,0.1802
			c0,0.5996-0.21,1.7695-0.6299,3.5098s-0.9702,3.7603-1.6499,6.0601c-0.6807,2.3008-1.4609,4.6104-2.3403,6.9302
			c1.7598-0.6797,3.54-1.8301,5.3403-3.4502c1.7998-1.6201,3.2598-3.8496,4.3799-6.6899l0.96,0.7197
			c-0.6001,2.001-1.5103,3.7305-2.73,5.1899c-1.2207,1.4609-2.5903,2.7002-4.1099,3.7202c-1.521,1.02-3.0405,1.8696-4.5601,2.5498
			c-1.0801,2.6001-2.2407,5.0103-3.48,7.23c-1.2402,2.2202-2.5503,3.9902-3.9302,5.3101C132.2671,59.3403,130.7969,60,129.2368,60z
			 M128.7568,57.9004c0.7202,0,1.77-0.8008,3.1504-2.4004c1.3799-1.6001,2.79-4.1201,4.23-7.5596
			c-1.4009,0.7197-2.7603,1.5093-4.0801,2.3696c-1.3203,0.8599-2.4209,1.77-3.3003,2.73c-0.8799,0.96-1.3198,2-1.3198,3.1201
			c0,0.3599,0.0996,0.7397,0.2998,1.1401C127.9365,57.6997,128.2769,57.9004,128.7568,57.9004z"/>
		<path fill="#F499C1" d="M179.2153,48.4204c-2.2793,0-4.439-0.4004-6.479-1.2002c-2.04-0.8008-3.6899-2.0103-4.9497-3.6299
			c-1.2603-1.6201-1.8901-3.6499-1.8901-6.0903c0-2.1196,0.4497-3.7798,1.3501-4.98c0.8999-1.1997,2.0293-2.04,3.3896-2.52
			c1.3594-0.48,2.6797-0.7197,3.96-0.7197c-1.2402,1.2808-2.1699,2.6401-2.7896,4.0801c-0.6206,1.4399-0.9302,2.8198-0.9302,4.1396
			c0,1.4009,0.3394,2.7104,1.02,3.9302c0.6797,1.2207,1.7192,2.2095,3.1196,2.9702c1.4004,0.7593,3.1387,1.1396,5.2207,1.1396
			c1.7988,0,3.5488-0.3101,5.25-0.9297c1.6992-0.6206,3.0977-1.5498,4.1992-2.79c1.0996-1.2393,1.6504-2.7798,1.6504-4.6201
			c0-1.6802-0.4609-3.1201-1.3809-4.3198c-0.9199-1.2002-2.0996-2.27-3.5391-3.21c-1.4414-0.9395-2.9707-1.8394-4.5898-2.7002
			c-1.6211-0.8599-3.1504-1.7896-4.5898-2.79c-1.4414-0.9995-2.6206-2.1499-3.5405-3.4502c-0.9204-1.2993-1.3799-2.8696-1.3799-4.71
			c0-1.6396,0.4097-3.3896,1.23-5.25c0.8193-1.8599,1.9795-3.6094,3.4795-5.25c1.5-1.6396,3.3203-2.9697,5.4609-3.9897
			C184.6255,0.5103,187.0161,0,189.6567,0c2.5996,0,4.4297,0.5806,5.4883,1.7402c1.0605,1.1606,1.5918,2.6401,1.5918,4.4399
			c0,1.4805-0.252,3.0601-0.75,4.7402c-0.502,1.6797-1.1211,3.27-1.8613,4.77s-1.4492,2.7896-2.1289,3.8696
			c-0.8398-0.1997-1.4512-0.54-1.8301-1.02c-0.3809-0.48-0.5703-1.0996-0.5703-1.8599c0-0.8398,0.1699-1.7896,0.5098-2.8501
			c0.3398-1.0591,0.7402-2.1597,1.1992-3.2998c0.4609-1.1401,0.8711-2.2397,1.2305-3.3003c0.3594-1.0591,0.541-2.0098,0.541-2.8496
			c0-0.7598-0.2207-1.3501-0.6602-1.77c-0.4414-0.4199-1.3203-0.6304-2.6406-0.6304c-1.8809,0-3.6211,0.4307-5.2207,1.29
			c-1.5996,0.8608-2.9902,1.9502-4.1699,3.27c-1.1797,1.3203-2.0996,2.7002-2.7598,4.1401s-0.9902,2.7603-0.9902,3.96
			c0,1.4399,0.4512,2.6802,1.3516,3.7202c0.8984,1.0405,2.0586,1.98,3.4785,2.8198s2.9297,1.6904,4.5312,2.5498
			c1.5996,0.8608,3.1094,1.8105,4.5293,2.8501c1.4199,1.0405,2.5801,2.2705,3.4805,3.6899c0.9004,1.4204,1.3496,3.1709,1.3496,5.25
			c0,2.0806-0.4609,3.9209-1.3809,5.52c-0.9199,1.6006-2.1699,2.9399-3.75,4.02s-3.3301,1.9097-5.25,2.4902
			C183.0552,48.1294,181.1353,48.4204,179.2153,48.4204z"/>
		<path fill="#F499C1" d="M201.9556,45.48c-0.8398,0-1.46-0.6699-1.8594-2.0098c-0.4004-1.3398-0.6006-2.8696-0.6006-4.5898
			c0-1.8799,0.3203-4.1196,0.96-6.7202c0.6396-2.5996,1.4795-5.3491,2.5205-8.25c1.0391-2.8994,2.209-5.7393,3.5098-8.52
			c1.2998-2.7798,2.6396-5.2998,4.0195-7.5601c1.3809-2.2593,2.6904-4.0693,3.9307-5.4297c1.2393-1.3594,2.3193-2.04,3.2402-2.04
			c0.7988,0,1.3994,0.4497,1.7998,1.3496c0.3994,0.9004,0.5996,1.8105,0.5996,2.7305c0,1.1201-0.25,2.4702-0.75,4.0498
			c-0.501,1.5806-1.1904,3.27-2.0703,5.0698c-0.8799,1.8003-1.9102,3.5806-3.0898,5.3403
			c-1.1797,1.7603-2.4502,3.3599-3.8096,4.7998c-1.3604,1.4399-2.7812,2.6006-4.2598,3.48
			c-0.4805,1.2808-0.8809,2.5498-1.2002,3.8101c-0.3213,1.2598-0.5508,2.4702-0.6904,3.6299c-0.1406,1.1606-0.21,2.2603-0.21,3.3003
			c0,0.2803,0.0098,0.5503,0.0303,0.8096c0.0195,0.2607,0.0498,0.4907,0.0898,0.6904c0.2793-0.7202,0.6494-1.6699,1.1104-2.8501
			c0.459-1.1797,1.0195-2.4302,1.6797-3.75c0.6602-1.3203,1.4404-2.5801,2.3398-3.7803c0.9004-1.1997,1.9297-2.1694,3.0898-2.9097
			c1.1602-0.7397,2.4395-1.1104,3.8408-1.1104c1.2793,0,2.2891,0.291,3.0293,0.8701c0.7402,0.5806,1.2598,1.3105,1.5605,2.1899
			c0.2998,0.8804,0.4492,1.7803,0.4492,2.7002c0,1.2402-0.21,2.4297-0.6299,3.5698s-0.8398,2.2202-1.2598,3.2402
			s-0.6299,1.9902-0.6299,2.9097c0,0.7202,0.1592,1.2407,0.4805,1.5601c0.3193,0.3208,0.7197,0.48,1.1992,0.48
			c0.8799,0,1.9102-0.4395,3.0898-1.3198c1.1797-0.8794,2.3408-2.0493,3.4805-3.5103c1.1396-1.4595,2.1299-3.0693,2.9697-4.8296
			l0.9004,0.8999c-0.8809,2.0005-1.9404,3.8203-3.1797,5.46c-1.2412,1.6406-2.5908,2.9502-4.0508,3.9302
			c-1.46,0.9795-3.0098,1.4697-4.6494,1.4697c-1.4805,0-2.6006-0.3901-3.3604-1.1699s-1.1396-1.7495-1.1396-2.9102
			c0-0.8398,0.1494-1.77,0.4502-2.79c0.2998-1.02,0.5889-2.0596,0.8691-3.1196c0.2803-1.0596,0.4209-2.0298,0.4209-2.9102
			c0-0.96-0.2109-1.6396-0.6309-2.04c-0.4199-0.3994-0.9297-0.6001-1.5293-0.6001c-1.001,0-1.9004,0.4004-2.7002,1.2002
			c-0.8008,0.8003-1.5303,1.8203-2.1904,3.0601c-0.6602,1.2402-1.2695,2.5498-1.8301,3.9297
			c-0.5605,1.3804-1.1094,2.7002-1.6494,3.96c-0.54,1.2603-1.1104,2.2803-1.71,3.0601
			C203.3354,45.0903,202.6763,45.48,201.9556,45.48z M207.2358,23.8203c1.04-0.9199,2.0596-2.0298,3.0596-3.3301
			c1-1.2993,1.9297-2.6699,2.79-4.1099s1.6104-2.8398,2.25-4.2002c0.6396-1.3594,1.1494-2.5801,1.5303-3.6602
			c0.3799-1.0796,0.5898-1.9199,0.6299-2.52c0-0.0796-0.0098-0.1396-0.0303-0.1797c-0.0205-0.0396-0.0498-0.0601-0.0898-0.0601
			c-0.2393,0-0.7598,0.5098-1.5596,1.5298c-0.8008,1.02-1.7305,2.3906-2.79,4.1104c-1.0605,1.7202-2.1104,3.6597-3.1504,5.8198
			S207.9556,21.5806,207.2358,23.8203z"/>
		<path fill="#F499C1" d="M232.4946,45.1201c-1.7598,0-2.9795-0.5698-3.6592-1.71s-1.0205-2.4302-1.0205-3.8701
			c0-1.2793,0.2012-2.5801,0.6006-3.8999s0.9385-2.5591,1.6191-3.7197c0.6797-1.1597,1.4404-2.1001,2.2803-2.8203
			c0.8398-0.7197,1.7002-1.0801,2.5801-1.0801c0.2402,0,0.5293,0.0508,0.8701,0.1504c0.3389,0.1001,0.5898,0.2305,0.75,0.3896
			c-0.4404,0.48-0.9102,1.1606-1.4102,2.04c-0.501,0.8804-0.96,1.8301-1.3799,2.8501s-0.7607,2.04-1.0195,3.0601
			c-0.2607,1.02-0.3906,1.9497-0.3906,2.79c0,0.9204,0.1592,1.6406,0.4805,2.1597c0.3193,0.5205,0.8398,0.7803,1.5596,0.7803
			c0.7998,0,1.749-0.4292,2.8506-1.29c1.0996-0.8599,2.1494-1.9097,3.1494-3.1499c-1.2402-1.0801-2.1504-2.3296-2.7295-3.75
			c-0.5811-1.4194-0.8701-3.0303-0.8701-4.8301c0-0.9995,0.2188-2.0596,0.6602-3.1802c0.4395-1.1191,1.1191-2.0596,2.04-2.8198
			c0.9189-0.7593,2.1191-1.1401,3.5996-1.1401c1.6797,0,2.8496,0.4707,3.5098,1.4102c0.6602,0.9404,0.9902,2.0698,0.9902,3.3901
			c0,1.48-0.3896,3.1499-1.1699,5.0098s-1.71,3.6299-2.79,5.3101c0.5596,0.3208,1.1797,0.48,1.8604,0.48
			c0.5996,0,1.3193-0.1396,2.1592-0.4199c0.8408-0.2793,1.6504-0.75,2.4307-1.4102c0.7793-0.6597,1.4102-1.5298,1.8896-2.6099
			l0.96,0.7197c-0.8398,1.9604-1.9902,3.3901-3.4502,4.29c-1.46,0.9004-2.8701,1.3501-4.2295,1.3501
			c-0.5205,0-1.041-0.0498-1.5605-0.1499c-0.5195-0.0996-1-0.2495-1.4395-0.4502c-1.3604,1.6802-2.8906,3.1201-4.5898,4.3203
			C235.9243,44.52,234.2144,45.1201,232.4946,45.1201z M241.7349,36c1-1.3994,1.8301-2.9097,2.4902-4.5298
			s0.9902-3.1099,0.9902-4.4702c0-0.999-0.1504-1.7295-0.4502-2.1899c-0.2998-0.4595-0.7109-0.6899-1.2305-0.6899
			c-0.7998,0-1.5996,0.5503-2.3994,1.6499c-0.8008,1.1006-1.2002,2.4902-1.2002,4.1704c0,0.96,0.1504,2.0303,0.4502,3.21
			C240.6851,34.3306,241.1353,35.2803,241.7349,36z"/>
		<path fill="#F499C1" d="M247.1948,60c-0.3193,0-0.6494-0.1196-0.9893-0.3599c-0.3398-0.2397-0.6299-0.5005-0.8701-0.7798
			c-0.2402-0.2803-0.3604-0.48-0.3604-0.6001c0.8398-2.6006,1.5811-4.8706,2.2197-6.8101c0.6406-1.9404,1.2109-3.8101,1.7109-5.6099
			c0.5-1.8003,0.9697-3.75,1.4092-5.8501c0.4404-2.1001,0.8799-4.5796,1.3203-7.4399c0.4395-2.8594,0.9004-6.3496,1.3799-10.4702
			c0.0801-0.4395,0.1797-0.7593,0.2998-0.96c0.1201-0.1997,0.4805-0.2998,1.0801-0.2998c1.1602,0,2,0.3203,2.5205,0.96
			c0.5195,0.6401,0.7793,1.3403,0.7793,2.1001c0,0.4404-0.0898,1.23-0.2695,2.3696c-0.1797,1.1401-0.4307,2.5107-0.75,4.1104
			c0.7197-1.2397,1.5801-2.4302,2.5801-3.5703c0.999-1.1396,2.1191-2.0894,3.3604-2.8496c1.2393-0.7598,2.5791-1.1401,4.0195-1.1401
			c1.9199,0,3.4893,0.6504,4.71,1.9497c1.2197,1.3003,1.8301,3.0107,1.8301,5.1304c0,1.5601-0.3506,3.21-1.0498,4.9497
			c-0.7002,1.7402-1.6807,3.3809-2.9404,4.9199c-1.2598,1.5405-2.7803,2.8003-4.5596,3.7803
			C262.8452,44.5098,260.895,45,258.7749,45c-1.1992,0-2.1592-0.1499-2.8799-0.4497c-0.7197-0.3003-1.0801-0.6104-1.0801-0.9302
			c0-0.2397,0.1504-0.3901,0.4502-0.4497c0.2998-0.0601,0.6299-0.0903,0.9902-0.0903c1.7998,0,3.4502-0.3896,4.9502-1.1699
			c1.5-0.7798,2.8193-1.7896,3.96-3.0298c1.1396-1.2397,2.0195-2.5801,2.6396-4.02s0.9297-2.8804,0.9297-4.3203
			c0-1.1997-0.2695-2.25-0.8096-3.1499s-1.3906-1.3501-2.5498-1.3501c-1.041,0-2.0703,0.3301-3.0898,0.9902
			c-1.0205,0.6602-1.9707,1.4805-2.8506,2.46c-0.8799,0.9805-1.6602,2.0098-2.3398,3.0898c-0.6807,1.0801-1.2002,2.04-1.5596,2.8799
			c-0.7607,2.7603-1.4707,5.4707-2.1299,8.1304c-0.6602,2.6597-1.2812,5.1196-1.8604,7.3799
			c-0.5801,2.2593-1.1602,4.1494-1.7402,5.6699c-0.5791,1.5195-1.1494,2.52-1.71,3C247.8159,59.8804,247.5161,60,247.1948,60z"/>
	</g>
</g>
<g>
	
		<line fill="none" stroke="#000000" stroke-width="2" stroke-miterlimit="10" x1="2.2416" y1="88.0973" x2="275.4173" y2="88.0973"/>
	<rect x="19.3401" y="69.5688" fill="#FFFFFF" width="238.9787" height="37.0569"/>
	<g>
		<g>
			<g>
				<g>
					<path fill="#F499C1" d="M37.0566,90.6523c-0.6602,0-1.1055-0.2905-1.335-0.8701c-0.2305-0.5801-0.3555-1.2798-0.375-2.1001
						c0-0.2798,0.0098-0.6396,0.0298-1.0801c0.0195-0.4395,0.0498-0.8296,0.0898-1.1699c-0.4199,0.8003-0.8848,1.5854-1.395,2.355
						c-0.5098,0.77-1.0449,1.4004-1.605,1.8901s-1.1499,0.7349-1.77,0.7349c-0.6597,0-1.21-0.3052-1.6499-0.915
						s-0.6597-1.335-0.6597-2.1748c0-0.5801,0.0942-1.2495,0.2847-2.0103c0.1899-0.7598,0.4302-1.5044,0.7202-2.2349
						c0.2896-0.73,0.5894-1.335,0.8999-1.8149c0.3101-0.48,0.5747-0.7202,0.7949-0.7202c0.1396,0,0.3799,0.0752,0.7202,0.2251
						c0.3398,0.1499,0.5298,0.3354,0.5698,0.5552c-0.2202,0.3403-0.4854,0.8452-0.7949,1.5151
						c-0.3105,0.6699-0.5806,1.3901-0.8101,2.1597c-0.23,0.7705-0.3452,1.4751-0.3452,2.1152c0,0.1201,0.0151,0.335,0.0454,0.645
						c0.0298,0.3101,0.1147,0.585,0.2549,0.8247c0.1396,0.2402,0.3599,0.3604,0.6602,0.3604c0.4395,0,0.9097-0.2749,1.4097-0.8252
						c0.5-0.5498,1.0049-1.2451,1.5151-2.085c0.5098-0.8398,0.9849-1.6997,1.4248-2.5801c0.1802-0.8398,0.3301-1.4497,0.4502-1.8301
						c0.1201-0.3794,0.2397-0.6196,0.3599-0.7197s0.27-0.1499,0.4502-0.1499c0.3398,0,0.6099,0.0649,0.8101,0.1948
						c0.1997,0.1304,0.2998,0.3252,0.2998,0.585c0,0.0405-0.0151,0.1201-0.0449,0.2397c-0.0298,0.1201-0.0552,0.2002-0.0752,0.2402
						c-0.1401,0.4399-0.2651,0.98-0.375,1.6201s-0.1948,1.3101-0.2549,2.0098c-0.0601,0.7002-0.0898,1.3906-0.0898,2.0703
						c0,0.48,0.0347,0.855,0.105,1.125c0.0698,0.27,0.2251,0.4048,0.4648,0.4048c0.2798,0,0.6099-0.1748,0.9902-0.5249
						c0.3794-0.3496,0.7798-0.8149,1.1997-1.395s0.8296-1.2148,1.23-1.9053c0.3999-0.6899,0.7598-1.3745,1.0801-2.0547
						c0-1.0396,0.0752-1.8301,0.2251-2.3701s0.3452-0.915,0.585-1.125c0.2402-0.21,0.4995-0.3149,0.7798-0.3149
						c0.46,0,0.7803,0.1499,0.9604,0.4502c0.1797,0.2998,0.27,0.5601,0.27,0.7798c0,0.1802-0.0405,0.3555-0.1201,0.5249
						c-0.0801,0.1704-0.1606,0.3252-0.2402,0.4648c-0.1401,0.3003-0.2803,0.6704-0.4199,1.1104
						c-0.1401,0.4399-0.21,1.0103-0.21,1.71c0,0.3403,0.0298,0.6851,0.0898,1.0352s0.1899,0.6401,0.3901,0.8696
						c0.1997,0.2305,0.4897,0.3452,0.8701,0.3452c0.3794,0,0.7544-0.165,1.125-0.4951c0.3696-0.3301,0.7651-0.9248,1.1851-1.7852
						l0.5098,0.4204c-0.4399,1.02-0.9351,1.7148-1.4849,2.085c-0.5503,0.3701-1.0752,0.5547-1.5752,0.5547
						c-0.6401,0-1.1851-0.2295-1.6348-0.6899c-0.4502-0.46-0.7949-1.0596-1.0352-1.7998c-0.5,0.8804-1.0601,1.7451-1.6802,2.5947
						c-0.6201,0.8506-1.2598,1.5503-1.9199,2.1001C38.3467,90.377,37.6963,90.6523,37.0566,90.6523z"/>
					<path fill="#F499C1" d="M48.7861,90.9224c-0.6401,0-1.1953-0.2153-1.665-0.645c-0.4697-0.4307-0.7046-1.0752-0.7046-1.9351
						c0-0.7202,0.1602-1.4897,0.48-2.3101c0.3193-0.8198,0.7598-1.6299,1.3198-2.4302c0.5596-0.7993,1.2002-1.5298,1.9199-2.1899
						c0.7202-0.6597,1.4849-1.1895,2.2949-1.5898c0.8101-0.3999,1.6147-0.6001,2.415-0.6001c0.8403,0,1.5449,0.2153,2.1152,0.645
						c0.5698,0.4302,0.855,0.9951,0.855,1.6948c0,0.54-0.1704,0.9204-0.5103,1.1401c-0.3403,0.2202-0.7603,0.29-1.2598,0.21
						c0.0396-0.1597,0.0747-0.3345,0.105-0.5249c0.0298-0.1899,0.0449-0.375,0.0449-0.5552c0-0.4199-0.0898-0.7896-0.27-1.1099
						c-0.1802-0.3198-0.5303-0.48-1.0498-0.48c-0.5605,0-1.1304,0.1904-1.71,0.5698c-0.5806,0.3804-1.1401,0.8804-1.6802,1.5
						c-0.54,0.6201-1.02,1.3003-1.4399,2.04c-0.4199,0.7402-0.75,1.4702-0.9902,2.1899c-0.2397,0.7202-0.3599,1.3604-0.3599,1.9204
						c0,0.6802,0.25,1.02,0.75,1.02c0.46,0,0.9648-0.2202,1.5151-0.6602c0.5498-0.4399,1.1099-1,1.6797-1.6802
						c0.5703-0.6797,1.1147-1.3745,1.6353-2.085c0.5195-0.7095,0.9697-1.335,1.3501-1.875c0.0796-0.0996,0.1499-0.1499,0.21-0.1499
						c0.0996,0.02,0.2598,0.0649,0.48,0.1348c0.2197,0.0703,0.4199,0.165,0.6001,0.2852c0.1797,0.1201,0.27,0.2803,0.27,0.48
						c0,0.2002-0.0903,0.4551-0.27,0.7651c-0.1802,0.3101-0.3804,0.6553-0.6001,1.0352c-0.2202,0.3799-0.4199,0.7603-0.6001,1.1396
						c-0.1802,0.3804-0.27,0.75-0.27,1.1104c0,0.2598,0.0752,0.5151,0.2251,0.7646c0.1499,0.2505,0.3945,0.375,0.7349,0.375
						c0.4995,0,1.1851-0.3647,2.0552-1.0947c0.8696-0.73,1.7549-1.9248,2.6548-3.585l0.48,0.48
						c-0.4604,1.0801-1.0249,2.0298-1.6948,2.8496c-0.6704,0.8203-1.3755,1.4653-2.1152,1.9351
						c-0.7402,0.4697-1.48,0.7051-2.2197,0.7051c-0.8003,0-1.3906-0.2451-1.77-0.7349c-0.3804-0.4897-0.5903-1.0249-0.6299-1.605
						c0-0.0601,0.0044-0.1245,0.0146-0.1948c0.0098-0.0703,0.0151-0.1353,0.0151-0.1953c-0.8203,1.02-1.5703,1.8149-2.25,2.3853
						C50.2661,90.6372,49.5459,90.9224,48.7861,90.9224z"/>
					<path fill="#F499C1" d="M69.7261,90.6523c-0.5996,0-1.1201-0.1953-1.5596-0.585c-0.4404-0.3901-0.7905-0.8853-1.0503-1.4854
						c-0.2603-0.5996-0.4551-1.2095-0.585-1.8296c-0.1304-0.6201-0.1948-1.1602-0.1948-1.6201
						c0.2598-0.04,0.5996-0.1201,1.02-0.2402c0.4199-0.1201,0.8496-0.2847,1.29-0.4951c0.4395-0.21,0.8096-0.48,1.1099-0.8096
						c0.2998-0.3301,0.4497-0.7251,0.4497-1.1851c0-0.3799-0.1299-0.6851-0.3896-0.915c-0.2603-0.23-0.5903-0.3452-0.9902-0.3452
						c-0.5801,0-1.1299,0.1953-1.6499,0.585c-0.5205,0.3901-0.9951,0.9004-1.4248,1.5303c-0.4307,0.6299-0.8154,1.3101-1.1553,2.04
						c-0.3403,0.73-0.6401,1.4302-0.8999,2.0996c-0.2603,0.6704-0.48,1.2451-0.6602,1.7251c-0.1797,0.52-0.375,0.8701-0.585,1.0503
						c-0.21,0.1797-0.4849,0.27-0.8247,0.27c-0.2002,0-0.3901-0.0752-0.5703-0.2251c-0.1797-0.1499-0.3149-0.4053-0.4048-0.7651
						c-0.0903-0.3599-0.1353-0.8398-0.1353-1.4399c0-1.1597,0.1699-2.4551,0.5103-3.8848c0.3398-1.4297,0.7949-2.895,1.3647-4.395
						c0.5703-1.5,1.1948-2.9404,1.875-4.3203c0.6797-1.3799,1.3652-2.6196,2.0552-3.7197s1.335-1.9751,1.9351-2.625
						s1.0898-0.9751,1.4697-0.9751c0.3198,0,0.585,0.2002,0.7954,0.6001c0.21,0.3999,0.3149,0.8999,0.3149,1.5
						c0,0.6802-0.1504,1.4399-0.4502,2.2798s-0.7251,1.6851-1.2749,2.5352c-0.5503,0.8501-1.2002,1.6553-1.9502,2.415
						c-0.75,0.7603-1.585,1.4097-2.5049,1.9497c-0.5801,1.4204-1.0249,2.8101-1.335,4.1699
						c-0.3105,1.3604-0.4951,2.5405-0.5552,3.54c0.3398-0.8198,0.7397-1.6748,1.2002-2.5649
						c0.46-0.8896,0.9751-1.7349,1.5449-2.5347s1.1851-1.4448,1.8452-1.9351c0.6597-0.4902,1.3599-0.7354,2.0996-0.7354
						c0.7803,0,1.4551,0.27,2.0254,0.8101c0.5698,0.54,0.855,1.2202,0.855,2.04c0,0.6001-0.165,1.125-0.4951,1.5752
						c-0.3301,0.4497-0.7305,0.8149-1.2002,1.0947c-0.4702,0.2803-0.9399,0.4907-1.4097,0.6304
						c-0.4702,0.1401-0.8657,0.21-1.1851,0.21c0.0396,0.2397,0.1094,0.5601,0.21,0.96c0.0996,0.4004,0.2446,0.8052,0.4351,1.2148
						c0.1899,0.4102,0.4243,0.7554,0.7051,1.0352c0.2798,0.2803,0.6099,0.4199,0.9897,0.4199c0.54,0,1.0698-0.2251,1.5898-0.6748
						c0.52-0.4502,1.0303-1.0503,1.5303-1.8003c0.4995-0.75,0.9497-1.585,1.3501-2.5049l0.3599,0.4497
						c-0.3203,0.9805-0.77,1.9253-1.3501,2.8354s-1.23,1.645-1.9497,2.2046C71.1963,90.3721,70.4658,90.6523,69.7261,90.6523z
						 M65.4062,77.6323c0.6797-0.5801,1.335-1.2603,1.9648-2.04c0.6304-0.7803,1.1499-1.585,1.5601-2.415
						c0.4097-0.8296,0.625-1.5752,0.645-2.2349c0-0.0601-0.0103-0.1099-0.0298-0.1504c-0.2002,0.0405-0.5249,0.3804-0.9751,1.02
						c-0.4502,0.6406-0.9556,1.4653-1.5151,2.4751C66.4961,75.2974,65.9463,76.4126,65.4062,77.6323z"/>
					<path fill="#F499C1" d="M77.5259,90.832c-1.2603,0-2.2202-0.3403-2.8804-1.02c-0.6597-0.6797-0.9897-1.5298-0.9897-2.5498
						c0-0.8999,0.2251-1.8452,0.6748-2.835c0.4502-0.9902,1.0547-1.9199,1.8149-2.79s1.5947-1.5796,2.5054-2.1299
						c0.9097-0.5498,1.8149-0.8252,2.7148-0.8252c0.4995,0,0.9751,0.1304,1.4248,0.3901c0.4502,0.2603,0.6753,0.7798,0.6753,1.5601
						c0,0.7603-0.2251,1.4751-0.6753,2.145c-0.4497,0.6704-1.04,1.2651-1.77,1.7847c-0.73,0.5205-1.54,0.9453-2.4297,1.2754
						c-0.8901,0.3296-1.7754,0.5352-2.6553,0.6147c-0.02,0.1201-0.04,0.2402-0.0596,0.3599
						c-0.0205,0.1201-0.0303,0.2803-0.0303,0.48c0,0.1606,0.0249,0.375,0.0752,0.645c0.0493,0.27,0.1499,0.54,0.2998,0.8101
						s0.3848,0.4951,0.7051,0.6753c0.3198,0.1797,0.7397,0.27,1.2598,0.27c0.8403,0,1.6851-0.2402,2.5352-0.7202
						s1.645-1.1147,2.3853-1.9048c0.7393-0.79,1.3599-1.665,1.8599-2.625l0.5098,0.4199c-0.54,1.1997-1.23,2.2451-2.0698,3.1348
						c-0.8398,0.8901-1.7651,1.585-2.7749,2.085C79.6206,90.582,78.5854,90.832,77.5259,90.832z M76.2056,85.522
						c0.52-0.0996,1.1104-0.3047,1.77-0.6147c0.6602-0.3101,1.29-0.6997,1.8901-1.1699c0.6001-0.4697,1.0952-0.9849,1.4849-1.5449
						c0.3901-0.5601,0.585-1.1299,0.585-1.71c0-0.2202-0.04-0.3799-0.1196-0.48c-0.0806-0.1001-0.2207-0.1504-0.4204-0.1504
						c-0.48,0-0.9746,0.1753-1.4849,0.5254c-0.5098,0.3501-1.0103,0.7998-1.5,1.3496c-0.4902,0.5503-0.9253,1.1602-1.3047,1.8301
						C76.7256,84.2275,76.4258,84.8823,76.2056,85.522z"/>
					<path fill="#F499C1" d="M86.5552,90.4121c-0.6802,0-1.2349-0.3101-1.6646-0.9297c-0.4307-0.6201-0.645-1.3398-0.645-2.1602
						c0-0.5596,0.0942-1.2197,0.2847-1.98c0.1899-0.7598,0.4248-1.5049,0.7051-2.2349c0.2798-0.73,0.5747-1.3354,0.8853-1.8154
						c0.3096-0.48,0.585-0.7197,0.8247-0.7197c0.1396,0,0.3452,0.0703,0.6152,0.21c0.27,0.1401,0.5049,0.3101,0.7051,0.5098
						c-0.2207,0.3203-0.4854,0.8203-0.7954,1.5c-0.3101,0.6802-0.585,1.4058-0.8247,2.1753
						c-0.2402,0.77-0.3604,1.4751-0.3604,2.1147c0,0.1006,0.0151,0.3052,0.0454,0.6152c0.0298,0.3101,0.1094,0.5952,0.2397,0.855
						c0.1299,0.2603,0.355,0.3901,0.6753,0.3901c0.3398,0,0.7095-0.1851,1.1099-0.5552c0.3999-0.3696,0.8047-0.855,1.2148-1.4551
						c0.4097-0.6001,0.8047-1.2495,1.1851-1.9497c0.3799-0.7002,0.73-1.3701,1.0498-2.0103
						c0.3198-0.6396,0.5801-1.1797,0.7803-1.6201c0.1597,0.0205,0.375,0.0654,0.645,0.1353c0.27,0.0703,0.5098,0.165,0.7197,0.2847
						c0.21,0.1201,0.3154,0.2905,0.3154,0.5103c0,0.0601-0.0952,0.3101-0.2852,0.75c-0.1904,0.4399-0.4155,0.9702-0.6753,1.5898
						c-0.2598,0.6201-0.4849,1.2505-0.6748,1.8901c-0.1904,0.6401-0.2852,1.2002-0.2852,1.6802
						c0,0.2998,0.0601,0.5601,0.1802,0.7798c0.1201,0.2202,0.3496,0.3301,0.6899,0.3301c0.4199,0,0.9248-0.1899,1.5151-0.5698
						c0.5898-0.3799,1.1948-0.9351,1.8149-1.665c0.6196-0.73,1.1699-1.5947,1.6499-2.5952l0.4199,0.3301
						c-0.4399,1.0801-1.0049,2.0449-1.6948,2.895s-1.4302,1.5151-2.2202,1.9951s-1.5552,0.7197-2.2949,0.7197
						c-0.5601,0-0.9897-0.125-1.29-0.375c-0.2998-0.25-0.5054-0.5747-0.6147-0.9751c-0.1104-0.3994-0.165-0.8096-0.165-1.23
						c0-0.1396,0.0044-0.2896,0.0151-0.4497c0.0098-0.1602,0.0244-0.3101,0.0449-0.4502c-0.3403,0.5806-0.7153,1.1353-1.125,1.665
						c-0.4102,0.5303-0.8403,0.9648-1.29,1.3052C87.5303,90.2422,87.0552,90.4121,86.5552,90.4121z"/>
					<path fill="#F499C1" d="M95.7349,97.9121c-0.1597,0-0.3247-0.0601-0.4946-0.1797c-0.1699-0.1201-0.3149-0.2505-0.4351-0.3901
						c-0.1201-0.1401-0.1802-0.2402-0.1802-0.3003c0.4199-1.3003,0.7905-2.4351,1.1099-3.4048
						c0.3203-0.9702,0.6055-1.9048,0.8555-2.8052c0.25-0.8999,0.4849-1.875,0.7046-2.9248c0.2202-1.0498,0.4399-2.29,0.6602-3.7202
						c0.2197-1.4297,0.4502-3.1748,0.6899-5.2349c0.04-0.2197,0.0898-0.3794,0.1499-0.48c0.0601-0.0996,0.2402-0.1499,0.54-0.1499
						c0.5801,0,1,0.1602,1.2603,0.48c0.2598,0.3203,0.3896,0.6704,0.3896,1.0498c0,0.2207-0.0449,0.6152-0.1348,1.1851
						c-0.0898,0.5703-0.2153,1.2554-0.375,2.0552c0.3599-0.6196,0.79-1.2148,1.29-1.7852c0.4995-0.5698,1.0596-1.0449,1.6802-1.4248
						c0.6196-0.3799,1.2896-0.5703,2.0098-0.5703c0.96,0,1.7446,0.3257,2.355,0.9751c0.6099,0.6504,0.915,1.5054,0.915,2.5649
						c0,0.7803-0.1753,1.605-0.5249,2.4751c-0.3501,0.8701-0.8403,1.6904-1.4702,2.46c-0.6299,0.77-1.3901,1.4004-2.2798,1.8901
						c-0.8901,0.4897-1.8652,0.7349-2.9253,0.7349c-0.5996,0-1.0796-0.0747-1.4399-0.2251c-0.3599-0.1499-0.54-0.3052-0.54-0.4648
						c0-0.1201,0.0752-0.1948,0.2251-0.2251c0.1499-0.0298,0.3149-0.0449,0.4951-0.0449c0.8999,0,1.7251-0.1948,2.4751-0.585
						s1.4097-0.895,1.98-1.5151c0.5698-0.6196,1.0098-1.29,1.3198-2.0098c0.3101-0.7202,0.4648-1.4399,0.4648-2.1602
						c0-0.6001-0.1348-1.125-0.4048-1.5747c-0.27-0.4502-0.6953-0.6753-1.2749-0.6753c-0.5205,0-1.0352,0.165-1.5449,0.4951
						c-0.5103,0.3301-0.9854,0.7402-1.4253,1.23c-0.4399,0.4902-0.8301,1.0049-1.1699,1.5449
						c-0.3403,0.54-0.6001,1.02-0.7798,1.4399c-0.3804,1.3799-0.7354,2.7354-1.0649,4.0649
						c-0.3301,1.3301-0.6406,2.5601-0.9302,3.6899c-0.29,1.1299-0.5801,2.0747-0.8701,2.8354
						c-0.2896,0.7598-0.5747,1.2598-0.855,1.5C96.0454,97.8521,95.8955,97.9121,95.7349,97.9121z"/>
					<path fill="#F499C1" d="M119.0444,90.9224c-0.6401,0-1.1953-0.2153-1.665-0.645c-0.4697-0.4307-0.7046-1.0752-0.7046-1.9351
						c0-0.7202,0.1602-1.4897,0.48-2.3101c0.3193-0.8198,0.7598-1.6299,1.3198-2.4302c0.5596-0.7993,1.2002-1.5298,1.9199-2.1899
						c0.7202-0.6597,1.4849-1.1895,2.2949-1.5898c0.8101-0.3999,1.6147-0.6001,2.415-0.6001c0.8403,0,1.5449,0.2153,2.1152,0.645
						c0.5698,0.4302,0.855,0.9951,0.855,1.6948c0,0.54-0.1704,0.9204-0.5103,1.1401c-0.3403,0.2202-0.7603,0.29-1.2598,0.21
						c0.0396-0.1597,0.0747-0.3345,0.105-0.5249c0.0298-0.1899,0.0449-0.375,0.0449-0.5552c0-0.4199-0.0898-0.7896-0.27-1.1099
						c-0.1802-0.3198-0.5303-0.48-1.0498-0.48c-0.5605,0-1.1304,0.1904-1.71,0.5698c-0.5806,0.3804-1.1401,0.8804-1.6802,1.5
						c-0.54,0.6201-1.02,1.3003-1.4399,2.04c-0.4199,0.7402-0.75,1.4702-0.9902,2.1899c-0.2397,0.7202-0.3599,1.3604-0.3599,1.9204
						c0,0.6802,0.25,1.02,0.75,1.02c0.46,0,0.9648-0.2202,1.5151-0.6602c0.5498-0.4399,1.1099-1,1.6797-1.6802
						c0.5703-0.6797,1.1147-1.3745,1.6353-2.085c0.5195-0.7095,0.9697-1.335,1.3501-1.875c0.0796-0.0996,0.1499-0.1499,0.21-0.1499
						c0.0996,0.02,0.2598,0.0649,0.48,0.1348c0.2197,0.0703,0.4199,0.165,0.6001,0.2852c0.1797,0.1201,0.27,0.2803,0.27,0.48
						c0,0.2002-0.0903,0.4551-0.27,0.7651c-0.1802,0.3101-0.3804,0.6553-0.6001,1.0352c-0.2202,0.3799-0.4199,0.7603-0.6001,1.1396
						c-0.1802,0.3804-0.27,0.75-0.27,1.1104c0,0.2598,0.0752,0.5151,0.2251,0.7646c0.1499,0.2505,0.3945,0.375,0.7349,0.375
						c0.4995,0,1.1851-0.3647,2.0552-1.0947c0.8696-0.73,1.7549-1.9248,2.6548-3.585l0.48,0.48
						c-0.4604,1.0801-1.0249,2.0298-1.6948,2.8496c-0.6704,0.8203-1.3755,1.4653-2.1152,1.9351
						c-0.7402,0.4697-1.48,0.7051-2.2197,0.7051c-0.8003,0-1.3906-0.2451-1.77-0.7349c-0.3804-0.4897-0.5903-1.0249-0.6299-1.605
						c0-0.0601,0.0044-0.1245,0.0146-0.1948c0.0098-0.0703,0.0151-0.1353,0.0151-0.1953c-0.8203,1.02-1.5703,1.8149-2.25,2.3853
						C120.5244,90.6372,119.8042,90.9224,119.0444,90.9224z"/>
					<path fill="#F499C1" d="M140.6445,90.1123c-0.7402,0-1.3052-0.1904-1.6948-0.5703c-0.3901-0.3794-0.585-0.8594-0.585-1.4399
						c0-0.4199,0.0698-0.855,0.21-1.3047c0.1396-0.4502,0.2798-0.9102,0.4199-1.3804c0.1396-0.4692,0.21-0.9248,0.21-1.3647
						c0-0.48-0.1104-0.8101-0.3301-0.9902c-0.2202-0.1797-0.48-0.27-0.7798-0.27c-0.6001,0-1.2153,0.2505-1.8452,0.75
						c-0.6299,0.5005-1.2451,1.125-1.8447,1.875c-0.6001,0.75-1.1602,1.5352-1.6802,2.355
						c-0.5205,0.8203-0.9702,1.5503-1.3501,2.1904c-0.3599,0-0.6997-0.0601-1.02-0.1802c-0.3198-0.1201-0.5898-0.3301-0.8101-0.6299
						c0.0205-0.1001,0.1353-0.4053,0.3452-0.915c0.21-0.5103,0.4453-1.1299,0.7051-1.8599s0.4946-1.4854,0.7051-2.2651
						c0.21-0.7803,0.3149-1.5,0.3149-2.1602c0.1396-0.1396,0.3496-0.2896,0.6299-0.4497c0.2798-0.1602,0.5698-0.2402,0.8701-0.2402
						c0.6396,0,0.96,0.29,0.96,0.8701c0,0.2603-0.0601,0.6748-0.1802,1.2451c-0.1201,0.5698-0.2803,1.1953-0.48,1.875
						c0.52-0.7397,1.0996-1.4551,1.7402-2.145c0.6396-0.6904,1.3096-1.2549,2.0098-1.6953
						c0.6997-0.4395,1.4102-0.6597,2.1299-0.6597c0.8198,0,1.4253,0.2847,1.8149,0.855c0.3901,0.5698,0.585,1.2051,0.585,1.9048
						c0,0.6001-0.1001,1.1655-0.2998,1.6948c-0.2002,0.5303-0.395,1.0303-0.585,1.5c-0.1904,0.4702-0.2852,0.9355-0.2852,1.395
						c0,0.3403,0.0752,0.585,0.2251,0.7354c0.1499,0.1499,0.335,0.2246,0.5552,0.2246c0.48,0,0.9751-0.2349,1.4849-0.7046
						c0.5103-0.4697,1-1.0601,1.4702-1.77c0.4697-0.71,0.8848-1.4253,1.2446-2.145l0.4502,0.3896
						c-0.4199,0.9805-0.8901,1.8706-1.4102,2.6704s-1.1001,1.4351-1.7397,1.9048C142.1641,89.877,141.4443,90.1123,140.6445,90.1123
						z"/>
					<path fill="#F499C1" d="M146.7944,90.4121c-0.3804,0-0.7554-0.0898-1.125-0.27c-0.3701-0.1797-0.6851-0.4702-0.9448-0.8701
						c-0.2598-0.3994-0.3901-0.8999-0.3901-1.5c0-0.6597,0.1602-1.3994,0.48-2.2197c0.3198-0.8198,0.7549-1.6396,1.3052-2.46
						c0.5498-0.8198,1.1851-1.5698,1.9048-2.25c0.7202-0.6797,1.48-1.23,2.2803-1.6499c0.7993-0.4204,1.5996-0.6304,2.3999-0.6304
						c0.4395,0,0.7847,0.0752,1.0347,0.2251s0.375,0.395,0.375,0.7349c0,0.1006-0.0146,0.2002-0.0449,0.3003
						c-0.0298,0.1001-0.0952,0.2002-0.1948,0.2998c-0.1006-0.1396-0.2451-0.2349-0.4351-0.2847
						c-0.1904-0.0498-0.4048-0.0752-0.645-0.0752c-0.6602,0-1.29,0.1851-1.8901,0.5552c-0.5996,0.3701-1.1548,0.855-1.665,1.4546
						c-0.5098,0.6001-0.9502,1.2451-1.3198,1.9351c-0.3701,0.6899-0.6553,1.3604-0.855,2.0103
						c-0.2002,0.6499-0.2998,1.2051-0.2998,1.665c0,0.4004,0.0845,0.7197,0.2549,0.96c0.1694,0.2397,0.4146,0.3599,0.7349,0.3599
						c0.54,0,1.1899-0.3247,1.9502-0.9751c0.7598-0.6494,1.5347-1.5796,2.3247-2.79c0.79-1.2095,1.5049-2.6445,2.145-4.3047
						c0.4399-1.1401,0.8999-2.3052,1.3804-3.4951c0.48-1.1895,0.96-2.3398,1.4399-3.4502c0.48-1.1099,0.9497-2.0947,1.4097-2.9546
						s0.9004-1.5454,1.3203-2.0552c0.4199-0.5103,0.8101-0.7651,1.1699-0.7651c0.1997,0,0.375,0.0801,0.5249,0.2402
						s0.2251,0.3599,0.2251,0.6001c0,0.3198-0.165,0.8599-0.4951,1.6196c-0.3301,0.7603-0.7549,1.665-1.2749,2.7153
						c-0.5205,1.0498-1.0752,2.1899-1.665,3.4199c-0.5903,1.23-1.1401,2.4854-1.6499,3.7646
						c-0.5103,1.2803-0.9302,2.5308-1.2603,3.75c-0.3301,1.2202-0.4946,2.3604-0.4946,3.4204c0,0.5,0.0396,0.855,0.1196,1.0649
						c0.0796,0.21,0.25,0.3149,0.5103,0.3149c0.4199,0,0.9048-0.1748,1.4551-0.5249c0.5498-0.3496,1.1045-0.8599,1.665-1.5303
						c0.5596-0.6699,1.0596-1.4648,1.5-2.3848l0.5098,0.3896c-0.4199,1.0801-0.9653,2.0356-1.6348,2.8652
						c-0.6704,0.8301-1.3906,1.4805-2.1602,1.9502c-0.77,0.4697-1.5254,0.7046-2.2651,0.7046c-0.7798,0-1.3252-0.2549-1.6348-0.7646
						c-0.3105-0.5103-0.4653-1.085-0.4653-1.7251c0-0.3198,0.0303-0.6851,0.0903-1.0952c0.0601-0.4097,0.1396-0.8345,0.2397-1.2749
						c-0.6201,0.96-1.2803,1.8149-1.98,2.5649c-0.7002,0.75-1.3853,1.3403-2.0552,1.77
						C148.0293,90.1973,147.3945,90.4121,146.7944,90.4121z"/>
					<path fill="#F499C1" d="M182.6733,90.4424c-0.7598,0-1.3193-0.2251-1.6797-0.6753c-0.3594-0.4497-0.54-0.9849-0.54-1.605
						c0-0.48,0.0703-0.9546,0.21-1.4248c0.1396-0.4697,0.2852-0.9346,0.4355-1.395c0.1494-0.46,0.2246-0.8799,0.2246-1.2603
						c0-0.3599-0.0752-0.6099-0.2246-0.75c-0.1504-0.1396-0.3252-0.21-0.5254-0.21c-0.4795,0-1.0195,0.3652-1.6201,1.0952
						c-0.5996,0.7305-1.3604,1.7749-2.2803,3.1348c-0.3193,0.48-0.6094,0.9805-0.8691,1.5
						c-0.2607,0.5205-0.501,0.9702-0.7207,1.3501c-0.1602,0-0.3799-0.0298-0.6602-0.0898s-0.5249-0.1401-0.7349-0.2402
						s-0.3149-0.23-0.3149-0.3896c0-0.1802,0.1001-0.5298,0.2998-1.0503c0.1997-0.5195,0.4302-1.1294,0.6904-1.8301
						c0.2593-0.6997,0.4844-1.395,0.6748-2.085s0.2852-1.2749,0.2852-1.7549c0-0.2998-0.0498-0.5347-0.1504-0.7051
						c-0.0996-0.1694-0.2695-0.2549-0.5098-0.2549c-0.4199,0-0.9302,0.2549-1.5298,0.7651c-0.6001,0.5098-1.23,1.1748-1.8901,1.9946
						c-0.6602,0.8203-1.2749,1.7354-1.8452,2.7451c-0.5698,1.0103-1.0347,2.0151-1.395,3.0151c-0.2202,0-0.48-0.0405-0.7798-0.1201
						c-0.3003-0.0801-0.5596-0.1802-0.7803-0.2998c-0.2197-0.1201-0.3296-0.2305-0.3296-0.3301
						c0-0.0601,0.0801-0.3701,0.2397-0.9302c0.1602-0.5596,0.3555-1.2495,0.585-2.0698c0.23-0.8198,0.4502-1.6597,0.6602-2.52
						c0.21-0.8599,0.375-1.6201,0.4951-2.2803c0.0796-0.1797,0.2896-0.3496,0.6299-0.5098
						c0.3398-0.1597,0.6494-0.2402,0.9302-0.2402c0.2798,0,0.5044,0.0806,0.6748,0.2402c0.1694,0.1602,0.2549,0.3804,0.2549,0.6602
						c0,0.2202-0.0503,0.5649-0.1499,1.0347c-0.1001,0.4702-0.23,0.9951-0.3901,1.5752c0.4199-0.6001,0.8701-1.1948,1.3501-1.7852
						c0.48-0.5894,0.9849-1.125,1.5151-1.605c0.5298-0.48,1.0596-0.8647,1.5898-1.1548c0.5303-0.2896,1.0547-0.4351,1.5752-0.4351
						c0.7002,0,1.1748,0.2505,1.4248,0.75c0.25,0.5,0.375,1.0601,0.375,1.6802c0,0.3403-0.0352,0.6899-0.1045,1.0498
						c-0.0703,0.3599-0.1504,0.7002-0.2402,1.02c-0.0898,0.3203-0.1953,0.6401-0.3154,0.96c0.3799-0.6196,0.8105-1.21,1.29-1.77
						c0.4805-0.5596,0.9902-1.0049,1.5303-1.335s1.1201-0.4951,1.7402-0.4951c0.7393,0,1.25,0.2202,1.5303,0.6602
						c0.2793,0.4399,0.4199,0.9302,0.4199,1.4697c0,0.5205-0.0859,1.0757-0.2549,1.665c-0.1709,0.5903-0.3457,1.1504-0.5254,1.6802
						c-0.1797,0.5303-0.2705,0.9854-0.2705,1.3652c0,0.2202,0.0557,0.4199,0.165,0.5996c0.1104,0.1802,0.3252,0.27,0.6455,0.27
						c0.54,0,1.0596-0.2495,1.5596-0.75c0.5-0.4995,0.96-1.1147,1.3799-1.8447c0.4209-0.73,0.7803-1.4253,1.0801-2.085l0.4502,0.54
						c-0.3203,0.8398-0.7305,1.6797-1.2295,2.52c-0.5,0.8398-1.0908,1.54-1.7705,2.0996
						C184.2739,90.1621,183.5142,90.4424,182.6733,90.4424z"/>
					<path fill="#F499C1" d="M188.4038,90.9224c-0.6396,0-1.1953-0.2153-1.665-0.645c-0.4697-0.4307-0.7041-1.0752-0.7041-1.9351
						c0-0.7202,0.1602-1.4897,0.4795-2.3101c0.3193-0.8198,0.7598-1.6299,1.3203-2.4302c0.5596-0.7993,1.2002-1.5298,1.9199-2.1899
						c0.7197-0.6597,1.4844-1.1895,2.2949-1.5898c0.8096-0.3999,1.6143-0.6001,2.415-0.6001c0.8398,0,1.5449,0.2153,2.1143,0.645
						c0.5703,0.4302,0.8555,0.9951,0.8555,1.6948c0,0.54-0.1699,0.9204-0.5098,1.1401c-0.3408,0.2202-0.7607,0.29-1.2607,0.21
						c0.04-0.1597,0.0752-0.3345,0.1055-0.5249c0.0303-0.1899,0.0449-0.375,0.0449-0.5552c0-0.4199-0.0898-0.7896-0.2695-1.1099
						c-0.1807-0.3198-0.5303-0.48-1.0508-0.48c-0.5596,0-1.1299,0.1904-1.71,0.5698c-0.5801,0.3804-1.1396,0.8804-1.6797,1.5
						c-0.54,0.6201-1.0195,1.3003-1.4395,2.04c-0.4199,0.7402-0.75,1.4702-0.9902,2.1899
						c-0.2402,0.7202-0.3604,1.3604-0.3604,1.9204c0,0.6802,0.25,1.02,0.75,1.02c0.46,0,0.9648-0.2202,1.5156-0.6602
						c0.5498-0.4399,1.1094-1,1.6797-1.6802c0.5693-0.6797,1.1143-1.3745,1.6348-2.085c0.5195-0.7095,0.9697-1.335,1.3496-1.875
						c0.0801-0.0996,0.1504-0.1499,0.21-0.1499c0.1006,0.02,0.2598,0.0649,0.4805,0.1348c0.2197,0.0703,0.4199,0.165,0.5996,0.2852
						c0.1807,0.1201,0.2705,0.2803,0.2705,0.48c0,0.2002-0.0898,0.4551-0.2705,0.7651c-0.1797,0.3101-0.3799,0.6553-0.5996,1.0352
						c-0.2207,0.3799-0.4199,0.7603-0.6006,1.1396c-0.1797,0.3804-0.2695,0.75-0.2695,1.1104c0,0.2598,0.0752,0.5151,0.2246,0.7646
						c0.1504,0.2505,0.3955,0.375,0.7354,0.375c0.5,0,1.1846-0.3647,2.0547-1.0947s1.7549-1.9248,2.6553-3.585l0.4805,0.48
						c-0.4609,1.0801-1.0254,2.0298-1.6953,2.8496c-0.6699,0.8203-1.375,1.4653-2.1152,1.9351s-1.4805,0.7051-2.2197,0.7051
						c-0.7998,0-1.3906-0.2451-1.7705-0.7349s-0.5898-1.0249-0.6299-1.605c0-0.0601,0.0049-0.1245,0.0156-0.1948
						c0.0098-0.0703,0.0146-0.1353,0.0146-0.1953c-0.8203,1.02-1.5703,1.8149-2.25,2.3853
						C189.8843,90.6372,189.1636,90.9224,188.4038,90.9224z"/>
					<path fill="#F499C1" d="M209.3433,90.6523c-0.5996,0-1.1201-0.1953-1.5596-0.585c-0.4404-0.3901-0.791-0.8853-1.0498-1.4854
						c-0.2607-0.5996-0.4561-1.2095-0.585-1.8296c-0.1309-0.6201-0.1953-1.1602-0.1953-1.6201
						c0.2598-0.04,0.5996-0.1201,1.0195-0.2402s0.8506-0.2847,1.29-0.4951c0.4404-0.21,0.8105-0.48,1.1104-0.8096
						c0.2998-0.3301,0.4502-0.7251,0.4502-1.1851c0-0.3799-0.1309-0.6851-0.3906-0.915s-0.5898-0.3452-0.9893-0.3452
						c-0.5811,0-1.1309,0.1953-1.6504,0.585c-0.5205,0.3901-0.9951,0.9004-1.4248,1.5303c-0.4307,0.6299-0.8154,1.3101-1.1553,2.04
						s-0.6406,1.4302-0.9004,2.0996c-0.2598,0.6704-0.4795,1.2451-0.6592,1.7251c-0.1807,0.52-0.375,0.8701-0.585,1.0503
						c-0.21,0.1797-0.4854,0.27-0.8252,0.27c-0.2002,0-0.3906-0.0752-0.5703-0.2251s-0.3145-0.4053-0.4053-0.7651
						c-0.0898-0.3599-0.1348-0.8398-0.1348-1.4399c0-1.1597,0.1699-2.4551,0.5098-3.8848s0.7949-2.895,1.3652-4.395
						s1.1953-2.9404,1.875-4.3203s1.3652-2.6196,2.0547-3.7197c0.6904-1.1001,1.3359-1.9751,1.9355-2.625
						s1.0898-0.9751,1.4697-0.9751c0.3203,0,0.585,0.2002,0.7949,0.6001s0.3154,0.8999,0.3154,1.5
						c0,0.6802-0.1504,1.4399-0.4502,2.2798s-0.7256,1.6851-1.2754,2.5352s-1.1992,1.6553-1.9492,2.415
						c-0.75,0.7603-1.5859,1.4097-2.5049,1.9497c-0.5811,1.4204-1.0254,2.8101-1.3359,4.1699
						c-0.3096,1.3604-0.4941,2.5405-0.5547,3.54c0.3398-0.8198,0.7402-1.6748,1.2002-2.5649
						c0.46-0.8896,0.9746-1.7349,1.5449-2.5347s1.1846-1.4448,1.8447-1.9351s1.3604-0.7354,2.1006-0.7354
						c0.7793,0,1.4551,0.27,2.0244,0.8101c0.5703,0.54,0.8555,1.2202,0.8555,2.04c0,0.6001-0.165,1.125-0.4951,1.5752
						c-0.3301,0.4497-0.7305,0.8149-1.2002,1.0947c-0.4697,0.2803-0.9404,0.4907-1.4102,0.6304
						c-0.4697,0.1401-0.8652,0.21-1.1846,0.21c0.04,0.2397,0.1094,0.5601,0.21,0.96c0.0996,0.4004,0.2441,0.8052,0.4346,1.2148
						c0.1904,0.4102,0.4248,0.7554,0.7051,1.0352c0.2803,0.2803,0.6104,0.4199,0.9902,0.4199c0.54,0,1.0693-0.2251,1.5898-0.6748
						c0.5205-0.4502,1.0303-1.0503,1.5303-1.8003s0.9492-1.585,1.3496-2.5049l0.3604,0.4497
						c-0.3203,0.9805-0.7705,1.9253-1.3496,2.8354c-0.5811,0.9102-1.2305,1.645-1.9502,2.2046
						C210.813,90.3721,210.0835,90.6523,209.3433,90.6523z M205.0239,77.6323c0.6797-0.5801,1.335-1.2603,1.9648-2.04
						c0.6299-0.7803,1.1494-1.585,1.5596-2.415c0.4102-0.8296,0.625-1.5752,0.6455-2.2349c0-0.0601-0.0107-0.1099-0.0303-0.1504
						c-0.2002,0.0405-0.5254,0.3804-0.9756,1.02c-0.4492,0.6406-0.9551,1.4653-1.5146,2.4751
						C206.1138,75.2974,205.563,76.4126,205.0239,77.6323z"/>
					<path fill="#F499C1" d="M217.1431,90.832c-1.2598,0-2.2197-0.3403-2.8799-1.02s-0.9902-1.5298-0.9902-2.5498
						c0-0.8999,0.2256-1.8452,0.6758-2.835c0.4492-0.9902,1.0547-1.9199,1.8145-2.79s1.5947-1.5796,2.5049-2.1299
						c0.9102-0.5498,1.8154-0.8252,2.7158-0.8252c0.499,0,0.9746,0.1304,1.4248,0.3901c0.4502,0.2603,0.6748,0.7798,0.6748,1.5601
						c0,0.7603-0.2246,1.4751-0.6748,2.145c-0.4502,0.6704-1.04,1.2651-1.7705,1.7847c-0.7305,0.5205-1.54,0.9453-2.4297,1.2754
						c-0.8906,0.3296-1.7754,0.5352-2.6553,0.6147c-0.0195,0.1201-0.04,0.2402-0.0596,0.3599
						c-0.0205,0.1201-0.0303,0.2803-0.0303,0.48c0,0.1606,0.0244,0.375,0.0752,0.645c0.0498,0.27,0.1494,0.54,0.2998,0.8101
						s0.3848,0.4951,0.7051,0.6753c0.3193,0.1797,0.7393,0.27,1.2598,0.27c0.8398,0,1.6846-0.2402,2.5352-0.7202
						c0.8496-0.48,1.6445-1.1147,2.3848-1.9048s1.3604-1.665,1.8604-2.625l0.5098,0.4199c-0.54,1.1997-1.2295,2.2451-2.0703,3.1348
						c-0.8398,0.8901-1.7646,1.585-2.7744,2.085C219.2378,90.582,218.2036,90.832,217.1431,90.832z M215.8237,85.522
						c0.5195-0.0996,1.1094-0.3047,1.7695-0.6147s1.29-0.6997,1.8906-1.1699c0.5996-0.4697,1.0947-0.9849,1.4844-1.5449
						c0.3906-0.5601,0.585-1.1299,0.585-1.71c0-0.2202-0.04-0.3799-0.1201-0.48s-0.2197-0.1504-0.4199-0.1504
						c-0.4795,0-0.9746,0.1753-1.4844,0.5254c-0.5107,0.3501-1.0107,0.7998-1.5,1.3496c-0.4902,0.5503-0.9258,1.1602-1.3057,1.8301
						C216.3433,84.2275,216.0435,84.8823,215.8237,85.522z"/>
					<path fill="#F499C1" d="M226.1733,90.4121c-0.6807,0-1.2354-0.3101-1.665-0.9297c-0.4307-0.6201-0.6455-1.3398-0.6455-2.1602
						c0-0.5596,0.0947-1.2197,0.2852-1.98c0.1904-0.7598,0.4248-1.5049,0.7051-2.2349s0.5752-1.3354,0.8848-1.8154
						c0.3105-0.48,0.585-0.7197,0.8252-0.7197c0.1396,0,0.3447,0.0703,0.6152,0.21c0.2695,0.1401,0.5049,0.3101,0.7051,0.5098
						c-0.2207,0.3203-0.4854,0.8203-0.7949,1.5c-0.3105,0.6802-0.585,1.4058-0.8252,2.1753
						c-0.2402,0.77-0.3604,1.4751-0.3604,2.1147c0,0.1006,0.0156,0.3052,0.0449,0.6152c0.0303,0.3101,0.1104,0.5952,0.2402,0.855
						c0.1299,0.2603,0.3545,0.3901,0.6748,0.3901c0.3398,0,0.71-0.1851,1.1104-0.5552c0.3994-0.3696,0.8047-0.855,1.2148-1.4551
						s0.8047-1.2495,1.1855-1.9497c0.3789-0.7002,0.7295-1.3701,1.0498-2.0103c0.3193-0.6396,0.5791-1.1797,0.7793-1.6201
						c0.1602,0.0205,0.375,0.0654,0.6455,0.1353c0.2695,0.0703,0.5098,0.165,0.7197,0.2847c0.21,0.1201,0.3154,0.2905,0.3154,0.5103
						c0,0.0601-0.0957,0.3101-0.2852,0.75c-0.1904,0.4399-0.415,0.9702-0.6748,1.5898c-0.2607,0.6201-0.4854,1.2505-0.6748,1.8901
						c-0.1904,0.6401-0.2852,1.2002-0.2852,1.6802c0,0.2998,0.0596,0.5601,0.1797,0.7798c0.1201,0.2202,0.3496,0.3301,0.6904,0.3301
						c0.4199,0,0.9248-0.1899,1.5146-0.5698s1.1943-0.9351,1.8145-1.665s1.1709-1.5947,1.6504-2.5952l0.4199,0.3301
						c-0.4404,1.0801-1.0049,2.0449-1.6953,2.895c-0.6895,0.8501-1.4297,1.5151-2.2197,1.9951s-1.5547,0.7197-2.2949,0.7197
						c-0.5596,0-0.9902-0.125-1.29-0.375s-0.5049-0.5747-0.6152-0.9751c-0.1094-0.3994-0.165-0.8096-0.165-1.23
						c0-0.1396,0.0049-0.2896,0.0156-0.4497c0.0098-0.1602,0.0244-0.3101,0.0449-0.4502c-0.3408,0.5806-0.7158,1.1353-1.125,1.665
						c-0.4102,0.5303-0.8398,0.9648-1.29,1.3052C227.1479,90.2422,226.6724,90.4121,226.1733,90.4121z"/>
					<path fill="#F499C1" d="M235.3521,97.9121c-0.1592,0-0.3242-0.0601-0.4951-0.1797c-0.1689-0.1201-0.3145-0.2505-0.4346-0.3901
						c-0.1201-0.1401-0.1797-0.2402-0.1797-0.3003c0.4199-1.3003,0.79-2.4351,1.1094-3.4048
						c0.3203-0.9702,0.6055-1.9048,0.8555-2.8052c0.25-0.8999,0.4854-1.875,0.7051-2.9248s0.4395-2.29,0.6602-3.7202
						c0.2197-1.4297,0.4492-3.1748,0.6895-5.2349c0.04-0.2197,0.0898-0.3794,0.1504-0.48c0.0596-0.0996,0.2393-0.1499,0.54-0.1499
						c0.5791,0,0.999,0.1602,1.2598,0.48c0.2598,0.3203,0.3896,0.6704,0.3896,1.0498c0,0.2207-0.0449,0.6152-0.1348,1.1851
						c-0.0898,0.5703-0.2148,1.2554-0.375,2.0552c0.3604-0.6196,0.79-1.2148,1.29-1.7852c0.5-0.5698,1.0596-1.0449,1.6797-1.4248
						s1.29-0.5703,2.0107-0.5703c0.96,0,1.7441,0.3257,2.3545,0.9751c0.6104,0.6504,0.915,1.5054,0.915,2.5649
						c0,0.7803-0.1758,1.605-0.5254,2.4751s-0.8398,1.6904-1.4697,2.46c-0.6299,0.77-1.3906,1.4004-2.2803,1.8901
						s-1.8652,0.7349-2.9248,0.7349c-0.5996,0-1.0801-0.0747-1.4395-0.2251c-0.3604-0.1499-0.54-0.3052-0.54-0.4648
						c0-0.1201,0.0742-0.1948,0.2246-0.2251c0.1504-0.0298,0.3154-0.0449,0.4951-0.0449c0.9004,0,1.7246-0.1948,2.4746-0.585
						s1.4102-0.895,1.9805-1.5151c0.5703-0.6196,1.0098-1.29,1.3203-2.0098c0.3096-0.7202,0.4648-1.4399,0.4648-2.1602
						c0-0.6001-0.1357-1.125-0.4053-1.5747c-0.2695-0.4502-0.6953-0.6753-1.2754-0.6753c-0.5195,0-1.0342,0.165-1.5449,0.4951
						c-0.5098,0.3301-0.9854,0.7402-1.4248,1.23c-0.4404,0.4902-0.8301,1.0049-1.1699,1.5449s-0.5996,1.02-0.7803,1.4399
						c-0.3799,1.3799-0.7344,2.7354-1.0645,4.0649c-0.3301,1.3301-0.6406,2.5601-0.9307,3.6899s-0.5791,2.0747-0.8691,2.8354
						c-0.29,0.7598-0.5752,1.2598-0.8555,1.5C235.6626,97.8521,235.5122,97.9121,235.3521,97.9121z"/>
				</g>
			</g>
		</g>
	</g>
</g>
</svg>
