<?xml version="1.0" encoding="utf-8"?>
<!-- Generator: Adobe Illustrator 25.3.0, SVG Export Plug-In . SVG Version: 6.00 Build 0)  -->
<svg version="1.1" id="Layer_1" xmlns="http://www.w3.org/2000/svg" xmlns:xlink="http://www.w3.org/1999/xlink" x="0px" y="0px"
	 viewBox="0 0 566.9 348.8" style="enable-background:new 0 0 566.9 348.8;" xml:space="preserve">
<style type="text/css">
	.st0{fill:#EFCCA3;}
	.st1{fill:#CCAC8D;}
	.st2{fill:#FFFFFF;}
	.st3{fill:#56332B;}
	.st4{fill:#442823;}
	.st5{fill:#7F4A41;}
	.st6{fill:#331712;}
</style>
<path class="st0" d="M474.4,108.9c-0.9-19.5,1.8-36.7-7.1-51.3C446.1,21.2,393,0,286.8,0v3.1h-2.2h2.2V0
	C180.6,0,124.8,21.2,103.6,58c-8.4,15-7.5,31.9-8.8,51.3c-0.9,15.5-8,31.9-4.9,49.6c3.5,23,4.9,46,8.4,67.3
	c2.7,17.3,26.5,31.9,28.8,48.2c6.2,45.1,53.1,65.9,159.3,65.9v3.5h-2.7h3.1v-3.5c106.2,0,151.3-20.8,157.1-65.9
	c2.2-16.8,24.3-31,27-48.2c3.5-21.2,4.9-44.2,8.4-67.3C482.4,141.2,475.3,124.3,474.4,108.9L474.4,108.9z"/>
<path class="st1" d="M285,124.8c19,0.4,32.3,12.4,44.7,23.5c14.6,12.8,39.4,21.7,49.6,32.7c10.2,11.1,23.5,22.1,28.3,39.4
	s6.2,39.4,6.2,45.1c0,5.8,3.1,4.4,11.9,0c20.8-10.2,43.8-37.6,43.8-37.6c-2.7,17.3-25.2,32.7-27.4,49.1
	c-5.3,45.1-49.1,66.8-157.5,66.8h-0.4h2.7"/>
<path class="st1" d="M354.9,90.3c4,13.7,18.1,60.2-9.3,44.7c0,0,11.5,6.6,18.6,31.9c7.5,25.2,25.7,28.3,25.7,28.3
	s29.6,5.8,51.8-13.3c18.6-15.9,21.7-44.2,13.7-65.9c-8-21.2-22.1-27.9-42.9-32.3C391.7,78.8,350.1,74.8,354.9,90.3z"/>
<circle cx="407.6" cy="140.7" r="38.9"/>
<circle class="st2" cx="397.4" cy="123.5" r="10.2"/>
<path class="st0" d="M348.3,138.9c0,0,35,23.9,54,47.3c19,23.5,18.6,27.9,18.6,27.9l-13.7,6.2c0,0-19.5-36.7-43.4-50.4
	c-24.3-13.7-27-25.2-27-25.2L348.3,138.9L348.3,138.9z"/>
<path class="st1" d="M286.3,124.8c-19,0.4-33.2,12.4-46,23.5c-14.6,12.8-40.3,21.7-50.4,32.7c-10.2,11.1-23.9,22.1-28.8,39.4
	s-6.6,39.4-6.6,45.1c0,5.8,0.9,6.2-11.9,0c-20.8-9.7-43.8-37.6-43.8-37.6c2.7,17.3,25.2,32.7,27.4,49.1c6.2,45.1,50,66.8,158.4,66.8
	h2.2"/>
<path class="st3" d="M389,199.6c-21.2-26.1-55.3-50.4-102.7-50.4h-0.4c-47.3,0-81.4,24.3-102.7,50.4c-22.1,27-20.4,37.6-20.4,63.3
	c0,92.9,32.7,66.4,54.4,77.9c22.1,11.1,45.1,7.5,68.6,7.5h0.4c23.9,0,46.5,3.1,68.6-8c21.7-11.1,54.4,16.4,54.4-76.5
	C409.8,238.1,411.1,226.6,389,199.6L389,199.6z"/>
<path class="st4" d="M284.1,172.1c0,0-3.1,42.9-9.3,51.3l11.5-2.7L284.1,172.1z"/>
<path class="st4" d="M287.2,172.1c0,0,3.1,42.9,9.3,51.3l-11.5-2.7L287.2,172.1z"/>
<path class="st3" d="M250.1,161.9c-4.4-10.2,11.5-26.5,36.7-27c25.2,0,41.2,16.4,36.7,27c-4.4,10.6-20.4,13.7-36.7,14.2
	C270.9,175.7,254.5,172.6,250.1,161.9L250.1,161.9z"/>
<path d="M286.8,172.1c0-1.8,15-2.2,23-7.5c0,0-16.4,5.3-19.9,3.1c-3.5-1.8-4.4-7.1-4.4-7.1s-1.3,5.3-4,7.1
	c-3.1,1.8-21.7-3.1-21.7-3.1s24.8,6.2,24.8,7.5c0,1.3-0.4,5.8-0.4,8.8c0,11.1,0,38.5,1.8,40.7c2.7,4,1.8-29.6,1.8-40.7
	C287.2,177.4,287.2,173.9,286.8,172.1z"/>
<path class="st5" d="M287.7,231.4c7.5,0,20.8,5.3,32.7,13.7c-11.5-12.8-25.2-21.7-32.7-21.7c-8,0-24.8,9.7-36.7,23.9
	C263.3,237.6,279.3,231.4,287.7,231.4z"/>
<path class="st4" d="M284.6,309.7c-16.8,0-33.2-5.3-48.2-9.3c-3.1-0.9-6.2,1.3-9.3,0.4c-27.9-8.8-50.4-23.9-64.2-42.9v4.4
	c0,92.9,32.7,66.8,54.4,77.9c22.1,11.1,45.1,7.5,68.6,7.5h0.4c23.9,0,46.5,3.1,68.6-8c21.7-11.1,54.4,15.9,54.4-77
	c0-3.5,0-7.1,0.4-10.2c-12.8,20.8-36.3,37.2-65.5,46.9c-2.7,0.9-8.8-1.3-11.5-0.9C316.9,304,302.7,309.7,284.6,309.7L284.6,309.7
	L284.6,309.7z"/>
<path class="st4" d="M242.5,259.7c0,0-11.1,33.2-3.5,47.8l-10.2-4.4C228.8,303.1,236.3,269.5,242.5,259.7z M330.1,259.7
	c0,0,11.1,33.2,3.5,47.8l10.2-4.4C343.9,303.1,335.9,269.5,330.1,259.7L330.1,259.7z"/>
<path class="st1" d="M214.2,90.3c-4,13.7-18.1,60.2,9.3,44.7c0,0-11.5,6.6-18.6,31.9c-7.1,25.2-25.7,28.3-25.7,28.3
	s-29.6,5.8-51.8-13.3c-18.6-15.9-21.7-44.2-13.7-65.9c8-21.7,22.1-27.9,42.9-32.3C177.5,78.8,218.6,74.8,214.2,90.3L214.2,90.3z"/>
<path d="M286.3,223.5c11.9,0,49.1,25.7,49.6,57.1v-1.8c0-32.7-30.1-58.9-49.6-58.9c-19.5,0-49.6,26.5-49.6,58.9v1.8
	C237.2,249.1,274.4,223.5,286.3,223.5z"/>
<ellipse transform="matrix(0.9683 -0.2498 0.2498 0.9683 -29.5773 78.465)" class="st6" cx="294.3" cy="155.8" rx="3.5" ry="6.6"/>
<ellipse transform="matrix(0.2963 -0.9551 0.9551 0.2963 44.8864 372.4935)" class="st6" cx="275.2" cy="155.8" rx="6.6" ry="3.5"/>
<circle cx="163.8" cy="140.7" r="38.9"/>
<circle class="st2" cx="173.9" cy="123.5" r="10.2"/>
<path class="st5" d="M297.8,141.2c0-0.4-10.2,4.4-12.8,4.9c-2.7-0.4-12.8-5.3-12.8-4.9H297.8z"/>
<path class="st0" d="M220.4,138.9c0,0-35,23.9-54,47.3s-18.6,27.9-18.6,27.9l13.7,6.2c0,0,19.5-36.7,43.4-50.4s27-25.2,27-25.2
	L220.4,138.9z"/>
<path class="st1" d="M143.9,68.1c0,0-11.9,32.7-38.5,46.5C105.4,114.6,147,109.7,143.9,68.1z M423.1,68.1c0,0,11.9,32.7,38.5,46.5
	C461.6,114.6,420,109.7,423.1,68.1z M347.4,129.2c0,0-26.1-27.4-61.1-28.3h0.4h0.4c-35.4,0.9-61.1,28.3-61.1,28.3
	c30.5-21.2,56.6-20.8,61.1-20.8C286.8,108.4,316.9,108,347.4,129.2L347.4,129.2z M316.9,71.7c0,0-13.3-18.6-31-19h0.9
	c-13.3,0.4-30.5,19-30.5,19c15-14.6,30.5-14.2,30.5-14.2S301.4,57.1,316.9,71.7z M163.8,207.5c0,0-20.8,10.2-35.8,4h-0.4
	c-13.3-7.5-19.9-30.1-19.9-30.1S120.9,221.2,163.8,207.5z M406.3,207.5c0,0,20.8,10.2,35.8,4c17.7-7.5,20.4-30.1,20.4-30.1
	S449.2,221.2,406.3,207.5z"/>
<path class="st1" d="M187.7,65.9c11.5-2.2,30.5-2.7,45.6,2.2c19,6.6,3.5,31,7.5,32.3c4,1.3,9.3-16.8,44.7-15
	c35.8,1.8,39.8,17.7,44.7,15c4.9-2.7-4.9-44.2,48.7-34.5c0,0-56.2-15-53.5,25.7c0,0-32.3-24.8-77.4-2.7
	C248.3,88.9,259.8,50.9,187.7,65.9z M383.7,65.9c0.9,0,1.3,0.4,1.8,0.4S385,65.9,383.7,65.9z M172.2,11.5c0,0-47.8,60.2-54.9,83.2
	c-7.1,23.5-12.4,119.5-18.6,133.2l-22.1-94.7l40.7-98.7L172.2,11.5L172.2,11.5z M397,11.5c0,0,47.8,60.2,54.9,83.2
	c7.1,23.5,12.4,119.5,18.6,133.2l22.1-94.7l-40.7-98.7L397,11.5L397,11.5z"/>
<path class="st3" d="M394.7,11.5c0,0,51.3,42.9,66.4,92.5c15,49.6,8.8,109.7,20.4,117.3c16.4,10.6,35-52.7,41.2-59.3
	c9.7-10.6,42-37.6,44.2-42.5c2.2-4.9-65.5-78.8-95.1-93.4C435.9,9.3,391.7,8,394.7,11.5L394.7,11.5z"/>
<path class="st4" d="M438.6,38.1c0,0,60.6,77.4,59.7,173.9l24.3-49.6C522.2,162.4,500.9,99.1,438.6,38.1L438.6,38.1z"/>
<path class="st3" d="M172.2,11.5c0,0-51.3,42.9-66.4,92.5c-15,49.6-8.8,109.7-20.4,117.3c-16.4,10.6-35-52.7-41.2-59.3
	c-9.7-10.6-42-37.6-44.2-42.5c-2.2-4.9,65.5-78.8,95.1-93.4C131,9.3,175.3,8,172.2,11.5L172.2,11.5z"/>
<path class="st4" d="M128.4,38.1c0,0-60.6,77.4-59.7,173.9l-23.9-49.6C44.7,162.4,66,99.1,128.4,38.1z"/>
<path class="st1" d="M95.6,213.7c0,0,4.4,23.9,11.5,31.4c7.1,7.5,2.2-5.8,2.2-5.8s-7.5-4-6.2-34.5S95.6,213.7,95.6,213.7L95.6,213.7
	z M473.1,213.7c0,0-4.4,23.9-11.5,31.4c-7.1,7.5-2.2-5.8-2.2-5.8s7.5-4,6.2-34.5C464.2,174.3,473.1,213.7,473.1,213.7L473.1,213.7z"
	/>
<g>
	<circle class="st4" cx="240.3" cy="195.6" r="3.5"/>
	<circle class="st4" cx="220" cy="216.8" r="3.5"/>
	<circle class="st4" cx="213.3" cy="195.6" r="3.5"/>
</g>
<g>
	<circle class="st4" cx="326.6" cy="195.6" r="3.5"/>
	<circle class="st4" cx="347" cy="216.8" r="3.5"/>
	<circle class="st4" cx="353.6" cy="195.6" r="3.5"/>
</g>
</svg>
