<?xml version="1.0" encoding="utf-8"?>
<!-- Generator: Adobe Illustrator 25.3.0, SVG Export Plug-In . SVG Version: 6.00 Build 0)  -->
<svg version="1.1" id="Layer_1" xmlns="http://www.w3.org/2000/svg" xmlns:xlink="http://www.w3.org/1999/xlink" x="0px" y="0px"
	 viewBox="0 0 566.9 504.9" style="enable-background:new 0 0 566.9 504.9;" xml:space="preserve">
<style type="text/css">
	.st0{fill:#61DAFB;}
</style>
<g>
	<path class="st0" d="M566.9,252.5c0-37.6-47-73.1-119.1-95.2c16.6-73.5,9.2-132-23.3-150.7c-7.5-4.4-16.3-6.5-25.9-6.5v25.8
		c5.3,0,9.6,1,13.2,3c15.7,9,22.5,43.3,17.2,87.5c-1.3,10.9-3.4,22.3-5.9,34c-22.6-5.5-47.4-9.8-73.4-12.6
		C334.1,116.4,317.9,97,301.6,80c37.7-35,73-54.2,97.1-54.2V0c-31.8,0-73.4,22.6-115.4,61.9C241.2,22.9,199.6,0.5,167.8,0.5v25.8
		c23.9,0,59.4,19.1,97.1,53.9c-16.2,17-32.4,36.3-47.7,57.7c-26.1,2.8-50.8,7-73.5,12.7c-2.7-11.6-4.6-22.8-6-33.5
		c-5.4-44.1,1.3-78.5,16.9-87.6c3.5-2.1,8-3,13.3-3V0.6c-9.7,0-18.5,2.1-26.1,6.5c-32.5,18.7-39.8,77.1-23,150.3
		C46.8,179.6,0,215.1,0,252.5c0,37.6,47,73.1,119.1,95.2c-16.6,73.5-9.2,132,23.3,150.7c7.5,4.4,16.3,6.5,26,6.5
		c31.8,0,73.4-22.6,115.4-61.9c42.1,39.1,83.7,61.5,115.4,61.5c9.7,0,18.5-2.1,26.1-6.5c32.5-18.7,39.8-77.1,23-150.3
		C520.1,325.5,566.9,289.9,566.9,252.5L566.9,252.5z M416.5,175.4c-4.3,14.9-9.6,30.3-15.6,45.6c-4.7-9.2-9.7-18.5-15.1-27.7
		c-5.3-9.2-11-18.3-16.6-27C385.5,168.7,401.3,171.7,416.5,175.4L416.5,175.4z M363.5,298.5c-9,15.6-18.3,30.4-27.8,44.1
		c-17.2,1.5-34.7,2.3-52.2,2.3c-17.4,0-34.9-0.8-52-2.2c-9.6-13.8-19-28.4-28-43.9c-8.8-15.1-16.8-30.5-24-46
		c7.2-15.5,15.3-31,23.9-46.1c9-15.6,18.3-30.4,27.8-44.1c17.2-1.5,34.7-2.3,52.2-2.3c17.4,0,34.9,0.8,52,2.2
		c9.6,13.8,19,28.4,28,43.9c8.8,15.1,16.8,30.5,24,46C380.2,267.9,372.2,283.3,363.5,298.5L363.5,298.5z M400.9,283.5
		c6.2,15.5,11.6,31,15.9,46c-15.1,3.7-31.1,6.8-47.6,9.2c5.7-8.9,11.3-18,16.6-27.4C391.2,302.1,396.1,292.7,400.9,283.5
		L400.9,283.5z M283.7,406.8c-10.7-11.1-21.5-23.5-32.1-37c10.4,0.5,21,0.8,31.8,0.8c10.9,0,21.6-0.2,32.1-0.8
		C305.1,383.3,294.3,395.7,283.7,406.8z M197.7,338.7c-16.4-2.4-32.2-5.4-47.4-9.1c4.3-14.9,9.6-30.3,15.6-45.6
		c4.7,9.2,9.7,18.5,15.1,27.7C186.5,320.9,192.1,329.9,197.7,338.7z M283.1,98.2c10.7,11.1,21.5,23.5,32.1,37
		c-10.4-0.5-21-0.8-31.8-0.8c-10.9,0-21.6,0.2-32.1,0.8C261.7,121.7,272.5,109.3,283.1,98.2z M197.6,166.3
		c-5.7,8.9-11.3,18-16.6,27.4c-5.3,9.2-10.3,18.5-15,27.7c-6.2-15.5-11.6-31-15.9-46C165.1,171.8,181.1,168.7,197.6,166.3
		L197.6,166.3z M93,311c-40.9-17.4-67.4-40.3-67.4-58.5S52.1,211.4,93,194c9.9-4.3,20.8-8.1,32-11.7c6.6,22.6,15.3,46.2,26,70.4
		c-10.6,24-19.2,47.5-25.7,70C113.9,319.2,103.1,315.2,93,311L93,311z M155.2,476.1c-15.7-9-22.5-43.3-17.2-87.5
		c1.3-10.9,3.4-22.3,5.9-34c22.6,5.5,47.4,9.8,73.4,12.6c15.6,21.4,31.8,40.8,48.1,57.8c-37.7,35-73,54.2-97.1,54.2
		C163.1,479.1,158.7,478.1,155.2,476.1L155.2,476.1z M429.3,388c5.4,44.1-1.3,78.5-16.9,87.6c-3.5,2.1-8,3-13.3,3
		c-23.9,0-59.4-19.1-97.1-53.9c16.2-17,32.4-36.3,47.7-57.7c26.1-2.8,50.8-7,73.5-12.7C425.9,366.1,428,377.3,429.3,388z M473.8,311
		c-9.9,4.3-20.8,8.1-32,11.7c-6.6-22.6-15.3-46.2-26-70.4c10.6-24,19.2-47.5,25.7-70c11.4,3.6,22.3,7.5,32.5,11.8
		c40.9,17.4,67.4,40.3,67.4,58.5C541.2,270.6,514.7,293.6,473.8,311L473.8,311z"/>
	<circle class="st0" cx="283.3" cy="252.5" r="52.8"/>
	<path class="st0" d="M398.4,0.1"/>
</g>
</svg>
