<?xml version="1.0" encoding="utf-8"?>
<!-- Generator: Adobe Illustrator 25.3.0, SVG Export Plug-In . SVG Version: 6.00 Build 0)  -->
<svg version="1.1" id="Layer_1" xmlns="http://www.w3.org/2000/svg" xmlns:xlink="http://www.w3.org/1999/xlink" x="0px" y="0px"
	 viewBox="0 0 566.9 425" style="enable-background:new 0 0 566.9 425;" xml:space="preserve">
<style type="text/css">
	.st0{fill:#CF649A;}
</style>
<path class="st0" d="M488,244c-19.8,0.1-37,4.9-51.4,12c-5.3-10.5-10.6-19.7-11.5-26.6c-1-8-2.2-12.8-1-22.4
	c1.2-9.5,6.8-23,6.8-24.1c-0.1-1-1.2-5.9-12.6-6c-11.4-0.1-21.3,2.2-22.4,5.2c-1.1,3-3.3,9.9-4.8,16.9c-2,10.4-22.8,47.3-34.7,66.7
	c-3.9-7.5-7.2-14.2-7.9-19.5c-1-8-2.2-12.8-1-22.4c1.2-9.5,6.8-23,6.8-24.1c-0.1-1-1.2-5.9-12.6-6c-11.4-0.1-21.3,2.2-22.4,5.2
	c-1.1,3-2.3,10.1-4.8,16.9c-2.3,6.9-30,68.4-37.2,84.5c-3.7,8.2-6.9,14.7-9.2,19.2c-2.3,4.4-0.1,0.3-0.3,0.8c-2,3.8-3.1,5.9-3.1,5.9
	v0.1c-1.6,2.8-3.2,5.4-4,5.4c-0.6,0-1.7-7.4,0.2-17.6c4.1-21.4,14.1-54.7,14-55.9c0-0.6,1.9-6.4-6.4-9.4c-8.1-3-11,2-11.6,2
	c-0.7,0-1.2,1.8-1.2,1.8s9-37.5-17.2-37.5c-16.4,0-39,17.8-50.2,34.1c-7.1,3.9-22.1,12.1-38.1,20.8c-6.1,3.3-12.4,6.9-18.4,10.1
	l-1.2-1.3C99,244.9,40.4,221,42.9,175.6c0.9-16.5,6.6-60,112.5-112.7c86.7-43.2,156.1-31.3,168.2-5
	c17.2,37.7-37.1,107.6-127.2,117.7c-34.3,3.9-52.4-9.4-56.9-14.4c-4.8-5.2-5.4-5.4-7.2-4.4c-2.9,1.6-1.1,6.2,0,9
	c2.7,7,13.7,19.4,32.6,25.6c16.5,5.4,56.8,8.4,105.5-10.4c54.6-21.2,97.2-79.8,84.7-128.9c-12.7-49.9-95.6-66.3-173.9-38.5
	C134.6,30.1,84.1,56,47.7,90C4.6,130.3-2.3,165.5,0.6,180.1c10.1,52.2,81.9,86.2,110.7,111.3c-1.4,0.8-2.8,1.5-4,2.2
	c-14.4,7.1-69.2,35.8-82.9,66.1c-15.5,34.3,2.4,59,14.4,62.3c37,10.3,74.9-8.2,95.3-38.6c20.4-30.5,17.9-70,8.5-88l-0.3-0.7
	l11.3-6.6c7.3-4.3,14.5-8.3,20.8-11.7c-3.5,9.6-6.1,21-7.4,37.7c-1.6,19.5,6.4,44.7,16.9,54.7c4.7,4.3,10.2,4.4,13.6,4.4
	c12.2,0,17.7-10.1,23.8-22.1c7.5-14.7,14.2-31.8,14.2-31.8s-8.3,46.2,14.4,46.2c8.3,0,16.6-10.7,20.4-16.3v0.1c0,0,0.2-0.3,0.7-1.1
	c0.5-0.7,0.9-1.4,1.3-2.1v-0.2c3.3-5.8,10.7-18.9,21.8-40.8c14.3-28.1,28-63.3,28-63.3s1.3,8.6,5.4,22.8c2.4,8.4,7.8,17.6,11.8,26.6
	c-3.3,4.7-5.3,7.3-5.3,7.3l0.1,0.1c-2.7,3.5-5.6,7.3-8.7,11.1c-11.3,13.5-24.8,28.9-26.6,33.3c-2.1,5.2-1.7,9.1,2.4,12.2
	c3,2.2,8.3,2.7,14,2.2c10.2-0.7,17.3-3.2,20.8-4.8c5.5-2,11.8-5,17.9-9.4c11.1-8.2,17.8-19.8,17.2-35.3c-0.3-8.5-3.1-16.9-6.5-24.9
	c1-1.4,2-2.9,3-4.4c17.5-25.6,31-53.7,31-53.7s1.3,8.6,5.4,22.8c2.1,7.2,6.3,15.1,10.1,22.8c-16.4,13.4-26.7,28.9-30.2,39.1
	c-6.5,18.8-1.4,27.4,8.2,29.3c4.3,0.9,10.5-1.1,15.2-3.1c5.8-1.9,12.7-5.1,19.2-9.9c11.1-8.2,21.7-19.6,21.2-35
	c-0.3-7.1-2.2-14.1-4.8-20.7c14-5.8,32-9.1,54.9-6.3c49.3,5.8,59,36.5,57.1,49.4c-1.9,12.8-12.2,19.9-15.6,22.1
	c-3.4,2.1-4.5,2.9-4.2,4.4c0.4,2.3,2,2.2,5,1.8c4.1-0.7,25.9-10.5,26.8-34.2C568.2,276.9,539.3,243.7,488,244L488,244z M108,372.1
	C91.7,390,68.8,396.7,59,391c-10.5-6.1-6.4-32.3,13.6-51.3c12.2-11.5,28-22.1,38.4-28.7c2.3-1.4,5.9-3.5,10.1-6.1
	c0.7-0.4,1.1-0.7,1.1-0.7c0.8-0.4,1.7-1,2.5-1.6C132.2,329.7,125.2,353.4,108,372.1L108,372.1z M227,291.2
	c-5.6,13.8-17.6,49.4-24.8,47.4c-6.2-1.7-10-28.6-1.2-55.1c4.4-13.4,13.8-29.3,19.4-35.5c9-10,18.7-13.3,21.2-9.2
	C244.4,244,230.6,282.6,227,291.2z M325.3,338.1c-2.4,1.2-4.7,2.1-5.6,1.4c-0.8-0.4,1-2.1,1-2.1s12.3-13.2,17.2-19.3
	c2.8-3.5,6.1-7.6,9.6-12.3v1.3C347.4,323.2,332.1,333.8,325.3,338.1L325.3,338.1z M401,320.9c-1.8-1.3-1.5-5.4,4.4-18.3
	c2.3-5.1,7.6-13.6,16.8-21.7c1.1,3.3,1.8,6.5,1.7,9.5C423.8,310.4,409.6,317.8,401,320.9z"/>
</svg>
